<mxfile host="app.diagrams.net" agent="Mozilla/5.0 (Windows NT 10.0; Win64; x64; rv:139.0) Gecko/20100101 Firefox/139.0" version="27.1.1">
  <diagram name="Strona-1" id="pr8iD_6MdgzBGkeLSL8R">
    <mxGraphModel dx="385" dy="211" grid="1" gridSize="10" guides="1" tooltips="1" connect="1" arrows="1" fold="1" page="1" pageScale="1" pageWidth="827" pageHeight="1169" math="0" shadow="0">
      <root>
        <mxCell id="0" />
        <mxCell id="1" parent="0" />
        <mxCell id="3NPf6kUw7ShUpQloCWO0-1" value="" style="rounded=0;whiteSpace=wrap;html=1;" parent="1" vertex="1">
          <mxGeometry x="350" y="150" width="310" height="190" as="geometry" />
        </mxCell>
        <mxCell id="MvdJouwT5eNI-UK8mvhW-1" value="" style="rounded=0;whiteSpace=wrap;html=1;fillColor=#a20025;fontColor=#ffffff;strokeColor=#6F0000;" vertex="1" parent="1">
          <mxGeometry x="507.5" y="325.34" width="15" height="14.66" as="geometry" />
        </mxCell>
        <mxCell id="MvdJouwT5eNI-UK8mvhW-2" value="RIS" style="rounded=0;whiteSpace=wrap;html=1;fontSize=12;" vertex="1" parent="1">
          <mxGeometry x="455" y="305.34000000000003" width="120" height="20" as="geometry" />
        </mxCell>
        <mxCell id="MvdJouwT5eNI-UK8mvhW-12" value="TX" style="text;html=1;align=center;verticalAlign=middle;whiteSpace=wrap;rounded=0;fontSize=13;" vertex="1" parent="1">
          <mxGeometry x="576.62" y="185.09999999999997" width="30" height="20" as="geometry" />
        </mxCell>
        <mxCell id="MvdJouwT5eNI-UK8mvhW-17" value="lokalizacje RX" style="text;html=1;align=center;verticalAlign=middle;whiteSpace=wrap;rounded=0;fontSize=13;" vertex="1" parent="1">
          <mxGeometry x="305" y="150" width="260" height="30" as="geometry" />
        </mxCell>
        <mxCell id="MvdJouwT5eNI-UK8mvhW-18" value="" style="rounded=0;whiteSpace=wrap;html=1;fillColor=#a20025;strokeColor=#6F0000;fontColor=#ffffff;" vertex="1" parent="1">
          <mxGeometry x="510" y="150" width="10" height="120" as="geometry" />
        </mxCell>
        <mxCell id="MvdJouwT5eNI-UK8mvhW-23" value="" style="shape=image;verticalLabelPosition=bottom;labelBackgroundColor=default;verticalAlign=top;aspect=fixed;imageAspect=0;image=data:image/png,iVBORw0KGgoAAAANSUhEUgAAANcAAAEKCAYAAACBqsDwAAAAAXNSR0IArs4c6QAAAARnQU1BAACxjwv8YQUAAAAJcEhZcwAADsMAAA7DAcdvqGQAAFF2SURBVHhe7Z0HvB21lf8nuwk1EEKJDaY6BhswHUw1YEoIpkMIpvcWFhIgsLSEGgJLCdnQuxNTQu/N9LYsAQymGjABQrEpDgRCYLP7v399j9/vcq6smXvf87vP9903v8/nfDSjkY6OpHMkjUYjfaMSkJUoUaLb8S8dbokSJboZpXGVKNEklMZVokSTUBpXiRJNQmlcJUo0CaVxlSjRJJTGVaJEk1AaV4kSTUJpXCVKNAmlcZUo0SSUxlWiRJNQGleJEk1CaVwlSjQJpXGVKNEklMZVokSTUBpXiRJNQmlcJUo0CaVxlSjRJJTGVaJEk1DuoTGDMCOK/Rvf+EbHVYmeQGlcTYSKFqWOi1mK7v3/3//7f+bmhfXGoTBFYeN4cVgPz7tE96A0riZBxYrSxkXMPYaE+y//8i/Zv/7rv3Y86X783//9n6WFHKTlDY70vXx6VqJ7UBpXNyCvCKW4kHqlb37zm+Z6/O///m/2wQcfZO+991727rvvmjt58uTso48+yj799NPss88+y7788svsn//8Z9UgvvWtb2WzzDJL9u1vfzubc845s/nmmy/r169ftsACC2QDBgwwF7+ZZpqpI5WvQXrAG1sMyV4aXNdRGlcTQJFC9Br0SiixgGJPnDgxe/7557Nx48ZlL7zwQvb666+bUWFI3QUMDiNbfPHFs6FDh2YrrLBCtswyy2Tf//73awwco5ecGJKMqTSs6UdpXF1AXpHhj7JiTN6g3nzzzezRRx/N7r///uzJJ5/MXn31VeuFUijqTXy6RWHUS8agt1tiiSWyYcOGZSNGjMjWWmutbLHFFut4OtXQJH8e/9LgGkdpXA2CYkKx5Ho/Wn6ufY/w4osvZnfeeWd22223ZU8//XT2+eefdzyZCq/AMoburgr4y8jhHRvd7LPPnq200krZpptumo0cOTJbeumlO558PXTU+6DPsyC/EmmUxtUJUFQolIoMowIyqkmTJmU333xzdvXVV1tPJQUFUlLi5vUsPQFv1JIfIN+aa66Zbb/99tkWW2yRzT///OZPHryRgtKoGkNpXAWIjUnXKCXKJoV74oknsssvvzy74YYbsg8//ND8AApL+BlpTPUgY/OGNu+882Zbbrlltvvuu2drrLGG+SnfaiRilAY3LUrjqgOKR0YlI5GC3XHHHdnZZ5+d3XXXXfYcdJdBkaaoHpQ2rq67gtjQuN9www2zAw88MNtkk03Mzz9rRLY+jVAZJToQDGIaAkGhKv/zP/9j1+CWW26prL322mhxlYJRVYKy1fjVI8IHJbW4ENf4cx2H7QzFPLsiF3F9vLXWWqty0003dZRAxcqDckmVGVSiUil7rg74YghKZW5QEiO9Uz3yyCPZiSeemI0dO9buCQcRplGoxSdOquhnnnnmbNCgQfb8O9/5jg3RmHiYddZZ7btWUHrrPfjuBTFR8vHHH2d//etfsylTpmSffPJJFhS/g9vXIE3SJs3Oykscybr++utnv/jFL7J11lnH7nknI4zCqez8dV9FaVwRVBxSQJT5rbfeyo499tjs97//vT3HD7cRJZVS4/oJDjDPPPNkgwcPtu9PzNQNGTIkW2ihhbL+/fvbx+HUB+c8YHB/+9vf7OPzO++8k02YMMG+oY0fP96m/vkg7UEeQJ6Rx1AeNCzcZZddsuOOO86m8uVHGKGvGxbo88aVyj5GwDchcM4555gSSTlRoEaMKlZGQE/E1Pe6665rM3MYFaso8uAVPyWnFBjXK3YMJlleeuml7OGHH84eeugh+zRADyd0prHw+Z977rmzX/7yl/ZOhj/f7lINQp81tFCofR5BWYyCIVS++uor8wutfiUMgdBoo6CA1esiIlxQpup9UMDK1ltvXQm9XiX0gMbbgzSDUhoFozbCTzJ1hohHfPHTe1GMt99+uzJmzJjKj370o0roPauyIndn8qnrMESshB7SeMfvYn0ZfdK4vEJKAVBG4Xe/+11ljjnmMMUJLXJDEwKxUjLhcf7551fCEK2D61Sg/Cgg6UkJgZelOwFP0pGxkb7Hu+++W7nwwgvNQLz8jRiZN8YwjK389re/7eD6dXkqX83KXyujTxlXqnLxQ+lAGD5Vtt1226ryYFi6ziOvhBjk7rvvXnnssceMn6DeJGVMnuQ/PYh5etJzGZsMQHj88ccre+65Z7VhifOXR76cdt5558oHH3xg/ChXn67gr9sZfa7nomJVuSiZDOuJJ56oDB482BQkvDdUlSWPvNKFd6nKwQcfXJkwYYLxArFBpagnkUofkqH5Hu3VV1+tHHrooZXvfve7yfzmUb9+/SqzzDJLJbxLWnkCypc0gNLsK+gTxqUKVeVCUipw+eWXV2addVZTkHqGxVBILfXMM89c+bd/+7fKxIkTjQ9QjxArkU9b9z0Jn66XQ+Besgt//vOfKwcddJAZjPJeNET+1re+VVl44YWtsSHOpZdeanzgmdfItDP6TM/lK1O9Cjj22GOrylFvGOhb76222qryzDPPGA+gFtorjqdWREpOiHyoRwfjxo2zSZlUOcSEgS244IJVg/zFL35hPChz9Y6k0RfQ9sYlhdE1FSwF4v0CBag3aeFb7O9///uVa6+91vgBb1RAbm8F8otiI7v++usriy++eLVM8hoj/EXc77bbbtVyl+upXdG2xuUrTspPxXL997//vdoS13uX8Aq07777Vj7++GPjSc8Xt8Sx2wh8nEaoM2FFjUJhY5d8qqefMmVK5YADDkiWT4pUvltuuWXl888/N57ewIC/bif0iZ4LoBxcU8E//OEPrcLrvV9JMQYMGFCzrk68vFLI7QriuJ43RIOQRz5cd8LzFcnAwK233lpZaKGFasopj1TOG2ywQeWTTz6x+L4M2xVtZ1y+wnSNEtJa0mNttNFGVtH1FELDQAyRj64gHgICn1Y9SJ4USUaUDlLr3ggIF8eNDS9FRdBzH45r+GqoyDe8kSNHVstLZZYilTcf5mngimRsF7T9sJAKlNJtuummVsFFPZZXkH//93+3+ID4vvL9dSOIw3KPgslg8/CPf/zDhqJ87GX2jplJXO7x/+KLLzpCTgvxx5W8Xo5Ypjz4eLqWgXF91FFHJcsvJpX7JptsUpULEp92Q9utLfTZ4TpUmq1323HHHbMrr7yyuqo8BT1jx6QLL7ww23XXXauLbeEBv6A8VbcIPizQNfLgws+DtYsssGUN4Msvv2yb2LBpDSveQ4+bBSOaZven2WabzVbMswCYP4fZfGappZayRcDslcGKeg/yQtzwntThMxWSDbcICiOXslJexowZk+21117ZV199VVjGhEWOUaNGWX0QDnl82vXk6DUIhdM2oPXzpHWCfBAlq0VDQT1jLeC9995r8XyvAj+5uvaQv3/uXfV8wmeffVZ54IEHbKp6xIgRlfnmm28amaaH4LfeeusZ//vvv7/yt7/9rSPlqfDyeNdTDO8vl/JRL0Y6WqvYSFnzDQ1QT+Lt0+jtaCvjAqocVTjr3ajI0GLWVLAnPeP7DN90QKrCoTzomXe94gGGQCjgT37yk8piiy02jRyhxTbFEzEThx8Uh1V4iHA+Xio86e23336V++67zwxLUAOi/MX5SMGHFakhe+6556oTHY2U+W9+8xuLhxzi1S5oC+PylQxJee655x5TPCiuXJGeoXxhSGbx1KpDIHYF7y8CsVG99957lTPPPLOywgorTJO+N6L42fSQN7qY93LLLVc544wz7L1NkJGBOD9yhdhfYVXuYVhr3wNJq17ZI9tdd91l8fLKvbei7YaF9A64vPh/73vfs0rMU1wUD5clO1oX6FtQURH0XGF9r8AvJkcccUSlf//+1TSRJa93aSal0mUt4OGHH24TJEKs4PWgsCI1Kq+//npl0UUXtXRUzjFJFoawrGckvuoP6u3o1calShDR8lI5VPDw4cOt4upVLAaof5EaVSyfpoh0IfDpp5/asire35QechS14j1J6tF0P9dcc1WOPPLIykcffWTyKy+pfBZBYdTAvPjii5X555+/mqbS8yQ51lhjDas30s3rQXsb2mpYqEplCp0KyxvzY1jQbLPNVv09xPdYIK9Cvb+UQK01YBHwkksuWU0L5fG9RSNEeBmAiHtIz1LPO5sORFxdL7LIIpXLLrusIydf50v5BPXKBRdSXFbH868XsuXJp3o67LDDLI7qwqfbG9E2PZcMiwkDKtErTUw8I8wNN9xgcbxhQfWgcFS+XuQZ1vD9RmmgMI0qu+QtkrkzJF6dSd83RBtvvHHNMJl8NlI2CqNwMrCbb77Z0qAB8Ol6Ut7Hjh1rcfwoQvx6G3rtdy4vNtcQ34NWXnnl7LXXXqt+j4kRKtG+rZxyyilZ6OGq+z4QXiCevwfyE89Q4cYLsCHoz3/+c/smFRTIwqTS9oAXYZHFg+9XbFLDNysOUQjvg3Z6CftvsAOU5Oe7Fwc3cDrK22+/bYc58G3sL3/5yzS7PxEHeRuRCSIs+2Ocdtpp2R577GHPSBN5gcoBN4b35zoM8yxPZ5xxhpWR5I8hnuT5T3/6k23QA5QmSKXX0ggZ6rVQq6Zei+8mZCmvhZT/qFGjLLym20NlN9RCKozerVg9sf/++1f5B8WpXucRMsThhgwZUtl7771tXwtmLItWXRQBeZipg88+++xTMzyFSDevbDx5+eADX+Dfw4qgMCpX9WC77LKL8axXPywMBr736o3otcalQpdhMbYvUh75o8gsHkVRZCRFlad0FEaKEnqI6qRJI0NA0veyMUPJ38uPPvpoVXk9kI28kR6uSP4iPVdePL788kt7pzzkkEOqM3cpWVJEfjRUJJ9+fSXwZZIHhVFZ8yF76aWXrvL36Ykkm96FyVsjabUiep1xqZDVKkqxmG1S5cQVBmF4/Dms388bqTT/TGkBPjQPHDjQ+Pp3lRShRF6m1VdfvTJ69OjKX//6V+MlwBvyvWgjBPw98cXLg/T+8Ic/VNZcc82qLMge96IxKX8Yp34OhXecdh70XPI8/fTT9td3Xj3Jf9iwYdWGg/iNji5aCb2y54or7OKLL7YKyVMUVdhJJ51k4ak08RDlQc/VYtPTzDvvvMavnmF5eTCqG2+8sSYteNIwpAwK+LBF8OFjgn9saPw+gzwzzTSTlU2eoouUTz4tPPTQQ8ZDZViEWBZN/px++unGLy9dldsFF1xg4WVgUG9Cr+65IL4pMcSih0gNNXxLSOVSUYorxJWme1WoDOvhhx+2/SHgV9Ti+96Kf8EuuuiiqoLDTzLoXm5M8i+CDxeT/OWSD6WL0V1xxRU1PXDeUA1SfphWf/DBB42HDMyTh79XmZN30taQOmVgqkuWUTGEV1wQp9HK6JXGBUnhTz75ZKuQol6LfR3+9Kc/WXiv5KIU9Ezhn3zySfvYKp5xOiL/jN/b33//fYsvxfLpemoGUulA3rjZTo6JIMndSN5oYBodXvt0gcqTTVeLhoeqzxNOOMHC10unFdFrjEsFq1YMYn88lvBQCUW9llZfd1URWEq1wAIL1PBMkR8+0SsI8JEy56XdU1D6yKP8gauvvrq6or1ouKv8s/Litddes7jiE5dfDD1TeH3sTzWM6r0Ygk+aNKmm3ovSaCX0yp5LlaNeK6XwqhzW9WGE9SrH33NNOIYvDEu04LbIsKQghKVVBsgJD6WnNPx1T8HL4Il8qjz5DLDiiivW5CdFKodll13W9tTw5Sr4a+DTU9kyycJEieoqL5249+ot6JU9Fy4Vwy8iFH5RxbA1NfDvB3nwaSg8+6nDp6g11zNWaGiPCKbBxU/USohlQ16A/Jtvvrnlp8jAlOctttjC4ut9TvzyoOca1rO3IXzyGkhcekmMmHiNpNEq6BXGpcKEVCnnnXeeFXzekAKXHXT5hkQrqUrJA88URi35qaeeanx4Z/P8PSl9PpCql1ILCz+hKO0ZAS+Prr3cbMvt85cilcuJJ55YE1+UB6VBeTHJRA8In1QjqfTVSDaaRiugV/ZcGBhbJlPoRRVyySWXWNxGKkTPCAvYNx3loUVNpQEpHRQRoCwysJhaESk5lQegfR2LDIzygfwUPYBXCj4tlfVVV11lvFLpqEdbaqmlzBCpf1Gro1f1XDISFndS4Cmll98SSyxhuz2hKFSEeMSQvyqMNNidqN5KAinCNttsY/G9UqbS6SzEQ/IVkcJNL8SPfKist9tuu5r8xqTyYeULKzCIp7IUvxjyJwxpYTT8wOn5eZLfnXfeafEkW4p3K6FXGZdaxR122MEKOzVOl99ZZ51lYYmjSsirDPGn0gD7TnheMcmf1Q4YsBRKfIC/LkIc3seL/aS0Pi1RKrz86iEOD0nxGVbr/Od65aFfRqT89UAaqlOOMfK8PMkPQweqU+K3MnqNcUmh+GVeH3LziCnlyZMnV+Mpbgr4QygSLjNm7HOep0hqRZlM0dlbviUVdQYK7+Or9yhSVPwVRvKL9Lwz8PEh+AK2A+BfL5//mCgvVnywh4biik8M+UOqGyZSiiaooDnnnNPK3MdrZeSf9dkCCPJV3VCQdn3HHXfYrxahMu3eIwxdzN1+++2z733ve/ZrQ6ioKokf4NrfA8IcddRRdpB3HkiXdEaPHp0NGDCg+ssKvJROEZSuJ/mTR8lMGvCF8OdA8dCw2PnMbLnGPWEVhvDEw4/wnm9MRVAeCAdf8rfAAgvYedDc5+UP/9CjZEceeeQ0YeJ0/XOuQ8Ngv9TstNNO5peqW/w48/m2226ze/IpnvXyNMMQBGtp0DpBtMxAW1HTUuJ6ChVl/k899ZTFKWo9BYUDbHWWxxsKymWuTu5geBIquZpGvbRSILx6KYF3PmTh+w5T3bz/8bGcQ+lY1YDL/dChQ+358ccfb7s6EU9ANvVmnYHPh0hDN2YFfTnEpHKLN5zJg55JTkYN9H4xX0i82RLbxyniP6PR0sblCx8wJGBoEBc8hGHhrrrqqtWhIJQHVQykitpwww2NR57h4vKRlW9CKI43rEagsCLiS3EBq875DUXr/TpDGNzKK69c+dnPftbQ0UaNwIcnv/BabbXVLL1UGclvrbXWqpa/55GCnhEWsNei5xXT7LPPXv39RXqRx3tGo+WNC6JScfllggIuqtj/+I//sLiKI/LgXhWv1pVFuer5Yt4Qz5gxY1U8iFvlOA2POByEYkih+IWFHzh9q630IK5l3P45RC/CKhQaHb2L8msNx6fKyEgn1dL76xhxOPILWFNImrE8IpUf29opHq7IQ/fIp/o699xza/h4oixw2aeEsL6OWxG9xrjAjjvuWFPIMaGc7DgEvPKmIN5q/ZhSh0eKtyoahQVFCpMHH1b5oQc85phjzBjgj8LKmHz6eUQ4tiWj16JFZ0IAYuU6z+HLrk7MaIKiBicPCocrAyv6/iU/VqsAGXVRXfBMz998803bOCjmC4m3Zg19PbQiWt64KHRc3ifyZqyk/H5IWFToeqaKZ489nYSYItJDedmEBt6+F4CKoOcKKwVlAxj/42JKUYuIPKOEvHtBrNjHmGSonh/l8sorr1i6sUL66xT0HFKDxT6H9JRFjQANHe9QiiceKXj+IG9oqPRoQPimRhzVdSui5WcLoVCodjgBG7HI34PnYKONNrJZpVDgdl8PoVIs7tVXX20zhMSNgR/pMZPF5inE8eGUdgqSXW5QHptxC0PQbN11180ee+wxuweNygyC4WTf/e53qzNouPD56quvjID44f/f//3f2dprr5098MADdo8cXq6iPPhnpAPfRRdd1DauIb4vCwH5Qi+ZhWG8xe9MfcBz5MiRdh/LxTMQ3r3twAqe4yf/lkMQrCVBawRpKFM0Fg+FbC4/8RFWrXMeQmVXCf5FS6kgDTfhqVa4HhQGF9JQkEMe6AXh20hvRX4JJ+KeYR8/iPKuRe8VDKbw25/SIezdd99tcsRDRKgeCKP809vrkPaYVI6DBg2yzXZ8eefB8+bfu7y6UP1zBgBhfT5aDS1rXIAC0zBKOwflKSQ757JSHlCJRQWOPxUJ/uu//ivJD1JFbrbZZhZWlV+Pv6AwSov9I2QEqUbCE8/zFEykdyuoXlg95/0s9GQmT6PvLAojUp0ULY1SeuwjCYoaPPFVufKOWO8VgPdv4Pnm8Z9RaMlhYZCrSqHibLgwfvx4e8a1Ryhsc5dffvksvHfYECRUiPnJjQFf+ODyURqQTh40BFLa8BXlgfCAOIRjf8Ftt93WPoArTymQH8JLviWXXNLSDy11dt1119lHVNyzzjor23PPPbNhw4ZZPMIST+URg+ek+9lnn2XBKLLJkydbWMkheVNI5ZXw2tMwFVdy3HrrrebW4y+X+gs9bLbSSitV/TzEB30gLHnCD4rDznAEoVoStGIQYMlT3vetULjmMusWFMWGCcTjOob8cBWm3q5R7OPAWVo+ThF47sNqONjIAef+GVPzfBjWf1Z5YO0fvcP2229fbeUbSUP/Yanll7xQPSgsaes0E6Ut0n1o9Gp6fJBKQ881zDvllFMsfl5e6LXZ3g4QTzK1ElrSuCgkSBX/yCOPWIHGFQjJKNia2scpgoZpVI7ef2JSpe61114WVnxF9SBZQNEvFSLem3BRRv2+AcQHpcONyYN4ocU3Po0YGN8NAXwazZNIjYY2Ys1Lj9lLZlmBjCwF/DEQycK7IfFTjZ70IH7HzuM9o9DSxqUK1N+qeRWIYjYy7St/VQZbnRG/qAKvv/76ahy1vEVQGmpNmTLWiotU4wApX3xHo5cEpCc5BV3HfgoL+GTBxjieb0zIAfFe43dXgpfnnQeliXv77bcbz1QZyo/9RAir+kylgR+kho/p/nrfu1hJDyRLiu+MREu+c3kEGW0f9CKwSJf91YPCGBEHN4b8cQF7koO8sGHoka222mr2PChKx5PGECra4oSGIXvjjTeq7wYx8A+Kne2zzz62ODb0pDZVTlymzSWv4noX4jk8IOLxvnLZZZdl+++/f/WdJAbx4M8i4IsvvtiuCatn9aD4pL3KKqvYZwHyG0PlyqcAQXKngL/yyxnPEBCfGOyNX8RvRqOljUuFGloxc2NQwYBDCzAEKpg4qqAUVIHQuHHjqn4e4rvMMstYBXu+9aDKhkd4J8nOOecc808pnwyL7zrnn3++GQfh8FcevLwp8rJjjMSHz7nnnpttvvnmxl/58ZA85513nh3qICOEZz0obXjPN998NpkE4nQk27PPPmvhSUP5iSGeELKF4aQdQqFnHuIrvUjxawW0rHF5pXr//ferfh4Kw4wa11SKjxcDP55TyWGIUu0RY76Ku+KKK5qLEolvHniuMMiBG94Jck9cUbh+/fplF110UTWuFJRr7+bBh4MH8bmGdxg22e8i4u0hP1r/++67z66VT1EelJbKm5Nl5O8hHvwigwGnjFwgbMyXj9Ug5ivAl2fwVVqthJY1LhUaFc60MYgLkNZtlllmMQX1qFfQ8P7www8LjRYsu+yy5gJVfBG8EnB9ww032HVKqcTvl7/8pRlA3MPwzPMrgngpvMqNcjnuuONyeSm98F5Z85zrVHhB5aAw9PBA/oLu+fzw0Ucf2X0cRoAXz3zaDPVBHl940kv7OK2EljUuFTQtHkt85CfwboFhsWyJnxYJG1dODJ6LJk2alIWX/44ntVA6LHfy/PL4Ap6JNz0jy5Aeeughe0ZL7EFY/BZbbLFs1113NUPwwzJRZ6DwcuFHGizbYtjMdcxTcrEci3IkDmGUjzwQxqc3aNAgu47zOdNMM9n7MMNjylvI4+3l47p///7V6xQwWs5k43mRvDMKLW1cEMZFAQIVMj0WH4zV8nIP8ipBUCXgqjdMxSEM7y8YLajHF6hyxZ/hlt4J9EyQ3KNGjbIJDK+UcdjOQvGRAaPlwLwddtjB/HzPCBSWNZuvvvqqxYkNpAgqF4xAdSCo8UMGypLyJrzKpwiSa5555jE3LhPd0ziiG9zHYVoBLWtcVABE4dHyARXgP//5T2tpmcTAb8455zT/eoXsn0+ZMsXcvIqGJwYMJEsjUBosLNWsXwwpMBMZhPX8G00nDz4+1/DfeOON7R5Fj0Fvhf8rr7xSlb1RiD+nUDJjKJBn+M4xxxxWBhgBvQxohL/yoPLPi8PoQD2XZGkltKRxUUgqKAoQY/JAOTEODIyWmUoEKuQ8+OccsQrywsNTfEGjFUc4eDL9DlL8CcNwaejQofY8ZYDdAfjCf+mll65Oa+eBnpawjeYTEB6iDtTA0RPzrseQEIOi18J49X7bSBqEAfACeeExXP0F0Bm5ewotaVy+ApjVyxuq8EJL4VKRQJXSCDBMEFeKr1jO8gWN8oWXwrKWEOTxX3DBBW1TFh+n0XQaBfzgj+LnDXElHxM8oDOyEBeinCB6K0YTGBX39FgqZ703g3q8JZPqNQ+EU8PLdSMy9yRaelgIit4BeAZRqUCV0ghUKXGF6J5WXz1KIxUXP+ddMQWFU0uP/OLfGfmLAC/xE38/xPXQPQt6BcI3IovnxfsR71kYET0Zu1MBDemL6jGG+DbSo4tvnK9WQMsaV1dRpBSNKEwe6sXlORWscHLzKj3l310KkpK1s7w7E56wyj/vXvRYGq51JU8p+fPQFf49hZY0LgpXBaxeqQh6UaegGy1sDTniitQ9PZvn21nkvS/oXsMkvRfhH4edHsBL5QHlTSjoXvKCRvOruLz7aFaX/Gg47ZHyy4PST03AxFBYZInzNqPR8sNCKiVveKAwjb7UeqVhCAO8HxAPFGV6XpZZFgTy+POrOkMxnuMHxWG7Cs+TsiMdVjMApS8oTSZYQPw8D8QTMTSTS6PhJ6DEj3exzkLlnwfy5t+3oVZCSxqXLyiMIO/FVmH8R+Z6yqHned9QBBTSf2RutOIIB08+EAOu6X39dyDCMOHBviA8lwx5snQW8JEcEN+wNFsXQ2my1EjxGoX402tBTNDgeqMQP54BpVcEhaGBA3kyMRPJ+x3ojNw9hZbtuVRxDFdUgDFUoHp55r6okOGn5/WMC8NiNhJIlkYgGVjviFHRmsd5oMWF3913321h1fKDRtPJg48vvvfcc49do4wx8Ece5JXsjUBlQng+i/BpgzJjiOghefJ68hhe/nrfIilTylay+LitgJYeFkIqQPl5qDD1zUrIK2Tx5DmVresY+DPeZ+gGFCaPL5Bs4snSKZYdqdfFZWjEqgXxufLKK62VxwjlJz5FaaUQxwfwZYg2ZswYu897h2H1+eDBg40H8T2PFJSWXHpFVmDEhgUwXsC3L/HPg56Lb55x6R69YGTDvaiV0NLDQgqZwvNf/z1UmBxQQFhVSlEhizcfVTUdHkPveAynGuVLGPFGiTGi4cOHm4IzJMIPA4PUW0yYMCG75ppr7JrnxFV6RWmloPCSFaOC77XXXluzDZkHsoG11lrLytnLUAQvG2HhD8QvBry1/tPHjRHzjRu3GJQrvHlexHdGoSWNi8KCNKzRqve4AFXoVALPoLyKEBSGnqve2sHnnnuu03wVDnebbbaxj6hSWlpi/36I8h9zzDHmj2ISDv+YVxF8OLmUG/w++eST7OijjzZ+KahX2XrrrafhUQ9KF96UUwpKl4ZMPVcefPqKJ+OK5dc9PMmn8lHEf0agZYeFgMKCZAQxVJj8Ucs1BU3B5xWy/FFiwjIUAnHlqbKeeeYZG+qoJ8vjK8AHUvgRI0bYbytMXqTeRQjLotkDDjig2nvpGSjKi6A0xQ/Zlb+f/OQn2ZtvvpnkIz9+69hggw3MDxnErwhKi/CkRzkBlZsgPgyPmdDhudKNIX/xxc3bBFZAL3iW93xGo2WNyxe2Zt649lCh0sLRSitOXmErvsLoZ0gZg6D4zOZhuDzP45kC6aDgDA3ZfgzD0ncmDxkBO/4efvjhNmQkndjIcEXxvfcnHa7hwzlZV111VU3L7qE8Y4CsoSTNuHzzoDThzZD8+eefr/p7iB/bpPFMcqTSEU8I2Zh1pOxBntEOHDjQrpVuo/L3FFrWuIAKi8kBoEKMwayeei/IF7gH/iKgPf/ylI/JBracFl8hxdsD/sSHL/9r8TOk/GOg1IQ97bTTsgMPPNDCMKuHoXhlFKXuCUd44qHwhx56aHbKKacYXxmqB/GIw3Btv/32s2vCep4p+HwTh/vHH3/cZgmJH0PhVc7in5cG/sSBaDD9P2ApSC+KZJ6RaEnjUiHLVSFK2TzUMuulWpWTKnA9kyKx90Pe5irC7bffXsOL+EXwssOXl+4TTzzR/JA1BcLx7Oyzz7YhGu8wWgjLMyYnMB4IY9E1/uJLeHqQDTfcMDvzzDOrcVPgGfGOP/54W3NIOMldD8obwL3zzjur1zHgy4wePRfPlUYqnfgZv8CwaDtltMoXepHi1TIIwrUcQuFVt/sCoWeyc44RN6agKOZyaBzx2L6LeFzHkB9uUE67LjrwDpp77rkr4Z2pKlM9KA3JEAzAXI7UgZ/kTZFkmG222SphuFZziF0RON+L8EGRa/ikSOlvtNFGJqPkU94kfxGUN7ZlC73yNGlAkmH11Vev8hfvVBoKQ/1xfeyxx1r8vPIKjaKdew2IJ/lbCS1pXIACVoHj6kTD0MLVFLIqcfjw4RZP4aE8+EoMwzGLn6pE8WbfRMIqThFvQeEwYtLj0G5274VfkYH5Z1yzI/ARRxxRGTNmjB3lyuFzuOwFiD/HEMVxdB2TnnEEDxuiSr7O5knloM1OU8astDASxSkyAPFWo5d3PK/qn1M0Ce/rG2oltKxxAQpOLeu+++5rhZqnPGH4VdOSFRU2/qrEMJSq7nYbkypWx5BKEevxFxSGPIDwflLd6LLICKB6z2OqF155mXXWWW0HY6CybTQfyrfKbv3116/hHROGwIklQGWXgucP6BE5wSXFU/n0OyErXquh5XsuKcBll11mhZqqSLVm7P7q4+TBKwlUtF88vCGOdRXvRipT6eMqHrj11lurx7M2YkDIRDhI+cSVX55ie1I6pHvLLbeYHHEZ+es8kG/F41B3L5Mn+a2wwgrVMiZuUbmpjHDZltvz8aT8XnTRRRZWPWIj8vc0Wna2MBRs1YXY2TVUZvIlPRS4udp/L+TL7uXGEG94wXPHHXe0+xTE7ze/+U01nvzy+AOFURzSCcqTbbrppnZSCR+xg1LU/RUDGQkHKT1c+aXKw4MZRMIxsXLjjTdmm222mcmBPED5kJwpxGFwzzjjDOObiie/7bffvlpn+KXCAngDhbv//vvtXvXqoTpbddVVLSxhinjPUISMtSxCQVaJFmrIkCHUwjQtmu6HDh1a814E5YFnQTnMnTRpkh176nl6orUMFVp57LHHLLxaWFER/HPFBS+88EJlxRVXTKbX3bTssstWJ0cku0dRHngm0tAOXqFRSPYsIiZXOHWf8JQzlAfxV7hhw4YZj7x6XnzxxStfffVVTbxWREsbF4VG4WEwoN57F4XPGJ84GoqkoEqBpOz77bef8Ui9f2kowjFAwBtXI/DpQcrP559/XjnwwAONv9LoLhLPAw44oHq4Q9zwQI1AYVVWmvlMyazy68zh7PhTX4ATPDHcmC+ket97770trM9PK6Lley6gQrz55putcFMtpgqec7p8nLzCl79aYyY2eCfJa405uZLJAE49AbGBya0HxaHlBbzLkWZ3GxflAV9mFoFv6RuBwopkWLyzwT9PXtLEwDhFk3gqXyiG/CE1OL/+9a+NT4q//HTyTGlc0wkKTj3QlClTKuFdZZpCh2QUSy65ZFWRioYLqhBcKQ4HyMHDVyx8v/3tb9txpxgY5yfz3Us9I/E9ryIoLKSWetttt50mze4gNTbbbLONpeOVHMpD/Ix78kl8jsXlOCTKROXtSXn40Y9+ZHE7kyZpQEyxwyPFH+K744cffmjxVP6til7Rc+HKAH784x9bIaeUURXCiYyKg5tXAfhLcbgeP358Te+FO++889oHS6bQcXmX2HPPPS0+LSfxgdLISwvwTGni8u1rzpwTM0V5Siaq95xG4Z133qlJFyqCwiiOehWmv+GZNyynTui1mEkkLuWq8klBaaieOJ8aHqk8xYarOEBuq6FlZws9gpxVl3OF8xAqwNxLLrmkZvaIeCJB14QjXlACO1Bg9913t2fixTU/bAaFsj+euYf/6NGjbaaPePiJfLox9Iw4XHNQA7+gKK0U4FmEoufwZbsCHbRAuqBIxjgPxCGfV1xxhZ3lRTmIjwdpBSW3velZ7kQYX4ZeztQ9aXKWGTyKyiMYVzV+zKflEIRreYSKqra6RUtuRPQunExI+EZbT4Vj5pDhX6jsKj96L4aj8sMlDVpoUO/9TojTylt1ImIGk2Fo6pmIGVKGSqln4rvKKqtYmlCjMkLqsVhexdAYfnmy4o+8zBCSN9IC9dJSvb7//vuFM7ZQv3797NVA8aBWRn4T0UIIFWcUKsy+1/ATIki1cPixsQlnXhEnVIS5Ia/JVo5nQC0vP+CddNJJFpZWGrCNAJtb+vikEYaotqsSLTtxhTgdpQ0RjrSCYWZPPvlkVTYP5Wvddde173sgzqvu6SXWW289u47DwBf+pMXpjjwnfS+Ph7/nmnzxCz+jBW3WE8cBlBP+J5xwgv0fpjzip/L1wF98goFYmN///vf221CcB6B64KdOFlqjB8RJ8W4phEz2CtBKaZzNdHuoBGonSaHQbfkMC37VwhFP5CE/hSENrn/wgx8Yr7x05M83GZZd+XTyIP7gpz/9qcUPilPDFxJvDlHP+/yg+z322KNwBk/hWNgL/LtKCioLiIkbFt4Sv145jBgxwuKoF+da/Dy4FymdMDSuLLzwwtPwFlGfUGggLF69PLQKeoVx+QrR0Gbttde2gi9SqJNPPtniqzJEKeiZwk6cONEmMFSxcRqQvseE9zTj4dPxkB+KhPvpp59WF/HmEX8BfPHFF5Udd9zR7uN86p4JntCr2tDVP49p/vnntyG1lwPykB/5APvss4/FVT5jUtmwrnPChAnVuCnegp4pLDjrrLOMX6qhkR9L1GSMnkcro9cZlyrkmmuuqSl8TzIGeq8wpKuplCLEaVx55ZXGJ/VhWenyTvTaa68Zfxk+1x7iq1b92muvtbiphkF+mpFkKp37OJ+633zzzS0cH1ZT4SDxJD9eDshDfiovGhjWBxI3xVflwop9UM+wBJ8GBq+GJtWIKV1kBz6NeunMaPSaYaEKU5Xy5ZdfVpZeemkr+FSlSKGOPvpoi6+PtnkVIv5KQy/zP//5z42PVy5dM5nArxtAhiXykJ+MduTIkRY/ZVzKy/33329xmHrmPlZu3W+xxRYWjo/R3BeVBf9wASko+YwhWckPYKJh+eWXt/ipMjjooIMsHOUFP8WHUtAzle+JJ55ofIrKgmVv9M6q+yL+rYReY1wChSolZWU0hZ+qGPnzncf3LPUqR8+UDnE23XRT44dCSamWWmqpqmHltaa6V9pcI8sss8xSI6dIyrTccstZ4wH0Xc8rtr/faqutLByNh9Yq5pUH3/BefvllkyNVFroWyQDee+89W58ID18GvJeSd0i88iCevh7eeustmyFMNQiQ8kE9A5Vzb0Gv67lUQRBr8wYPHmyVU9RiswoCeCMAcgU9k7+UgHckrRyAfI+VMiy5AvdSVN4DvWye5HfqqadaWLDddtuZX55xab0j+N3vfmdDtaKyOOGEEyws8qTklCsifwADw+jFD0NmxQZhKCdB8QR/DTxP1h962TwpDwy7//73v1s9EFduzLcV0St7LiBlHT16tFVCqoK8P/96AVWs+ORVkipQisMqh0UXXdRWZKcMS4ivITUGyKzvVnmttf9GB+r1XDIuwrPiAxkxsNjIdE2PS68omSSjoGv5Qyoz+LO8jJm9RobDgn8mXvfcc4/JFOdLhPz0tNQvUH3npdGK6HXGBShgFIOKZTikd4K8FhBiTRwvz+qNpFgpyB8XkkK8/vrrpvhAfvABCuvh4+OyiDZPTvlpgkLviHk9l8LLuBSemUuWajGZE8eRgY0dO7ZGLsjD3+ta+WUox9AWKL4vgxjyU5lT/ky9L7HEEjUyeUJuGpl1113XjEp1luLfypj2i12LI8hsbqgUuw6tWxaGWuYXFM5cD8IQljOKjzjiCPsgGZSi+gFS/Dz0TAitqH0YZXNLTgPhGj/x9jLlgWd8KNV1HtiKDX6kUQTxUNq4EB/Y2fOPY1iDQtozQeWDHPVkFT+AS7khE/vKDxo0qFoGQLzyeBKfZ8FIjA+7DLNVOPIoDYFw8847r+1U/NOf/tQ+ZCs+iMO3NIKwvRKhco00XNCUtVr0mNSKX3fddRaeeOIB5cE/U+sr1IsHqcVlJXe9b1GLLLKIteqEV77yeq6gbEZ8BwPqRfg2FpS/GsbHEfH9jmVeXj4oD/5ZV8oAUs/HNgfIEOdHxDIzeq2u/jvXSuh1PZeglkyt36mnnmo7x3KdQqgci7P//vvbFs9+yZJ4xXG55xmuruN73BTEMyiiuUGpbPPSVO9Kaw5YlJq3+22cDuHYIpqeGxCeeCwyrrc8jAXIN998s8WJyyCGz6eu43tcD92LJ2nQy4X3tGyfffap+nkQlqVNLLPCPf3006v89by3odcalyoQZUGpGLIde+yx5i9l9VBFMVxi5TbDDvw8xfAVmyI9S0H8pOAaEqaA/ITbYYcdLB48Y3l8OpzsgREpD4LiwYcykGGn8Ic//KHa4IA4PUHPcVOkZzHg5yn0xFburFUkr3F6DAVpLFjDecghh9gW5ioXEIfvFQhC90oExahSqAQbRjGEYBs0shUq3NyYQmWZy2/9gHjEF8Szq1BcePIizv2zzz5bd4qcFfLEgYijYVQ8LGQpEvsOsuQInvzgCTR8Unz2M/T8PSEH/PzfwooHdRVxfHhqeBtGDLnyQOSHb14bb7yxTc6oXuAnt7eh1/ZcvrXkmhaOocf5559vh8zh58MIoZKq4djBiOEhL9qhLIzy4jUKxcUVPw5aIA1kzAMTGTwPitThMxXwAMhNj4W8/APGyZiEpaUXCKv48AOpvCgdDmrwcoq6CsWHn2RBXnbOOu+886qTIimQJ0BYhrpeFn/dqxAKodeDVg1Sax8Mx1pDtfYp0jN2rgW0luIDdRWKHxTLXCYYwpDV0goKUiODKDXBoBZfPRf/U7H4lhUn7OXBP1x8B/Iv/sRVfFa0520BLjmYQOEDrU8X6ioUH9KngaI1oCI9O/vssy2O6nF6ZGkF9NqeCwT5jQAtGy0yPcS+++5r7x1BYZLvX4BnhOeIH84mprUMldnxtOtAHmSBP2AvxYkTJ5qfZBXUk22yySb2HxlxFA4XIJPyFpTOemXyRNhggFWeigPxjH0R2SMRKB2BsPhxMgx5B5I3lrErQGbKk7OYd9llF0tL/GPo2ahRo+ycMvXwyg9ud8g0I9CrjUvKpErAVWWde+659ts+1/ilQBwUFiVkI0rCTa+BeVmgyy+/3PzzZAA777xzVYEUV8CYGFrhx0yaDAzDAgor1/OBbx4Unu0KuI75dBWUH3l95JFHrFxDD1aVKYbKe8iQITZsVFyfFy9bb0OvNi7BV4Iqgj+W//jHP9YckRMDP55xFA1nVeUpQaMgvojehannu+66y57FLbfS5nTLtddeuxonBfx530LxeMfSn9EgJTPh8ees46WWWiqZf8kzduxY+zRBHMIB5aGrIG7//v3NaLguKnvOpeZcaOpJYUW9HW1hXKoIKQRKyPBiySWXtClnFAc/DynT0KFDTcEIS/w4XKPwioHi4rIxDNsBpHjKj+EQJ1BK2WOlgi9T7sirHovei3sQh9c9/JjaZktpEIcDyMBqDg4l5znl4fPRFcATHjRYlCtnoMFX8gqEg/hEwQjDT/gQH3RVhpZByEhbIVTkNC/VYYhIbVWngUNFm8v/YEWr2zsL4gWlNgrKUllppZUsnaAk5sbEhMQrr7xi8QivdHGRB2g7M6aqCa+4yku8kgF4fq+++molGFk1nifJxdpM4kt24olXZ6B4kORnsa//XcW7//mf/2lhWEjs47YL2tK4gJREBqbD1KSg9X4b6SwUV7w4LgjlTRmWDIOD94AMwZOUkz00+P+L71uehxQ0tUxIBF+Qd9YVJPk4Vkjpeh6dhY+rPPDDpX5XkaHrJ1ZmRQlLfYGupNmq6NoYqIURlKVmaMM3LYZSxx13nJ0VzDVDQY4bXXDBBW04oiGL4hB/egAP9vmDj3inwEwaYXx6xPVgEoNhYVC+Dp9iKL74QvrmlYLkY/gcpx3f1wNp+Tjwpnx5/7rjjjvsgHcmOFiQyw5bwfgsDHGgOH6vR8hQW8G3fGpBIbWioVJtqAR8Kw38dWegeOot+YmQXz4o3jyK9+ATD/GjRQeN/s+lvADxEt9G9npkr8Y8eToDH0fXKvs33nij8qtf/cqu495a8Ne9HW3Zc4GQt+o1Li1kqLgsDEfsZZtrejU9J7yuOwvFgSegV+Qker2geyAH2GqrrWyBKj2Sl1OI/SRfZ0Bceg5mTlkUDFIy4ffBBx9Y7wKQqasgTWSVvLgqe9YLHnXUUXZNmj6/01P+rYq2My5BlaTKxoVQNlWu/P3zrsArBlRvkS5hUt+2dJ9CZ2STHPBTPvmozrUagBT0zYtw0wOlD+leaVP+eqZ8i9oNbWtcQqy4tKL+Xs+7As9DBjthwoTqyYixIktpmZ4eNmyYxVNPNj1yxICXZFNeV155ZXvnAbHxSM4HH3wwe/HFF6uGIB5yOwviKX1dx/ntKu/egLY3Liksbh51FcT1SoLLh2smTaREHkqLXoshqYZf+OtZd0D8RKSDPEyg6HkMnjPB4L954U6P8isd3BTpWbui7Y2rmfCGhXJiVBgXiHstgJLzIVgndagHaZaCSYlJh/T4iZIVEal3KsnLCn5mJzF+GVY7G0AzURrXdAIFlGI+/PDD2UsvvVQ1OA8Z0g9+8IOawwpAHLa7AF9Iw7wFFlggGzlypD1T2gLhkJth7UMPPWR+ej9slnztjtK4ugkoId+KQKy4QArK37hSeik01AyIt0+P9AHXMSS3X8ybCleiMZTG1UV4hWVIyFQ2+2SAeNglJWXnqA033LAapydBeqTLsURsicA1cnlI7ttvv92ORlIcTyUaR2lcXYBXTA0Jb7rpJtv4JdVryY/zvHjnkhLHyt0sKB3SnX322bPtttvO7vNk5a9g8gO8rD0lb7ugNK4uACWTgUlBWe4EUq07CkovoA1oFKenlFXpkC7pIwf/iMlwPCT/lVdeaS5yK7+pvJXIR2lcXYCUDOVE8Z577rns8ccfryqhhwxpjTXWsF8reC6/nlJWpUO69LT847XmmmtW/TwISz44ifLpp5+265QRlqiP0rg6CW8QUsQxY8bULABOgW9bKLJXVOL2BHw6Gsbqm1cK5AM56Y1jGXuqQWgHlMbVSUjZUDK+BbFqnQ+vINXCo8zsybfllltaHE0SzCioAdhss81MLhmbBw0FuO6667LPPvusRuaeahDaAaVxdRJSMhnSvffem7399tumdLHRaMjFBjRsGEMcws1IBSVt5MCwWDwM4qEhwO+dd96xRchA+Z2RDUNvQ2lcXYSMRIt0UwYjRfSLdIHi9iSUpuTAZWJD1zHkp22vJW8qbIk0SuPqJFAuiKESG7toa7J4eEXLTzgmD4YPH27X8hP1JHyakoNJjXiSRcCPjUcfeOAB2xqO/JLHnm4UejNK42oQUkyg4R3vWmzwEismkBLSO7CHnx8SinoScdrIw3T8jjvuWH0ucM1uU+DTTz+1j8r4UQYqB18eJdIojatBSLlwacVRTraDBilF4zmHJbD7Es9lgF6JZwRIH1LvxQdlDAl59ZweC8Oj4cCflSeaDeW5yqFEMUrjahBSKJQN97HHHsueffbZqrJ5yJBGjBiRDRw40IZT8ovD9jRIH0Ie5GJJ1gYbbGDPmP2kQSBPuBgYBvXoo49afoHyP6Pz0RtQGleDkFJCKBd7EkpJY0jx6LX057P8gK69XzORSo9r5EI+DQ3nnntuMyam33nmjypi4kZGJSpRjNK4GoQUi9Z9ypQp1b+NNZzyIBy/d7CWkPAYIOGkkOKF2xOI0+MaeZAL+fgGx2Je/DAmGRjDQnb3BcwacrYZ4XtS9t6M0rjqAEWCAK05uO2227LXXnvNvl2xEJfhUwwWv+622252EANKTBhcegoZpHh76g7k8SVd0pc8GAiHJRx00EFmSPpJ0h9VBAiPkZFvoIbC8y4xLUrjqgMUUK20rvmwqhnAlGEBVm4w4cH7DFPeF154oSko4ekZMFQZmfhC06Owiuv5ARkD6ZI+x8dy8AHrHfk7+YILLrAw7D//ySefmAHKsDy0tyHGFqdRIoFQ6CUKEIzAKCicuWw/zdlYAwYMsHOyKMI8Cspcs8stcQ477LDKiy++2MF96s7A7OuHq7Qg7VuYd+C47uPzuRRffLkWxo8fXzn00EPtnC/icrD3nHPOaYRsHPadt/U1xG7Fzz//vPFUeXj+JWpR9lwFCOXTcTV1SEgrzX9OvHNxwAKtfRF4TjxaeogfEE877bRspZVWsh6DfQIJo/cyegzC+3QbheIQH57wgy88+U7Fe9Uqq6xip2lyLjF7abBvImHo0fieRc/FPiApEIZnWszrZeyKvH0CoWBKFICWmV4ANyhfZfDgwcm92xuhoJTT9EArrriiHUjASZACPY4OJ1DP5XtAf0/PRTjCE0/gpMqzzjrLDlnw8eh95p13XstDeF+sLLTQQub6MClCdlxOyaQcfLmUSKM0rgKgOJCGV+FdyxQsVvSuEEbm+bC99UEHHVR55plnOlKfim233daex2nKSEOP1BFyKp566qnKAQccYNtTKyxxFZ8hIFttc1QsQ0CGhhz0rbBFJAO77bbbrDwYuqqMSkyLclhYgFA+HVdTJx20SLceGELVgx8yEn7y5MlZ6MGyVVdd1X4H4Tsaz5kaB6TvIdl4Di+WYrGzE/HPOecc29MDvvCHDwSYYg+NhcVjyMjwlkkM+NeTWzLom5fufTmV+BrfwMI6rktEkEKiRLyncEBeahYNEAaFJQ5T2gBlpXjFpwjExxAwFGGFFVYw5X/11VfteaqqBg0aZPti8Dc0EB/SLKpafjnhxBH4E0fpMg3PPVPzefH5/PDKK6/YtzyFIc0StShLJAGvVCgdynbDDTeYYaWUSEb0s5/9zJZEcUQOiqfeifj1egXiS8FJAxo3bpwZFshT9Ndff90MS3HEJy+8wGY6GBbyEX7AgAHZIYccYvIffPDBFj8lM2nwmYEfKWWUuISvl2afQyiQEgkEpTMKymMUhltoTu77FhMcL7zwQkfsik1QhOFZZeWVV64JFxQ2eSBeikirXlie58kUE2FJ3/uRr/PPP7/y0UcfdUheqbz00ku5EzaSZ5VVVqmWDVRiWpTGlYAMSxMZTBLkKboUe8SIERaXl3xIIP5dd91lExPM0CkeSt6oUUwvkY43qjD0q4waNapyzz33mHyCl32DDTaoxlU8kQz6iSeeqCknz6tEaVxJ0BKjKFK0MNwzpYpbfUjKd+mll1bj4MJD1wI9wpFHHllZZJFFanik+HYHxXwXXXRROy6VD+ECcmIc6oEk8+jRoy1OyrjE98ADDzQeiiMqMRWlcUVAOaRoXIf3rMqCCy5oypTquaB55pnHhoGKKyUTobwyVMBJj5dccklljTXWqOHzzW9+MzeNRon48PF+w4cPr1x++eWWF4Gzov0qC8jn++OPP66ZzvckGVnpQV4U1/MqURpXDaQUKIqGOtdee22NQnlSC86J+8D3WikFQ5nh6/HAAw9Udtppp8occ8xR5UtvkeoxiiiOw+n/u+66a+Whhx7qSGkqSB85gJfRy62GYL/99jNeqZ5V5XHVVVdZHPV+Jb5GaVwRUBRICrj55pubEqWUXQr28MMPVxVM8YGuY5LxemV8/fXXK8cee2xl4MCBNfxTRu0pfj5o0KDK8ccfb+cPCz69lDwQ0LXy8dhjj+Wmr/IYOXKkxY17wRKlcdVAiiFFQeF5+Y8VC5LSLbPMMtbSo7hS3iL451yjyDJkwNBtzJgxlfXWW2+aNIuICYgrr7yy8tlnn3VwmtpLyVCERuRTXpBrhRVWMP55PSmLlznAnXjewEqUKzSqCGVhBIJy2LcbDrLjY2oYFpm/R1A2c1P7rotPDPzh69OCN7xIMxhCFoaH9mcw/4GxRTZHvALieeh+ueWWy5544ols7Nix9uczH3jhAz94szAXKE2ln4L8CUN+iK/t1+L0Ac9Z7MuvNTwnTSEvjb6E0rgcpHgoDQrKKYvAK42A8rGaYdSoURYHA5ECphQR+Oee5IchkFboAWwF+uqrr25bnwEZs6D7IUOG2JInwsuo4CPeyKZrCMiN4f3hT9z4ZBYPlQvlRPqUW2lUX6M0rg6gWCgGCsM1vcbzzz9f9feQYvMjJBu8EEfG5RW0EUj5AS58xAuF1lKqWAbds4SJcIRHuRUXxHEaAXElB/laeOGFs4022sie4ech2V9++WXbxIZrGZxk6MsojasDUhS5jZwSqZ10de+vG4WUUGlD8pOxAPnF4DnhBM9D1BkovifyqWcxJJ/+UlaYVNi+htK4OiBFYkjFb/C33HKL+cfDISnQggsuaOcbA28AnVVmDx+/Hp/4ueKKugrPQ/laf/31s0UWWcTyHfNW+bC3ISvxKT+VZV9HnzcuKQFKoyGNdjqScnnIb9ttt7W/eXk/Im47KhP5In+8c/FuCfLKhP1BKDegoTXoy0bW540LSAFQEpSC87byQEvNMIwZPeJJ2aRMzcKMUFLyRP5Im5lI8h335B4qN5VJXzYs0OeNCwWC1Nq+8MILtrus/DykNMzO8a+VjEs8uhNSTLndzb8eSE/5w1122WVttyigchBUdkwCjR8/3q7l19NytxL6vHGhOJCUgbOAmdKOFciDXouwtOKKD3UnpJT+O1VPgvSQAVe91U477WRuCpQXQ0h6L+JRns0ol96EPmtcqngRSswHYz4cg7jXAvjxnqVD4zRLhzLJGLoL4sdHZZCSp5lQ+rjK5xZbbJHNNddcuWUD2G6AnzA1sQFUxn0Nfda4vEFIMdii+o033jD/WBnUk22++ebZ/PPPb62559Hd8Omj3LPMMku1F+tpkEfy269fPzMwEPfsyEu4t956y07bBJSr/JtVTq2MPt9zqdJxtQFNShGk7AyNdN1TYHkVewyyImRGQeWloWGqDFRu2sAG4CpuX0OfNS6BSqdn+Mtf/pLddddd5hcPe6QgSyyxRLbuuuuan1rulCF2B8QX2ViFMWnSpNzNcZoJyaFh3tprr20b9XAd513lxmmb9GDILr/SuPoYqHAqHyXxJ9fHkB/femaeeebqkBA0S2nEF8PCkGNF7in4/JFv9shnWh7EQ0NAWfHOdc0115jMfmjY19AnjcsrDAqC0rBNM4h7LcAsGEbFCvFYUZqlNJKRSRZvzD0Nny5lhVwYF++AyBVD5cesK+Wmhol4vtz7AvqkcaEwqmyun3rqqeyZZ56xZ7ECqHVmODh48GBTHvk1U+HFO6XAMwrkm/yzV+J6661X9fNQ+bHomS3fVNagmeXViuizPRcVjaLg0mvhlxoSCprIEHmlaSZaQSG9DMr/LrvsUr2PgcFpNODLuSfKq5XQZ40L4iWdzTF53wJ5wxwOueO3C+KgOFIUrzBy2wU+Xz6v6r023HDDrH///sl88xxgXJwIo8mQVNh2Rp80LiBD4iA7tqqOhzdAPRkn3mNgUiwpj1c63HZCnC8ZB+VGuXB+MuUCUj0+fqyS5/gioDLrS+hTxoVyABRGPdDo0aPNLwUUiTBM0Z988snZm2++aa0wigMvXthRGimip96IVB7IH/nknnzzzW3ixInZSSedZL+ZkPeU4Si+/vMSed5tj5DRPoWgCNWNVF577bWaXXDrEduV7bbbbrbbk8c/3SYz8JUr0n2jICw8QWdOluxsGnJFugfkRzIIbNMW3rXsGCIvSxFxHhibkMJXZdRX0Od6LrW0uKwj5Dd6WuQiEJYwnL54+eWX24dUZg9ZicC3MfVmtPDwJh2P+L5VkJIT+ckH+SFffLgmz8OHD8/WWWcdyzN+PKdcikAY9tZgWl7lThqtWh7djpDRtgetJhSGeVWXkxiHDBlirWuoeHMboaAwNfectPjLX/6yMmHChI7UajcVBd6N/VLgWXf3XHHaMREfuQV6m2OOOca2wE6l2wipXNlL8YsvvqimpXqA2hl9wrgEr/Rjx46tUYDOUnhnq1E0jj5l59z777+/I7Wp0J6GXpHqKRXPu9u4BIXBZZiGfAJ+lAuHNPj9GkmL/Oq+M6Ty5VRO5csbcTujTwwLQz6NGJoAXP01K7/OIihKdcIjKJ+dWQVPPq7yU+HFF19s09BMADB5QlhIckgmUTMQp6F0GPYhC3IjH7/oX3DBBbaVG1PsbJWm/RqRlbDktwh55Sh//ecFfP7bGiGDbQ9aTCgoibmTJ0+2wxPIfhEFJehUi63eRMSQiiHjiy++2CHJ170SsnhIRl13tefyJHBNer6XApwndthhh1UPmoDIc5xWEVE+xEk988QZzO+9957JoXqIy6Dd0KcmNEJlWqt50003WWtNy5wHflIM5WMtNnEIi1sE+AN6KnoEzho+4YQTrCdjhceDDz5oPJkoIIx6EPwEf91ZxHG5hz8kmbi+44477IfPFVdcMTvttNOyd955x/JHGMUpgi8Pyoc4/ESaB8Lysf7GG2+s9uKgXnn2eoSCaWuohfTuWmutZa1pqGhzYwrKb4cQ3HzzzZUwTKoJFxSloZY6KHJlgQUWMNL7C3FXWmmlytlnn12ZNGlSh4RfT+UjG0BO9TI//vGPq3E9f92r5/LvdhD8IIH0fvvb31b3fvd8GskPRDgvB+W00UYbVW699VY7CI88+/AilV8YdtbUg6hd0fbGBaRsuM8+++w0iiqSEqyzzjodMafiySefrOyzzz41Q0nC5hmnCGUbMGCAfR+Lw/br188O1Xvuuec6Uvl6OIisjQ4LQw9k4Qgvo/QKO27cODukzp+1hSx5ZZAiwnr54XXAAQfYiZseOjwir1zwf/rpp2vqo53RJ3ouSD3B4YcfbhWdUi4pxUUXXWRx/vGPf5jCCu+++27ljDPOsJNNfDx45bX+M888sxmX7mPFpvXfdNNNK2HIZJ8HBNJGAdVzxQqre4yLcIQXuL7++usrG2+8cc1BeLGRFFHcS0HLL7985ayzzqrpdUkbuSkvDvQjXCoN+R1yyCEWz78jtiva2rhUeRgI9Pnnn1e/2+QZw1xzzWXK4+OhQH4yAOXFGDAKPxSaXuVddtllK2eeeWYlvAN1pFSxs5R5FofVvXouQLzTTz+9MnTo0GnC5uU3JuT3abHCgjPKbrnllhrjpzwoF5UR5fXhhx/mThQp/YUXXtiOSVL5qo7aEW1rXKowKlCt5A033GAVnDIAKdTOO+9s8XzLKoKX3m0EhpkM7xjmiVesoPWIsD783HPPXdl7770r48ePrw4LY5l1v80225gMe+65p83I6Tn8UvnMozg8R7LSyyCD4PMfl40anz322KPKT7xE8uO0TuJoKCse7YY+0XPRwgJe/qnclNKpZb333nurFa/4EPAuz8UXcCbyOeecU1l55ZVr+KJQjfYacW/GkBJDK4pPT0vvovvpSQ8aNmxY5bzzzqt89NFHHTn7ep2h8i+obFQeuBxDK96eL6Ry32KLLSw+fGOe7YS27rkgVeBbb71lqyjiCoekCEsttZQdxE34uEX1rif4+yEjfqxGoEfBOJQGStxoT5JS+nrEu1WjRoUcnj+Ll3m3u+eee0x+QUM/n19PQNcqL+JoWJonD7Onf/7zny28599uaHvjkuIzEUHFppRWfieddJKFJU5nK1tDJh/v5ZdfrhxxxBH2nqG0umI43UWk6xWe98+jjz7a1hEKKjPy0xn4sv71r39dTU9pieRHGKAy62x59wa0nXGpktSS4jJkWW655axS83oPehkW3xKH1lTxU5Uuf0/en/ikKTDEYgZytdVWq0kzVvZmUMqY11xzzcqll15amTJlSoeEtd/a4vx4iiF/ykvxJ06caGclp/ImP3o3GbF4iNoFbWlckK/sRx55pKZiPcnYmLYGsYI1CoVXXAheas2F++67r7LDDjtUZp999qoMKH+jQ8ZGKR76aWHxgw8+2CHJVKQUHMhtFIqrRmWzzTaryiEZRKoH/g9THMnQTmjrYaEqer/99rPKjFtwSJV/9dVXV+N0tZKJJ9I9QHFivpyAz7rDgQMH1siTkrEzFMfnd4/jjz/efgwVJA+uRyx3Z0E85ZMZQdJPGZf8mBEFvmy6mnYroq17LtyPP/640r9//2kqGFILyhKlTz/9tCYeND0Qj5jozVAmgW8+o0ePtlUhXjaMJNXTpohwsVGNGDGicsUVV1Q+++yzjpSmnaAAXrbpgXio/MiXFgTn5YOVHnwb8/GgdkHbGZcqSQp83XXXWUWmWlApJEt5gFrQ7q7gFL/YyADDV74T+RUdnSG+c+21116Vxx9/vIPjVJAO6QEvSzPyCSlfBx10kMmV6o1VH3/84x8tbLPKfkai7VbFh1bS3JA3I/Ysx0/+HjwPFV89ODwVprsgeURBuSxtroPi2+rytdZaK7vkkkuyZ599NvvVr35le9MXycQz+LB3+6mnnpqNGzcuu+iii+y/LPjBF/7f7FiFzzWQDM3OL+VK2sgSg7QhNv2RPG2HkKm2glo/tZ5aleHX2EG0nKFy7aMvrTo9Xk8PTZSWKO7N+DWeVeeSN5Yfd4MNNqhZlqReKubdE/DpqUxXXXVVK+dYfvVmZc/VC0FLHSoqC8pn21DTivM/E70FBEL+swMPPNDuCauWXG4zQdo+PUiyBaW0jXNmnXVW2x9QYTx0z9FC7GNPeOLRU8BDPAEu6TUbSpO0IOogDA2raSt/1AOyDhw4MPvhD39oZU/YdkNbGpcqmUrjp0f2zltooYXsOFYqFeIZFc9PjNxT6VKCnlJEuVJGpYuf5EE2EMukexoNrmVQXHvy6TQbShNgLMjOoQ0HH3ywlbfKnnpYcMEFbVcofrL0crYTvhEy1nxN6mEoS1SYDGfy5MlWmRwO8J3vfMdOiFx//fXtOeF6UgnrAfmRi16IY4vYAo484Cfofuutt86uv/56MzIZ2IyGyh8XoyIfDzzwgP0Bzh/Jyy23nDVqnFSp+iFsK8jenWg741Il+cpSBcag4gmj8KAVKhhZZFzbbbednXXV24xLcnANpYZ9sWHhglbIQ3egbWcLfWVRgRgSCiiiYgmjcLpuNbSiTPWgMtU1RHn78qc+YsNS2HZB205o+ErTNZUpUkvKM7m6LjF9UHn7MqW8ffnrOWjXcm9b41ILiNsZKjH9UDnGZVuP2g1ta1wlSsxolMZVokSTUBpXiRJNQmlcJUo0CaVxlSjRJJTGVaJEk1AaV4kSTUJpXCVKNAmlcZUo0SSUxlWiRJNQGleJEk1CaVwtis4uZm3Xxa+9GaVxtShYyIrB5K0c9/dct+PC196O0rhaEN6o+FsXxMaj+/nnn79qiCVaC6VxtSAwFv5/wuVPZEH/oeEKPMew8C8NrLVQGleLAmPhj90111wzO+WUU+xPXshv9MLehsOHD7drGWOJ1kFbblDT2+GrRL/D33333baL1TvvvJMNGDDANnjZeOONq4YllAbWOiiNq0XhqwUDYrOaGPRsfohYGlZroTSuFgRVEhsKBgbwV5V5wwKpeCVmHErjalF0pVpKw2otlMZVokSTUM4WlijRJJTGVaJEk1AaV4kSTUJpXCVKNAmlcZUo0SSUxlWiRJNQGleJEk1CaVwlSjQJpXGVKNEklMZVokSTUBpXiRJNQmlcJUo0CaVxlSjRJJTGVaJEk1AaV4kSTUJpXCVKNAmlcZUo0SSUxlWiRJNQGleJEk1CaVwlSjQFWfb/AajglSM6bqb7AAAAAElFTkSuQmCC;" vertex="1" parent="1">
          <mxGeometry x="575" y="205.1" width="33.25" height="41.14" as="geometry" />
        </mxCell>
        <mxCell id="MvdJouwT5eNI-UK8mvhW-25" value="" style="shape=image;verticalLabelPosition=bottom;labelBackgroundColor=default;verticalAlign=top;aspect=fixed;imageAspect=0;image=data:image/png,iVBORw0KGgoAAAANSUhEUgAAA3cAAAKHCAYAAAAi1rG7AAAAAXNSR0IArs4c6QAAAARnQU1BAACxjwv8YQUAAAAJcEhZcwAADsMAAA7DAcdvqGQAAIKCSURBVHhe7d0FfB1V3sbxJ+7apE3d3Y22OAUKpbg7LA4LvLgv7OIsi7PF3WVxKFa0QAt1KHV3jbu9c6ZT2uTOTZPmRu70993P3cyZ3CSX5mZmnjnn/E9IpUUAAAAAgKAW6nwEAAAAAAQxwh0AAAAAeADhDgAAAAA8gHAHAAAAAB5AuAMAAAAADyDcAQAAAIAHEO4AAAAAwAMIdwAAAADgAYQ7AAAAAPAAwh0AAAAAeEBIpcXZRj2tysp2toCGFRNT4mwBDae4PFwVFSFOC2hAlbzP0PCiwkoVG8H5Ew0vLqKNs9X4CHcB1PP2h5wtoGEdePg0ZwtoOL+u6KgtBXFOC2gYlWUhqiwKd1pAw9m7/Xwd1WOG0wIazgldm+46jWGZAAAAAOABhDsAAAAA8ADCHQAAAAB4AOEOAAAAADyAcAcAAAAAHkC4AwAAAAAPINwBAAAAgAcQ7gAAAADAAwh3AAAAAOABhDsAAAAA8ADCHQAAAAB4AOEOAAAAADyAcAcAAAAAHkC4AwAAAAAPINwBAAAAgAcQ7gAAAADAAwh3AAAAAOABhDsAAAAA8ADCHQAAAAB4AOEOAAAAADyAcAcAAAAAHkC4AwAAAAAPINwBAAAAgAcQ7gAAAADAAwh3AAAAAOABhDsAAAAA8ADCHQAAAAB4AOEOAAAAADyAcAcAAAAAHkC4AwAAAAAPINwBAAAAgAcQ7gAAAADAAwh3AAAAAOABhDsAAAAA8ADCHQAAAAB4AOEOAAAAADyAcAcAAAAAHkC4AwAAAAAPINwBAAAAgAcQ7gAAAADAAwh3AAAAAOABhDsAAAAA8ADCHQAAAAB4AOEOAAAAADyAcAcAAAAAHkC4AwAAAAAPINwBAAAAgAcQ7gAAAADAAwh3AAAAAOABhDsAAAAA8ADCHQAAAAB4AOEOAAAAADyAcAcAAAAAHkC4AwAAAAAPINwBAAAAgAcQ7gAAAADAAwh3AAAAAOABhDsAAAAA8ADCHQAAAAB4AOEOAAAAADyAcAcAAAAAHkC4AwAAAAAPINwBAAAAgAcQ7gAAAADAAwh3AAAAAOABhDsAAAAA8ADCHQAAAAB4AOEOAAAAADyAcAcAAAAAHkC4AwAAAAAPINwBAAAAgAcQ7gAAAADAA0IqLc426qnn7Q85W96QGB2l9Pg4tUyIU2xkpLO3qryiYk1ZvsppNY3QkBB1Sk1Wm+REtU1KtF9vdESESsvLlWu9vjXZudqcX6ANuXn2dom1P9gdePg0Zws1KS+pUOH6IhVtKlHhhmKVZJeqvLhCYZGhCo8NU3R6pCKTIhWVEqGo1Eh7P7b7dUVHbSmIc1rBKSo0TC1j4tUiOk4pUTH2R9OODYtQRFiYSisqlFNSpA2FuVpfmKf1BblaXZCj4vIy5zs0vhDr0TYuSe3irONanHVcs7ZjwyNUbp2u80uLtc56jRuK8rTRer1r8nOUV1ay9QuDVGVZiCqLwp1W8IoIDVV6bLxaxsYpOSpaGXEJ1vstRnERkQqxzlM5xUXaXFSolbnZWpuXq2U5mc5XNp4w63V0T0nTHhnttGfbDuqdmm695jhFhYUrr7REq63XNmvjOn2zYolmbFijTYUFzld6w97t5+uoHjOcVvCoKK/Ugmnl1kdnR4D0GdW4f3cmciz7o1zWocuvjE6hSm0d/OfiE7o23XUa4S6Agj3cmZDUJ6Ol9u7aQft266z2KUmKsUJSdES4wq2Tljk5VTd33QYd/fRrTqvx7detk645aG9lJCbYAdS8zurMW7y03LrILy1VXnGJXpoy3XoE38F9R4S7mlVaJ8L1k7do6XtrVJxpAp11RqxwPllNSHiIwqJCFZkYofaHtlK7MS2dzyCYw120dbF67cD9dVC7HoqPiLLb5gLWHOf8KbWunArKSu2A98Scn/Xh8jnOZxpPj8Q03TL0YPVNbaX48Cg7gFZnjmnlldYxrazMer0lmrh6ke6ZMVH5QRrygj3c9WmRrpN7DtQ+7TspyQp1MeHhigwNU5i/81GF+d2VamlWpu759TtNWds4N0iTIqN0776HaJ92nf4KnP6UW6/RBLtHp/+s1+fOklcuFIM13BUXVurfp+dbH50dAXLnZ/HOVuNYvbBcT19dqJrunY27KFKjjnTvUAgmTRnuuE2Nv5yxxyD97/xTdeXovTW0Q1u1TIhXQvTWi4uaTgJNoUtaih474XA9cfJR6tEyXYnR0a7BzjCvPTI8TEkx0WqbnKj9u3dxPgOvMRdOOUvyNfP+BZrz3yUqWFOk8kL/wc6oLKtUWb51Ub+2SOunbHH2IthFh0XowHbd1T4+2e6xiwmPqDHYGRHWBXlSZLR6JKfrob2O0nP7nai2sYnOZxtWUkS0bh1ysD4ae672bt3Zes2xrsHOMMe0cOu1JlgX661iEzS6bTclWAEWjW9Aeit9dtzZOrPfYHVOSlFq9Nb3mluwM+zzkfV7NSFwUKvWemnsCbpjr4OUFhPrPKNhjMhopw+POUNju/RUvPW+2dk53bz+VnHx+tdeB+q2PUfbPcdAfZjz88RXS2oMdggMwh3+YoZrBAMz7PL5047TmN7d/Z5AsXvKXVagWf9eoC2zcqwzibMT2EX7t+mq9w892w58DckEu7cOPkNn9hxmX/gjeITU8zIqOjxcp/cZZAe8hhIfEakHR49TJyt81pW5iXBm3yG6eeT+O705AtTkl49KtWBq8E+LCQZcGSOodE9vof+dd6paJyU4e4Ctsubnaua9C1SSzW1BBIbp3UiLjtdJXQc5ewLPDBcdv++xdm8hF8+7J/M+Mz1qVw3dy9kTOKbH7cWxx6ltvHsPdFFZmX5du1JfLVukPzdtcPZWZd6Xx3Tvo73bdnT2wAusQ1ujWTW/XJ8/W8JN10ZCuIMP03Ve5sxRyykq0qxVa1VWUcO4tkZiTjA3jtnPHi7qpqi0TD8uWqrL3/lE+zz4tPrf+Yj2euApnf/6+3rl1xlan5OnkjJz14iji9eYwikLXl6h0hz3YBcaEaKWI1I04Opu2mv8QO3/4hDt9fgA9b+qm1rv10IRieEKCbMurLm29hbrT72kvEzZxYX6cOkfuvKnD3Xgx0+o/9v/Ue8379NBnzyph2f/oKziAvu458+Ydj2crcAyb7dbBh+kUa06bd1RjZkD+GfmOt045VPt++F/1eONezTk3Qd1/Jcv69Hff9CynC3WxXmp9Z/JMa05qLDeQ2Yu3bR1q3XTD19q3zeeVrdnHtAer47XbT99rY0F+TW+z07vO0ht4gJ74/Lwrj01LKOd06pqdV6Oxrz7gk78+E2d/+X7Ouy9l/T3rz+y31PVxUZE6uEDxllhMfgL3wQjc6yIigtRdJwVyurwCKnhKn/vYxtnqG1FxdbhmIEuBgP/KKgSQMFeUOXwfj3t+WgLNmzS0s2ZWr4lSysys9QyPk4fXXSGXVylusYsqHLS0P7652EH+tzdNm/hWavX6b6vfrCDqKko5yYmIlwD2mTYvX4fzJ7r7A1OFFSpasXn67Tw5ZWuuT25V7y6nd5eSV3936YsKyhX9sI8FW4oUruDWzl7EcwFVUyPxUldBmlu9gbN3rzGLpTiT9u4RD046igNb9ne2VNVlhUOh/wv8Mf3ES076LUDT3PtsVubn6Pbp3+l71YvUrGfqyIzlL5PSiv1TcnQZyvmKqe02PlMcAnmgioD01vrw2NO1/r8XL0xd7Y+X7ZQC7ZsUoXLwahVbLxuGzVaY7v0cJ3zZio8nzXhXf28ZoWzp/6eOOgo++e5+b+JH+vDxfOc1lahVoy4ZdT+Oqf/MGdPVSakvjQneAuSBWtBlV1RmFuph87PV0GOs2MHsUnShQ/GqkUDV6U012c/vVeqz5+v2msXlyzlZzmNaiioUn/03OEvn/wxX9e8P0FP//Sbvpq3yA55pjesOUiNjdF5o4a5XgTlFBXr+g+/0PSVa/wGO6PQ+m8xyzYEe7BDVcWZJVr4inuwi+8YowHXdK8x2BlmWYQWA5MIdh5iwtwLC37T5PXLawx2xmorSJlqk/40VLGSE7sOdD2mmeVabpjyqb5YOd9vsDPM8e73Lev05uKZQRvsgl1ZZYXetELdXq8/rYen/6x5Wza6BjtjfUGe/v3bD8oucf9dmQI6HRKtq94A6pvmXv13o/VaPqoW7Azz2j9dMt9p+TqwQ9egmZ+/u1s4vcw12Bnte4YppWXD/x5XLajQt29UDXZmOOiQg+gBbkiEOwSF/m0y7OUO3Nz1+bdatrnx1wtC87D+ly1+q2F2PraNHdyAnZmbud7Z8pVTWuRsBY5Zf++ANt2cVlUvzP9VP65b6rTQnM23wtxNP35hh7zaWJGTbT38dFlYzPp4gWIu8Mxae25mrF/rJ4JKizL9Vw3umZpmLymC5m/mN/5vzh9waqRCzVSEBmSGY375QrGKd1gq0dTAO+6qKLVoQ/xoSPzrIijs07WjvZxBdSszs/Th79vvPppFZOMiIxQfFWlXIeP+oveZQipuIpPDlTYsxR7+ZIaGmHl5ZYXlKi0os7cZkY4dtYv332OyIGuTsxU4h7TvZV3Ixzit7cyC6h8v+9NpbR16aYaYmt7DmLCdL+eAxmXmo9dlRrrpGVuf738F5/zSwK1VmBId47f6amYNC6bl1dAL3DI2XukNvGwD6m/98nItnObe699tSKja9WjYm54m2E36X6mWzq7619Fv33D1Hmmm+HAca0iEOwSFPbt0cLaq+m35avtj71bp+sehB+ilM4/X6387SW9Yj9fOPlHPnnqMzhoxWLFW4IM35a90v0hpNTLVCnZW+FuQp3nPLtP02+dp6m1zNe22eZr2z7madd8Crfxivcryqa65uzMVK6/ov4/T8vX5St/ha/V1TOf+zlZV6wpyta4wV61iEnRV/3318gGn6O2Dz9Q71uPtg8/QK1bbvNbOCanOVyCYmEva9olJWxvVmKC4MjfbadWfWYjcn8gaet/Meo/+mJtle7R2n5uK5qGivFIfPFIkt85ks1zhyCMafj7bppUV+vHdqjcqIqwfe+DpwT+XLhh4JtxVWAexzZs3a+nSpVq8eLE2btxo76uLSZMm+TzQ9OIiI9Wphf/1ee476hC9c94pOn2PQfbi672soNejZZr6tWmlvbt10k2H7K+fr7pQl+wzwv5e8A5zEiva5H6nOzQyVLP/s9AOcmu+2aScxfl2EMxfVajcpQXaPCtHC15cYb03ftfyT9aqrICQ52UmwGXEJvz1aBeXpJ5J6fbQyMf3PkaHdujlPHM7U/1w6oaVen/p786ewDBDMge0yHBaVZmL/wt6j9Q3R1ykS/vvrVEZneyiKWaphL6pGXb7civcTTjsPN05fKzaNNIi6wgMs9B5az9DJXNLirU4y/+QyLrKsr6fqRbrpmdKmrPlq21Cze+pXqnpzhaaozWLKrRmsfvIlBZtQ9Shd8P22pUUVeqzZ0pUuMOgmnDr0uvUf0QzHLORBP2/shla9cMPP+jQQw/VgAEDtMcee2jEiBEaOHCgxowZoylTpjjP3Dnz/OoPNL3OLZL9LlZ+5IDeOnpgH3siek1iIiN02X6j9OY5J9mLoMMbTHXLilL3k9iKT9dr0/Rs10IrOzLLJyx6fZVmP7RIZUXUavYqsyD5J4ee+9fjw0PP0TtjztRT+x6v0W27K8ylZviL83/Vmd++EfBiJS2i4xQZ6t5z0jUpTef1HqEYc4u9Bqbn5ZRug/Su9d8wILW1sxfN3am9Bykx0r1Az1fLFmpVAHvujHV+hoCauXNdk917f0e1dh8ps83Owh+a1h+TylTup4bUqKMiFON+byEgzDX5N6+XaNH0qufSAfuFqftQ5mo2lqAOd1lZWbrxxht12GGH6euvv9batWvt3rstW7Zo3bp1+uabb3TAAQfo+uuv15o1a5yv8q+oqOivR3Fxsf0RTS893n8YC/cT+tyEhobYi6CbtfL8zUNAcClc7/+iu7K8DnPqrKdm/pGrhS+tUHkxAc+LTJhKjY7965ESFaP4iCjXY8jvm9fqtImv6c7pE1Xkp+ejPsz8OX9z58z+2s6rM0PkMmIT9eCeR6o1PXjNWnhIqE63gt3Z/YbYv7fq5m7eoDsmf7eze1F1Zr6vG3PD9Nph+yjOjJXbQcfEZJ3ce4DTchdnumHQLJnlD2ZMdE92qa1DNGh0hOv7L1DWL6vQjK+q/vz4FGn/kxum4jDcBXW4u/LKK/Xvf/9bBQU7lOKpxgS0+++/X0cffbRKSgI3URmNJy4qcCcSc1Ab26eHzhk1xNmDYFaWH9ggtua7TfYDu7deKS316F5H66C23Z09gWVuLgXy8srMv7t6wH5OC83RiT376dY9R7veTCguK9MNP3xhD8sMtAlLFzhbvsZ07q4vjz9blw0epaO79dbtex2oCcedrb4t3JdP2MbfSBo0vUnvlfhdP27EuAiFRzRcsDNFVN57sEj5O3Q+mwEKJ90YbQVL3jONKWj/tT///HO9+eabTqtm5oJ+6tSpGjZsmBYs8H+gQ/O0s7vYZhiAWZfvhGdf18C7H7MfZvuzOfPtOTPVmffDacMH1dgjiOCw04qX1lsnY+9UDb+rjw54eaj2e2GIhtzWy17Y3J91P25WRWnd5uvCW0xBCTN00szFu2ePwwK+zl2IeWPu5Lj255b1OuubNzTwnQfU4417NeaTp/XknF9c51CZY9pRnfrai5mjeYkJD9d1w/fRHXsf7DpiZENBni748n3N2rjO2RNYJtx9s2Kx06rKnFvbJiTp6uF76+HRh+vMvkMUG7Hznp38ssCHUNRf9qYKzfrOfaSB6WztOaLhRiyZYPf9WyU+c/2GHBxur6mHxhWU4a6srEwnn3xyrXvitl0A/vHHHzrttNN2fkGIZsXc1axJYWmpbp/wjWavWa8i67nmYbbvnPCttuS79+omx8SoU2pgF4tF4wuLqvmkkdgtTj3P6aTELnEKjQhVeHSYUnolqO+lXfwe/fJWFNhLJQBmXttJ3QbpjO5DnT2BYa+JtpPz0LVTPrbXusstLbafvyhnk/4961t9t8b9Qt30poxu675uHprO3fuM0SWDR/rt7br5x6/0/aplTivwisvLdclXHwW0UMuGvHxnC83J8jnlyt7gflzpMTxMaW0bLmTlbK7Qzx9UHY4ZFSsd8rfIBu0thLugDHc//fSTcnJydimkTZs2zZ6Ht369/wVr68IEzG3z9CqsgygCb3O+//V4jAlzFmhDru/JZnNBob6Yu8hpVRURFqouaZQSD3bRLWouOtFiYJLCon0Pc9EtotRmf/eKb6ZAS9Zc97XzELw+Wj5HXV6/+69Hrzfv04j3HtEJX76sB2Z9r42F/tceMwVOUiJ916TbVflWYDPrnfnzy/rlmpvpPlfqy1X+R5+Y6p9mXTw0vYSISD0z5hgd072vs6eq5dmZOv6j1/XVcvdzVCCZeaPnf/GevrZ+Vk3LI2xjrq2mrVvt98ZqQ6z7iPrZtq6c22WxCVnjLmjYOW9TPimrUh0zIlo66YZoxcQHZcwIekH5rz5nzhzXYQPh4eFKT09Xhw4d1LZtWyUkJLg+z1TXNEVWTNGU+jrvvPPUs2dP+5E97RdnLwJpdVZ2jUH+h0X+73r+tGS5s1WVeV9QNTP4xbau+YI7oVOc3yFGqf39F6AoWE8xJa8rqSjXxqJ8Tdu0Sv+d85NOm/i638WbzWLjpgcvULKKi6yLbP/HtGkbVjpbvhZkb3S2fCVGRiu8hjXK0DjaxSfq42PP0MGdfHtSzbnMVLC84MsPNNUKUI1liRUmzc+8dOLHdi9etvUeNEN8Tdgz0xdKrb8HM+dvmfW8q7/7TFd8+6lrb6N5/b+uXeW00FzMm1xmL4Hgpu/e4UpKb9jL/dLiqsezUusU+vKtRbrlsDzXxweP+r/+/vTJkr+e94/D8zTzWz+lP+FXUIa7hQsXOlvbxcfH684777SXPjCfNwHwq6++0gUXXOA8o6pXXnlFN998c70rYj7//PP2zzOP5GF7OnsRSOty8pRT6P/3tKXAf89eVg1fFxPBwubBLjwmTJFJ/ssrh8f4P8RFxPv/urICeuF3N2bY4ysLpjktX6NadXS26i/buvLZsONt7mpqWnqhoNT/dIQI62I8NKClWlBXXZNS9ewhx6qT9dHNzA1rddLHb2h+ZuP3fpkQZ+bgjfvfSzr54zd10Zcf6opvPtWVVpC79OuPdOonb2ns/17Uewv/1MjW7V2Lv2wpKtSKXD8VO9AkSksqNflj/wGo/z4sQbC7CcpwZxYor+6qq67Sddddp06dOinCumhPTEy017x74okn9Nhjj9nhb0fm7pPZ/8ILL6iui53vyPQWRkZG2o8QP2PqUT/mftD0VWu3Nlwk1FBNMy7Sf4DLC0DPLZpeTEa0s+Wrprlz5TWsaReZQPDfHfkbCmkEeqmBr2sYXhlbwxp3UWH+L9SKy8usC/hdP5+hfka0bqcJx5+lXi18h3ybHrIfVi7TmRPe0fKcpg1HZpjm3C0b9c3KJfp4yTx9uGiuvli2SL9vWq/CsjI71J3Zd7Dz7KoWZW625/Gh+diytkKrF7r/3Se1lDoPoDd/dxOUacTMt9tRu3btdMMNNzgtX3//+9/1n//8x2ltV1paqquvvlrPPfdcjcP+EDi9M9L18pnHuz7G9PZfDODbBUv8/o4GtW/jbPka0Ma9epz5Xks2ZTotBDNTLMWfgrX+e26zF/svCpDUgyG7u6O2cf4DnAlOblrFxOuF/U/S6wee5vO4buD+zrN8vb5oht8g1ivZfyn6DmbRKD82FObZw03R+E7q2V9PHHSUXYTHzRvzZuuirz5Qbj2WZLp62N568/CTfB5PHnyU84zAGNupu/qnu587f1y9TGX1uCGOwJv8UamK/awIdsK10XUuaFJeVqkJzxbruesLfR5v3FVzDQQ0D0EZ7kKr9ZANGjRI0dH+794b559/vq699lq7h21HZljmLbfcYi+VgIaXGB2lEZ3auz4yEhOcZ/matXqt3yGWR/Xvrbhqv1fDDLsc16+n06rKVNhcmbXDYiwIWmmDk5wtX1tm57gua1BaUKZ137sPi4pIDN/pXD40b2aR5UPa9VRadO1DeksrpJ3YdaDT8jUvy71XL9q6mN+jZQeNbNXR59GzhpC2Mj9bc7a4F/bar00XtYx2X65jn9adnS1fMzavCfgi2KiZWU7gtN4Dddc+Y5QaE+vs3c5Ub35y5hTdMukrFZTVb+5Qz9Q0jWxjvdeqPYa28n+D04gLj6ixN3hH5mdcYYVINznFxXpn/h9OC81B5vpyTfvS/cZTm26h6tS37kMyzX30dUsrtPT3cp/HynncPAoGQRnuYmKqXnhVH3LpxhRVMHPyzFII1ZlhnuPGjXNau6/E6Ejt162Tz2OPTu38rjUXH+X+NcM6tHWeERgLN27WtBXuk8/TE+J02X4jndZ2F+49XB39LHewLidXizYGrjQ0mk5yn0Ql+Vm3bssfOVr20VpV7lC8oqK8UvOfX67iTPcLraRucQqLZIh1MIuxLmTNGnXvH3K2Hhx1pD1frqYqkmPa9tCro09V58QWzh5f7y8N/EXth8vnOFtVxVjh9P5RhysmrOoF+REd+ujoTv2cVlUFZSWasGKu00JjGZHRTreOcl+c3DDnzgM7dtVnx55Vq8f1e+zrfGXgjGzTXv876lRdOGC4WsW6HyvNX8clg0bozcNPVtdk3/mCppf5lklfan2B/6qyaFxmBNKUT0qtc5qzo5p+ezfecMx9jo/U3x+LqfXjgFP832zY54SIv553yaMx6jmMOYN1FWK9OYLuRt9ll12m8ePH/zVMzyxtMHHiRHt7Z/Ly8vS3v/1N77//fo1z7UwYNN+/LvPxet7+kLMVnIa0a6M3zjnJadXPIiuMjXviZae13QgrKL585glOq6q7vvhOL0+Z4bR8tUlK0FvnnKyWCe4np+WbszR7zTpVWv8b2La132Bneu3+/tbHfitpBoMDD/df+GF3ZKpbTv3HXJXmut/BjG0bbQ/frCirVM7CPBVtch8aFRIeokHXd1dqP/+9gbuTX1d01JaC4Buianrsfj32/5zWVqYSpqk0aRaNNgVLTNhLjYpVn5RW1gWv/1EDxoyNq3XcVy85rao6xifrs8POtwNldd+uXqRzv3/baflKjozR/8acZYVK9+IbZnmGqRtXKr+0xO4F7N+itfOZqswwubumf62XFgTnCJTKMut8WxScF3AHdeiiZw89zmnV38eL5uqybz5xWlU9PeZojenU3Wltt9F6Tw9/9Qmn5csMs3zC+lrDvFfMnL/FWZvtnjjzd9AqLl4D0zMUF+m/XL5ZRuHSrz+25+sFs73bz9dRPfxfZwSTgpwKPXNNoTau8r2Mj4qRLn8qVklpdb9RWVZaqVf+WaTFM3xTo7n/dd0rO+9Q2Zmpn5f6rZg57qJIjTrSfy2FYHFC16a7TgvK29Pt27d3traaMaP2f6iml88UURk1apSzB8FiTXau7vnie7/r9HRskawj+vfSkf17+w12JrA/+eOvQR3s4CumZZQ6HO4+R8QoWF2kdT9u1oZftvgNdkbPczoqpW9gC2egeYiPiNKQtHY6tEMve/jlcV0G6IC23XYa7Iz7Z33nbAVWVkmhTvvmNWX6mTCTHhOvsR1663jr9foLdsb0Tav01uKZTgvwz/Qwmp45ExKP79lPx/Toqz3bdqwx2M3fslH/N/HToA92XjN3SrlrsDP2PSnSCmJUzt1dBWW4a9OmzV+9dkZWVpY+++wzp7VzJuC9+OKLGjBggLMHweKLeQv18Lc/Kaeo7pUuS8rK9ea02Xr5V2/ctcN2pqe9w7hW6nhUa4VF1f2wFhIm62sz1HrvFvb3AozluZm69Mf3NXlDw90MWleQq1t+/dwuhlJX5ZUV+mb1Ql0+6QMuvBFwZumE71cu0d8m/E/5ZbteCAaBV1xQqW9edb8Oik8J0R6HhXMu240FZbjr1m17VcVtb95///vfdRpC2bVrV7377rv2YucIHmbh36d/mqpzX/2fikprfzFjevuu++Bz/fOzb1RQwoKYXhQaFqpuJ7dT/yu7KSy69oc2s97doBt7Wl/bXqERQXlIRDX1nW1gLmo/Wz5XR33+vD5b2fDz2CasnKdDPn1af25Z5+zZOXO+G//Hz7rwh3e1oYh5UAgsUx32hh8+11lWsFuT739NRjSNP38pU7bvqmC2roPDFB1HsNudBeWcuy1btig9Pb3KCTw5OVmff/65vbZdXfz88886/vjjtW5d1ZPq7jjnrmV8nA7t28Np1U92QZE+/N33oigjMV5jevvOGTB+W75Kc9f5OVq5iIkI1/7du2jPzu3Vp00rtUtKVFxUpD0xPLe4xC6aYr7f5KUr9f2ipTUuaB5smHNXs5KcUm2emW0XVMlbXmAPxSwrLLf+rqWwuHDFpEcqoWOsUvolKrV/Iuva+RGsc+6M5Mho9U3JUPekNHW1Hp0TUpURk6DU6FhFh0coIiRUFaq057NlFhdqbUGOFlpXS79bAWvGptVamlu7gksJEVF2kRO3ghor87L09eqFTmvnIkPD7OIve2V00qAWbdUxIUVJ1n9HmPVaTcEU07tnqnZO2bBCk9Yt07JavsbmLpjn3LVPSNLBHf0v41NXS7K36LuVS51WVQd26KqOib5TDkwVzjfnzXZavkxF16EZbdUvraV6pbZUl6QUZcTFKyEyyl43sayyQrklxVqVm6M/N2/Q1LWrNGnNcm0o8L9cTLDyypy7RTPKtGG5+/VptyFhatlh14upVFRUau7kcmVv8P3+kdEhGnZo/c+X65eVa/FM90owZl2+1l2Cf22+ppxzF5Thzhg9erS++67qPAhTKOXZZ5+tc1f0hAkT7IBXWOi7fsfuFO4QPAh3aAzBHO4QPII53CG4eKmgCpq3pgx3Yf+0ONtBxRRVMT14PXr0+OtRVlamkSNH2r14ddG5c2e1bt3a/n4dOnSo8jjnnHOcZ+3c499PdraAhtWlx1pnC2g4q7OTVVga/FXL0MxVhEhlDIlGw+uQtFm9WtR++DOwq/qmXuhsNb6g7blrjui5Q2Oh5w6NgZ47NAZ67tBY6LlDY2EpBAAAAABAvRDuAAAAAMADCHcAAAAA4AGEOwAAAADwAMIdAAAAAHgA4Q4AAAAAPIBwBwAAAAAeQLgDAAAAAA8g3AEAAACABxDuAAAAAMADCHcAAAAA4AGEOwAAAADwAMIdAAAAAHgA4Q4AAAAAPIBwBwAAAAAeQLgDAAAAAA8g3AEAAACABxDuAAAAAMADCHcAAAAA4AGEOwAAAADwAMIdAAAAAHgA4Q4AAAAAPIBwBwAAAAAeQLgDAAAAAA8g3AEAAACABxDuAAAAAMADCHcAAAAA4AGEOwAAAADwAMIdAAAAAHgA4Q4AAAAAPIBwBwAAAAAeQLgDAAAAAA8g3AEAAACABxDuAAAAAMADCHcAAAAA4AGEOwAAAADwAMIdAAAAAHgA4Q4AAAAAPIBwBwAAAAAeQLgDAAAAAA8g3AEAAACABxDuAAAAAMADCHcAAAAA4AGEOwAAAADwAMIdAAAAAHgA4Q4AAAAAPIBwBwAAAAAeQLgDAAAAAA8g3AEAAACABxDuAAAAAMADCHcAAAAA4AGEOwAAAADwAMIdAAAAAHgA4Q4AAAAAPIBwBwAAAAAeQLgDAAAAAA8g3AEAAACABxDuAAAAAMADCHcAAAAA4AGEOwAAAADwAMIdAAAAAHgA4Q4AAAAAPIBwBwAAAAAeQLgDAAAAAA8g3AEAAACABxDuAAAAAMADCHcAAAAA4AGEOwAAAADwAMIdAAAAAHgA4Q4AAAAAPIBwBwAAAAAeQLgDAAAAAA8g3AEAAACABxDuAAAAAMADCHcAAAAA4AGEOwAAAADwAMIdAAAAAHhASKXF2UY9jdjzcmcLaFjp91Q4W0DDWZWVosLSCKcFNIxQVSpSHNPQ8Lomb1T/9FVOC2g4/xr4kbPV+Ah3AXRw6AnOFtCwsj7t7mwBDaeoNFwVlQzwQMOKCCtXXFSJ0wIaTmJkodKiC5wW0HBeGfGss9X4OGsDAAAAgAcQ7gAAAADAAwh3AAAAAOABhDsAAAAA8ADCHQAAAAB4AOEOAAAAADyAcAcAAAAAHkC4AwAAAAAPINwBAAAAgAcQ7gAAAADAAwh3AAAAAOABhDsAAAAA8ADCHQAAAAB4AOEOAAAAADyAcAcAAAAAHkC4AwAAAAAPINwBAAAAgAcQ7gAAAADAAwh3AAAAAOABhDsAAAAA8ADCHQAAAAB4AOEOAAAAADyAcAcAAAAAHkC4AwAAAAAPINwBAAAAgAcQ7gAAAADAAwh3AAAAAOABhDsAAAAA8ADCHQAAAAB4AOEOAAAAADyAcAcAAAAAHkC4AwAAAAAPINwBAAAAgAcQ7gAAAADAAwh3AAAAAOABhDsAAAAA8ADCHQAAAAB4AOEOAAAAADyAcAcAAAAAHkC4AwAAAAAPINwBAAAAgAcQ7gAAAADAAwh3AAAAAOABhDsAAAAA8ADCHQAAAAB4AOEOAAAAADyAcAcAAAAAHkC4AwAAAAAPINwBAAAAgAcQ7gAAAADAAwh3AAAAAOABhDsAAAAA8ADCHQAAAAB4AOEOAAAAADyAcAcAAAAAHkC4AwAAAAAPINwBAAAAgAcQ7gAAAADAAwh3AAAAAOABhDsAAAAA8ADCHQAAAAB4AOEOAAAAADyAcAcAAAAAHkC4AwAAAAAPINwBAAAAgAcQ7gAAAADAAwh3AAAAAOABhDsAAAAA8ADCHQAAAAB4AOEOAAAAADyAcAcAAAAAHkC4g6eFhIQoMiZSMQkxikuKVUx8tCKjI5zPArsuIiRMsWFRig+PVpz1MSo0QiHO54D6iAw1761I671l3l9Rig6LUJh1LAMCxbybzLGrZVSSOsSmq3NcK3WNz1AX62NHq50RnaLEiFjrIpH3HRBsQiotzjbq6eDQE5yt3U9q6xRd/vh5ik+Jc/b4umb0P52thmPCXIc+7TRgvz7qPriz2nTNsIJdtMIjwhUaFqqKsnKVlpQpe3Ou5v6yQD++N0XL56x0vjp4ZH3a3dnyppFp3XV2l/2clq/NxXm6edabTqvxmAvtg1sP1Ii0bmoVnaQoc9FtXfxUqFKlFeXKKyvS8ryNmr5lqSZvWqhcqx3MikrDVVHp3XuACdbv81+DjlRKlPtxq6CsRH+f8rrTajjpUfEanNpBg1LbqXNCmpIjY62AF24FOvNvv/W9lW+9loU5G/Tj+oX6YcPCrV/oERFh5YqLKnFa3pQRnayreh2tGCu0u8m3jhU3zHrZaTWsES166qi2e6hDXLoV4GLsm1ThoWHW+y3M+nuvUFlluQrLS5RbWqi1hZn6ct0Mfbl2hn2cC3aJkYVKiy5wWsEna/YWrf1kldPadRmHtFHK0DSnVX+VFZVa/cEK5c7LdvYERu+bBjhbweeVEc86W42PcBdAu224C5HOufMUnXzDMXa48qch/3367NlTB566j/Y8arjS2qY6e3eurLRM076arZdufUuLZi61D1DBwMvhzlz8PDb8bxqY0tHZ42ttQZaO/P7fTqvhtYlJ0VHthunUTnspOtz94qy6kvIyvbHsJz2+4AtnT/DxcrgzPRJX9jlI53Tfy9njK6e0SKM+u9dpBVZqZJyO7jBIh7bpq17JGU6Qq53leZv1xPzvNXHtPBVYF+HBzuvhzrzXru19rI5st4ezx1dWSZ7GfX+H02oYbWJSdXG3sRqdUfcL5tmZS/WfeR9ocd46Z09wCvZwt/HH9Vr6zAKntes6ntVVrQ5s47Tqr7K8Uov+O1eZUzc7ewJjj5f3cbaCT1OGO4Zlot72OW6kjr/6yBqDXUMKCw/VGf84Xkdeckidgp1hevRGHDZE90+8TafdcpyzF03p0p6HqH9yB6fV9Ma2GaTnRl2kv3Xdv9bBzogMC1fXhFZOC83NIW376syuo5xW49szvauu7nuw+qa0qVOwMzrGt9Adg4/S+JGn2iERzduhrYdqXNthTqtpmGGXjw29QAe06u/sqZsBKZ31qPX1I1v0dPYAaK4Id6iXlFZJOueuUxURGe7sCU5mPt5Z/zxJp950bJOFVJgL3h46seMohTaD34G54D663XDd1O9opUUl8L7wEDMc88Ie+yo8tOlOgfV9O0WEhml4WifdPeRoxVn/PWieWken6KwuB9Q5wAeS+dmXdB+rjJiUeh3HkiPjdGG3Q+whwwCaL8Id6uXMf52ktt0ynFbwO+GaIxWfzJ3wpnJJ9zHOVtMb23qQbux3lKL9zJFB8Lp1wOHqlpDutILb3i276ZIe/uenomld0etItY1p4bSaRkJ4jIal+h/Kb+bWvb9ysh6a96FeWfqtNhb5nzfVPaGN+iX5HzIPBEp4PDcRdhVz7gJod5tzZ+a33fa/axUaWrs7gQ3172OGZd758Y0adsggu71++UZN/XKWZn83R/OnLtaGFZtk3uYt26dpj3FDdMxlh6lNV//D5d769wd69obXnFbz5LU5d+bO8mU9D9Vpnfd29tSsoefcJUXE6sU9L1a7WPeLsplblumLtbOsj8vtggNFFaWKCYtQ65gUdYlvpcGpnTQ4pZNWFWzR1dNfcb4q+Hhxzt3ojF56bMTJTqtmDTnn7oh2A3Tv0GPt7Vzr50zbvFy/bFiiGZkrtSJviz2XLikiWgNT2uukzsO0V8uuCvXT+7M0d5NO+/E5ZVsX6cHIq3PuxrUZppv61u6815Bz7o5uN8Ke8+dmUe4a3TzrVa0q3D5Xyhz/rut9nPZv1c/ZU9WENdN155y3nFZw8eqcu5ThaYpMqf2NyNQ90pTQI8lp1Z+pV7Bp0noVrMh39tSOKcDi72vSD8hQ578F77VOUBRUKSsrU3g4Kbomu1O4M1UxH/r+dnXqV3Vu1NLfV6hzf/f5Ug0d7vrv01sv/+ttvX3/R85n3LW2gt0zvz+oqGg/VctyCnR08llOq3nyWrjbK72n7h9yuj3UbJuCsmIVlZcqNSre2bNdQ4e7/ww+Xftl9HFa25nD5atLf9Sj8z939vhnbnm0jE7S+hrugjd3Xgx3H43+u7ru0GtXXlmhuVlr1S+lrbNnu8YIdz+uW6ibZ36gzcU1XxTdP/Q4HdbOfb6Uqep54vdPaWleYIsZNBYvhrvo0Ai9uufV9g2fbcx7bUnuOnVP9C1k0ZDh7sqeR+r4Dr6Fg8zx7G+TH9HCvLXOnu1aRCbodev1x0fEOHu2m5+9Suf8+pjTCi5eDXe9buyvxN7JTis4lBeWaf79fyhvUa6zp6reNw9QQs/ABdDGFhQFVZ544gkNHjxY119/vSZPnqzy8nLnM9jdhISG6OIHz1bHvu2dPdYfaXmFnr72Zc2d0vgluisqKvXp01/p3H5X7jTYGWsXr9cjFz3ttHzFJcYqKS3RaaGhmYugi3sc7BPsbpzxhnVx3fg9EV3jW2lkunt4/nXzYj276BunVTNz1yyYg53XhIeE6oGhx/sEu4f/nKiFuRudPY3HVLz826QXddGU13Ya7IwXF/3ibPkyvcZJLhfhaBpmDcxb+51cJdiZ5Szu+/N/Wpa/wdnTePzN9zNLt2yxQqWbkooyZZW6vy/DmXOHAMhfnue31y6+R6LiuyU4LdRVrcOdCXOzZ8/W/fffr7322kv77ruvvvvuOxUUFFgX1xXOs7A72PvYERpz1v5VJmYv/X25Pn1motNqXGY4wKT3f9X6ZbW/QJsx8XcV5vlfgywyhoXOG4N5B13T53D13OFOtrmb/M6KyZqdtcLZ07gGpnRwLRhQYb2uh+Z+4onS87uj/Vr10KHtqg4zW1OQpXeWTXNajWt21mr9unmZ09q5Odlr7OU13JhjcUwdKrmiYY1tM9R6v1V9r83NWamv181yWo1rcd56Z6sqE/r8Fa8y7yl/oXBJkC+HgKZnzvNmvb6KEpf8YL0lO57RVSFh3ho10ph26V/O/FJ++eUXHXTQQRo+fLguueQSTZo0yd4PbwuLCNMZt1YdXlmUX6RHL3lGBTnBM9TBvFdruimRl7nzO+movyGpXXRIm61zJbdZWbBZbyz9yWk1vlFpParcuNhmduZy6yJp+113U4Le9PL1SGitjOgk63zkfpGEpmfWTry892intVVOSaGu+PXtoFpovrjCPdyZHsiskuAdauYlsdZ77YxO+zutrbKt3819c961fn+lzp7G9ePGOfYi6dWZv4v9W7oP9e2R0EZpUb4jWMx77f1V/nuR0XTKS8pVtL5Q+UtzVbAqX8Vbiprt2r1mKGb275lOq6rE3kmKaRPrtLAr6hWLzcXx3Llz9fTTT9s9eUOHDtWbb76pVausNE5vnueEhYfp6mcuVucd5tmVl5XruRtf09zJjT8csz5SM5IVEx/ttKpaNGNpjb16CAxzYXF173GKDtveS5pfWqSrpr2szX6GCjWG/inuc0ZnZi5TelSCTuwwUm/t/X+aMPpGvbnP/+m1vS/Txwdcr+8Pvk3/GnCC+iW1r/LfhKZlhsjdPugIdUts6ezZ2gs7fv73mpcTPD0QaVHxSohwP2ZlW0E1u4RjVlMz77V7Bp6pNjsUYiqrKNcTCz/TsoLGH/q7zZbiXE3a+KfT2s7cxLq85+Ea23qIHeQSw2OVGhmvPVK7684BZg607wiG37OW6c/slU4LzcXS5xdq+kW/aPa1UzXntpn646bpmnXFb5p6wc9a8PAcbZq8QSVZJc2iE8YEzg3frLU2nB3VpI5MV2gEvXb1EdB/vZkzZ+rUU0/Vfvvtp9NOO01fffWV8xl4galGedAZ+zqtrZbMXq6vXvnBaQWP0289QaEua1yZA98b97zntNBQ7HWXeoxR98TWzp6tzHDM5fmbnFbja2ld4JiLGzd9k9rpyRHn6+o+R6hLQiufyoVmWNxhbQfrKes5dw86xQ6CaHr7tuquA1v3clpbLcndqA9XznRawcH8d/hj5u9tLm66GyLYyiwQPqxF1d/T7Kylmrh+ttNqGhXWVfT4hRM0K3Ops2c7cxy7vs/x+u+wC/XI0PP0mPXx3kFnKcFlDueags16aN5HKq2k5kJzU7y+SJVlvmmpsqRCWdO3aMn4+Zp3z2yt/3qNKsqatvOlvLhcOXOynFZV4QnhSh3ujWVqmlKtw525EK5t4l+6dKneeustHXLIIerdu7eeffZZLViwQCUlzX+uyhFHHKEhQ4b89Tj88MOdz+zeYhNidPbtJ1UZrpafXaD/nDPe/hhMTEDd88jhTquqxTOXafInTTMHZ3cyKKWTxllBaEerC7bolaU/Oq2m0Sm+peuQTGN4Wjd1iEvb6QLrkWHh2qdlLz036iJ1T/DOGpDByCwlcGWfgxS1Q0+q6eX6+xRTrCd4erqSI2N1ZteRTqsqMw/v+UU/+R2yicaRFBGn87pWXafT9Jjd+cfbKigvdvY0nU3FObp6xvN6fdn3WleYqYrK7Rf4pphVu9g09Uhsq05xLav8vZjrvsySPH25dob+NuVRLXKprIngULS2UCteXaLlLy9SeVHTBfQNE9eqNMs9D7Q9tqPC4yjYU1+1Dncnn3yyHnjgAXXp0sXZU7NtF0jz58/XhRdeaBdhMWHvgw8+aNYh788//7R7ILc9THt3Z6pjXvfypeo6qJOzR3Z1zFduf8fuuQsmPYZ20YX/8b/MwfM3v66SoqaZF7G7MHNSbu53dJU7wzmlBfq/qS82SXXMHaVHB65KakZ0su4aeLL13xvl7EFjMr3D/xx4pDonpDl7tnpx0c9aVeA+16M5MnM7nx11hrolbB9Wuo258H5u4SR9u26+swdNYetwzDPUdofhmCY8Pbnoc60vbj4VcwvLS/TEwgl6e8Uk5dXy5ob5GvP8e/58166uiSBXKW38br0d8Cqs67jGVppdojUfuBdLi0yLUurwqsdr7Jpah7uWLVvqyiuvtOfYmeGWf/vb39SnTx9FRLjPLdmxl89sb968Wd9//72OO+44DRgwwA6Ks2bNUlFR8ztY+LtzH6y6DuxkLzhe20d1I8YN1YjDhlT5d1k0Y4m+fOk7pxUc9jhssB74/nYlp/tewBcVFOvhi5/Wb58H11CtYBOqEF3cY4zax1U9gL+7fIpW5Df9Gl2xtZgrZ+bQzM9eo0kb5unnjfO1OHe9XWSgOvP30tm6ID+n2/6UWmkCI9M6a59W3ZzWVguy1+uNpb86reavTUyS7hp8lHolZbiel37ZuEQvLZ7sb+oKGsnoVgPUL7mj09rKzEv7pomHY+7IHHtHtOihZ/a4VJf3PEKJkbUrWBEbHqULux1qf535en8VNNEErENCZGqU4rrEK7FfspIHpSppQIpiO8crNLrm39OWqZtVsLzxC8dlTtvsXiHTktgnWeHxzFcPhFovYl6dKZiSm5ur5cuX68knn9SLL75Y56CWkJCgHj166Pbbb9fYsWOdvU2ra9euWrZs2V/htFOnTlqyZIm9vTPNdRHzK568QOMuONhp7dyO/x3hkeF69o+H1KZrq78uLswwzPP6XaVNq30vxq98+iIddt6BTquqpvz3GXvuaF380NmKiXdfC+qFW97QG/e+32wrS1UXrIuYd4tvZQ9XNBcM2yzL26gzfn7cXrB8R/Hh0Xph1MXqFO87/r6hFjE/rv0euqHf0U7Llwl2/57zoT5fO9t+veYvwsy1O6vzvvpbtwO2PqmaVVZoPWfyk8osCb4KrMG6iHmC9f76YPQlyrDC0TaZxQUaN/ExZbv0Dt85+Ggd06Fq1VajIRcx35lO8S309Kgz7IDnFux+3rBY//frW55YmiOYFzE3x6nX97xGLXaYY2uGQJ7+84PKLfN9r/2z3yk6uLXve60hFzE3Tum4r87vOqbKkMu6MmvfvbbsOz23+KugvaHgiUXMn1ugjDFtlLZvhiKSIhUaGarQcOsYEWo9rF9MRWmFyvJLtfzlxfZ8O39ShrdQ98v6OK3GMfeuWcqdn+O0qup/71BPVckMikXMqzNz8JKSkuxeuPHjx2vNmjV6/fXX7R69bt2q3i31x4TDadOmady4cfayChMnTmRx9GYkPCJM//fEBWrbrepdYzMc0y3YNUdmSOlptxynq5652DXYFeQW6unrX9Hrd78XNMEuWCVFxOqewadWCXZZVuC5ccbrPsGuqeTv5EJ5bvZqfbZmlj1UqdL6nylUkF9WrFeXTlK2n/BmhnqmUVyl0ZjFyv8x8PAqwc54YdFPrsGuuTFHWtPr+NTI09U2Ntkn2JkbjxPXztPNMz5gzcUmFhUaoVv6nlgl2BlPL/rCNdg1le7xrXVW5wNcg92yvPW64/e3dIQVLPf9+kaN/e5fumnmy5qT7Tt0zqz/ebIVEgemdHb2oLElD0zR0Cf3VIdTuyq2XZwiEiIUFhVmrwlnjhXmmse0o1Kj1fXCnkoakOx8pa9MK/iV5jbeuTdnfrZyF7oHu7R9W7H8QQAF7JZscnKyPS/vueees4unmHXwRo+uuq6QP+YN+c033+jQQw+1ewGDSX5+vnJycuxHhccqSMUmxqr/PlWrzK1btkEfPD7BaTVvZumGm9+4UmfffrKzpyrT+/zgBU/qnfs/cvagIXWKS/fphft41TQt8rPAblPYUFjz/Jgv1s5yXasqx7qQ+9D6b3FjLqg6Wv/taBxx4VHqnVS1Cuu87HV20ZFgsE/L7npsxClqF5fi7KnqgxUzdfmvb2pDUa6zB00lOSJW3RPaOK2tzHDMT9dMdVrNw419jleC9VqrM4VSLpv2tD5fN11brG0zvNzMf/5+4xxdM+MFrS307fUxS9jc1u8Usa5n04hIjFRYdJjTqllYTLh6XNVPoVbYc1Veaa+J1xjMzfPF4+eZ0q0+QqNC1XpcO6eFQNjlYZn+FBcX68svv7QLp3z22Wdav75uF27x8fH68MMPdcAB7kOcdmSqWQaaKaCyY8GXnQ3LfOGFF+wwa3x5789KDfGd9N7UdnVYZmKLBD36y11q263qhVKgHB5/mooLGubOc0JKvC568CwdePq+CgvzvYeRvSnXCnZP6OcPfnP2BJdgHJY5MLmjnh11odMKrLUFmTry+/ud1q5LiYzTF6Nvch0GZ1zy67P6bbP78WB0q366b8ipTquqB//8RG8s/9lpBY9gHJaZFBGjV/c5V12qFVIJhIKyEg3/9G6nFVhmLtOJnYbq6j4H20N9qzNVMd9c9pv+O+875ZU1ffXFQArWYZmtopI0fvjFyohxD+L1UWD9jg/+9lantevaxbbQW3td57SqMmvf3TjzFet622XOsPW4pe9JOrSN+3XW2ZMf1sLc4KucGezDMnfFnNtmWCHOfamUzud2V/p+DV/VOefPLM2793enVVV8z0T1vLafwiJrF1qDRVAOy9yR6QHJy8vTM888o/bt2+uoo46yQ09dg51hvs95551Xq/l7O1a1DNSjrpU8zTDUe+65x340x2BnFBeWKC8rv9aPYJfcMkn/+fY2jTlrf59gZ+5lbFq9RZfveVPQBjs0HDMvbmOR+7ARw1zc+5NXwzCs8BBvnbQQWCbYndFlhG7qP9Y12JWZUQZ/fq37/vjCc8EODatDrP9RAyvzN7kGO8Pc9V+S73+R/zYxqc4WmrvQGP/nHzM/rzFsnux/Ef+Mg9t4Ltg1tXqFu9LSUn366ac666yz1KtXL3vJg02barcAsel1GzhwoOsdclNZ0yyhgMB44soXdUzq2bV+BDOzXMPdE25S5/5VK5dts2jGUl174L+0ZpH/kxZ2b7Oy/C/v0cLPAudGy+iqc7x2tKHYf2DE7s3MEbx90JG6pu8Yn4XxjS3F+br6t3f02pIpzh6g9qLDfG8WbLOzgZU1Db2MCvX/fdG8lGb7n1cXFtvwa8qVZhdry6/u4S62U5ySh2xfQgSBUedwZwqebNmyRe+//76GDh1qL/r92muv2QVVamJCXGxsrAYPHqyPP/5YU6dO1YwZM/TKK68oOjraedbW5xUUFOxSrx+C3x6HDdFXFe+4PsySDjXpPKCj/vX+deo+uIvrTYNZ387RpSNu1KoFNb9X4Q37pPfSb2Pv9nlMOfROjW7V13mWrymbFlVZymVHA1LcbxoYe6b1cLaqMhU2lzSjeYUIrA6xqZo67mbNOeqfPo8nRp7mPMtdfHiU/jviFB3dYZDPMcu8B3NKCnXT9A/09bq5MsV7sHszhVF+Ovg+18e/+p/iPKuq4hqK7rSPS7cuAv0HuM5xrZwtXyUuc4/RsArXFqgku8Tv+clN4ep8FVlf5090xvbr720qyyu18NE/9euZP7o+6sK81tUfrlR5gUtNCuut12pMG4WGB2QQIXZQ639R8wv69ddfdf7552vEiBE64YQT9McffzifrVliYqIuueQSe328n376ya6OuY0pwnLxxRc7ra3Kysqa5fp3aL72O3FP3ffFP9Sqo+8QFDOR9+Mnv9AdJz3YJIt2IrjMzFym4ooyp1XV6Ix+9ry86jrGpWn/DPeS0huKcrSl2H2+A3ZfiRExetwKdnu3cp8/uyh3o86c9IJ+3LDQ2QPU3WqXoijb9Elqr9Z+hle2iEzQ4JQuTsvX+qIsZwuNJWdOlv68bYa9AHnRup3PGyywgt28+63rdD+XPREpkYrt4H80SiAUry/SlinuvXZmjb7EPoGfrworN1uhrVa3AJ5++mk7hNX2joFZKqFLly52z961116rjAz/EzZNaBw5cqTT2uq9997T0Uf7X2/KMD+joXlhnbvGVN917kzP3V2f3Oi0qrpo8LVaPGuZ09ouPCJc90+8Vf327u3sqb+rD7hNs7//02k1P8G6zl1d1HedO9Nz9+CwM53WdhWVFbpxxhv6Zv0cZ4+vf/Q/Vke2G+a0tjPHv2+tr3t20TfKKimQ6WwxF0FX9BqrIS3cL4Q+WTVNt//+v6DsdwnWde7qqj7r3Jmeu/cOuFgx4b5l5n9Yv1AXT37NaVV1bre9dVXfg5xW/T0291s9ueB7pxVcgnmdu7qqzzp3pufuxVFXOK2qvl43U7f9/obT2s70zL2517VqG+s+9G1jUbbun/u+Pb/OFO2JCA1Tu9g0XdXzKHWMd68jkGMd+47+8W7XysHNXTAXVFn/9Rp77TqbdVhOHtxCLUakKbp1rMJiw+weMHOJXp5fptwFOVrz4QqVZvn5u7LOXe1P6azWh/pWqTQ9d4v+O1eZU92XvNrj5X2crZ1b98UqrXh9qfVNnR07aH14O7U/0bvLagRFQRUzVLK2zNp3b7/9tr799ls98MADNQY7o0WLXRtvGx5edayw6U186KGHdvnx4IMPKjWVScLA7u7BuZ/ai6tXZ4bOmd67J0ecbz3O05N7bP3oL9iZHrvxC75kQB2AJmGG8z4y/2NV+Lkxnx6dpDsHnq7Hh16ox4ddqMesx32DzvIb7Ayzjl8wBjtPqZCypm3W4vHzNe+e2Zp39+/WR+txt7VttZe/tMh/sLNEpUcrbVTDFgE0N0M3fLvONdiFxYUrg+UPGkzAbsmade4OO+wwvfvuu/Z8umOPPVZt27Z1PluzXe2B69Chg7O1VatWrfR///d/u/y44oor7IXZ3eZrAdh9mIXJH5n3mf3RjRlS1yEuTe3jWlRZlH1HuaWFuvOP97SxmPXIADSdKZvn28se+GMWJzfLOXSIS7erYNZUhGX6lsX6ZA2VppsTM5+tZHOxitYVqnhDkcry3KcVbBOeFKFOZ3dTRFLDFsXZ/NMGFa1xryKdvm8rRcT5jnZAYNQ73Jnes7///e+aNm2aPZTShLrqPWo707JlS73xxhtVHsOG+Q6Jqq5bt27O1laTJ092tgCgfn7aOF9/+2W8Nu1CODPB7qppr2jSBqr+AmhaZZUVumvO2/pl0zxnz66Zk7VCt85+XaWVLsUxEBSiWsWo5zX9lNg32dnTMMqLyrX2s1VOq6qQ8BCl7uF/iQ7U3y6FO9Oz1adPH1133XVauHChHnvsMXXu3FmRkbt2FyAuLk4nnXRSlUe7djvvru3atauztZUp8FJY6H+tKQCoLTOSZGneRv19ynP6au1sZRbvfA1IMwzTPPfcyU/ZhVkq3cajAEAjyysrshcsf2DuB5qTvUIl5bUbVlluBcMleev07KIvdem0p5RZSnGoppI6It2eJ5fUP0WRqXW43g4NUUz7OLU+sr363j5IcR3jG3yEWsGKPLsX0U2s9fNjO/oWJkPg1LqgysMPP6yrrrpK3bt31/3336+DDz7YXsKgKYcwjh8/XpdeeqnT2uq7777Tvvvu67TqzgTGZcusizLnn4WCKnUTFROp8Ej3ntv87J3P2wwLD1N0nPswt8LcInvBfDfR8dE+C5bXR2Ge9bOacWXN3aGgihEbFmWdl3yPMebvM7+85sWczcLQMX6GFxWVl9h3s2vLrPcUFx6lfVv2sufc9Upsa1fNNOFtY3GO5mav0bfr/9AvGxeqoKzYM2Xrd5eCKtFhEYpwWWje/H53tmj41vdGpP2xurLKchX6uYiODA1TVGjghiWZOVAlFcHZo7I7FVSJtn7n4dbvvrraHNNMcRR/w8DNkitFtZwHZ97rKZHxGtGih4a16K5u8RlKso5npoiVCXOZJXlanr9RM7Ys1g8b/9S6okzrvVXzUL9gEcwFVQz72tQ6dVWUVag0q1jZs7OUtzhH+cvzVZZjndcKyhQaGaaIxAhFtYxRcv9kJQ1KVVSqdb0eYR2lanHNbn5GRYl1FitzP4+Fx+18dJ55fRXF7ufYUOt1mNfodU1ZUKXW4e7nn3+2Fxc/6KCDFBMT4+xtWpMmTfIJcnfccYduvvlmp1V3JtwtXbrUaRHu0DztLuEOTWt3CXdoWrtTuEPTCvZwh+ARFOGuOcrOzvZZLmGvvfbSnXfe6bTq7tFHH1VmZqbTkl1gxRRaqQ3CHRoL4Q6NgXCHxkC4Q2Mh3KGxEO48gnCHxkK4Q2Mg3KExEO7QWAh3aCxBsc4dAAAAAKD5ItwBAAAAgAcQ7gAAAADAAwh3AAAAAOABhDsAAAAA8ADCHQAAAAB4AOEOAAAAADyAcAcAAAAAHkC4AwAAAAAPINwBAAAAgAcQ7gAAAADAAwh3AAAAAOABhDsAAAAA8ADCHQAAAAB4AOEOAAAAADyAcAcAAAAAHkC4AwAAAAAPINwBAAAAgAcQ7gAAAADAAwh3AAAAAOABhDsAAAAA8ADCHQAAAAB4AOEOAAAAADyAcAcAAAAAHkC4AwAAAAAPINwBAAAAgAcQ7gAAAADAAwh3AAAAAOABhDsAAAAA8ADCHQAAAAB4AOEOAAAAADyAcAcAAAAAHkC4AwAAAAAPINwBAAAAgAcQ7gAAAADAAwh3AAAAAOABhDsAAAAA8ADCHQAAAAB4AOEOAAAAADyAcAcAAAAAHkC4AwAAAAAPINwBAAAAgAcQ7gAAAADAAwh3AAAAAOABhDsAAAAA8ADCHQAAAAB4AOEOAAAAADyAcAcAAAAAHkC4AwAAAAAPINwBAAAAgAcQ7gAAAADAAwh3AAAAAOABhDsAAAAA8ADCHQAAAAB4AOEOAAAAADyAcAcAAAAAHkC4AwAAAAAPINwBAAAAgAcQ7gAAAADAAwh3AAAAAOABhDsAAAAA8ADCHQAAAAB4AOEOAAAAADyAcAcAAAAAHkC4AwAAAAAPINwBAAAAgAcQ7gAAAADAAwh3AAAAAOABhDsAAAAA8ADCHQAAAAB4AOEOAAAAADyAcAcAAAAAHkC4AwAAAAAPINwBAAAAgAcQ7gAAAADAAwh3AAAAAOABhDsAAAAA8ICQSouzjXo66avznC2gYc3I7uBsAQ3nP70/14CEdU4LaBjT/uikh184xGkBDefo/f7UBcf+6rSAhpPQZq6z1fgIdwF0yuQLnC2gYU1b1d7ZAhrOf/t+pCFJa50W0DCmzOyie586wmkBDef40b/r0pMmOy2g4YRmLHC2Gh/DMgEAAADAAwh3AAAAAOABhDsAAAAA8ADCHQAAAAB4AOEOAAAAADyAcAcAAAAAHkC4AwAAAAAPINwBAAAAgAcQ7gAAAADAAwh3AAAAAOABhDsAAAAA8ADCHQAAAAB4AOEOAAAAADyAcAcAAAAAHkC4AwAAAAAPINwBAAAAgAcQ7gAAAADAAwh3AAAAAOABhDsAAAAA8ADCHQAAAAB4AOEOAAAAADyAcAcAAAAAHkC4AwAAAAAPINwBAAAAgAcQ7gAAAADAAwh3AAAAAOABhDsAAAAA8ADCHQAAAAB4AOEOAAAAADyAcAcAAAAAHkC4AwAAAAAPINwBAAAAgAcQ7gAAAADAAwh3AAAAAOABhDsAAAAA8ADCHQAAAAB4AOEOAAAAADyAcAcAAAAAHkC4AwAAAAAPINwBAAAAgAcQ7gAAAADAAwh3AAAAAOABhDsAAAAA8ADCHQAAAAB4AOEOAAAAADyAcAcAAAAAHkC4AwAAAAAPINwBAAAAgAcQ7gAAAADAAwh3AAAAAOABhDsAAAAA8ADCHQAAAAB4AOEOAAAAADyAcAcAAAAAHkC4AwAAAAAPINwBAAAAgAcQ7gAAAADAAwh3AAAAAOABhDsAAAAA8ADCHQAAAAB4AOEOAAAAADyAcAcAAAAAHkC4AwAAAAAPINwBAAAAgAcQ7gAAAADAAwh3AAAAAOABhDsAAAAA8ADCHQAAAAB4AOEOAAAAADyAcAcAAAAAHkC4AwAAAAAPCKm0ONuop1MmX+BsoSmYt3J5XplKsopVUVKh0LAQhUaHKSIlSmFRYc6zvGHaqvbOljeEKkSpUbFKioxRdFiEQkNCVFpRruySQm0sylNZZYXzzKYRFhKqQalt1S+ltdrGJik2PErlleXaYr2+pTmbNHXTSq0pzHae7R3/7fuRhiStdVrBr6xMmjsvREuWhWrdulDlF0jFxSGKjJRiYirVqmWFOneqVM/uFYqLc74IDW7KzC6696kjnBbQcI4f/bsuPWmy0wp+2TnW9cBsacFSaeNmczyTfTxrmSb16CyNGCLFxTpPRqMKzVjgbDU+wl0ABXu4m3f7dBUsznVauya6bax63DRI4fERzp6GVVFSrpLMYm36bq0yf92o0k3Wka26ECmqVYwS+6coeXi6YtrGNdrrayjBHO7CrOCWFhWvnkkttXerLhqa1kE9rO2osHDnGVWVWSHvj8y1+nz1XH21er7WF+aoxNrXGOLCI3Vo2966uv9opUXHO3t9mSA6cc18PfjHt1qWt8XZG/y8EO4qKqQc67D24cfhevWNSCvQWQeEnUiIr9Thh5Xq5BNKldbCOoTs/EvqZOmyEJ1zUYwdLAOlZ49yvfBUkdMKLl4Pd+a3HBkVruioCOu9Fa0Bfdpp5NDO2mNwJ8XGRG19UjX/vP8jfTNpvtNqeCHWmzzavMboCKWlxGvowI72a+zfu60iItyPzfsedb+zFTy8Eu42bJJeeEt6+2OpoND/cSQ8vFKXnCmdfLSUnBj4Y5mbcuv0XGRdihVah6NN1unw1xnS99Y/uflYVu77AiIjK/W/Z6RunZwdHkG48wjCXeOGu9x5WVr73jLlL85RZVnt38bxvZPU44ZBTis4BXO465HYUq/vf5YSIqLsC4q6KCgr0dRNK3TXzC+1NG+zs7dhjEzvqBsHjrGDp+m5q40txQX6YPksO+Q1VgBtSF4Id198Faann4/U2nV1n4WQnlahk08s1UnHlSk0gJMYCHdVeTncRUSE6W8n76WhAzooLTVeycmxigjf+UiSxgx35nVdceFBat0qyd5OSoi23u87f8MT7hqfuVn1xgfSM69L6zfW/vjRplWlrv+7NGY/Z0cDycmT7nlMmr94awDNzLJec2XNr5NwF3jMuUPQqSyv0PoJK7XwnlnKm59dp2BnlOWVOVtoCpFhYUqMjK5zsDNiwyO1b0Y3fXTwBdqrZWdnb+ANTG2jR0Yer97JGbUOdoYZWnp295G6qt9ohdfh6xB45rbltz+E6c77onYp2BkbN4XqsfFR+vgz954LYGfCw0I1oE9b9e7RWulpCbUKdo0tLjbS7kXs3rmlUpJiaxXs0DSeelW685GQOgU7Y836EF19u/TZxK09aw3FDAv9daY0d2GINmeG7DTYoWHwF4ygYoLdytcXa827S5092B2ZIZw3DRzjtAKrU3yqxo86SSlWUNsVZr7gGd2G66xuI5w9aAqbt0jjn460LmTqf3Hx/EsR9jAjAGgqP0yWnnnNaeyCsrIQ3fGw9Ps8Zwc8i3CHoLLl5w3a9M0av711YTFhiukYr4S+KUoalKqE/imK7ZqgyLRoM9nLeRaaCzN0cWVepmZuXqUf1y3WN2sW6Nu1C+2hl2ZuXU2jxrsntdSR7fs5rcA5vetwpUW7V9NYlrtFD/z+jc778XVd+ss7em/ZLJWU+/YER4SG6byeo+x5hWgaS5aaoinuf/MhIZUatUeZbry2SA/fX6hbbyrS/vuWKiLC/f1mevC++LI5F2Wq1JCBwT8MeHdSVlau7JxCp9X8mGNvcUmZ8gu4q9EcbM6UbrzXzGPzPaaFhlZq+KBK/fPqSj37n0rdcW2lRgyutPdXl5UTovufkPW7dXY0EnNsjYv1fz5HYDHnLoC8Oueu739q3wMREh6iiKRIhYQGPkiV5pbqz+t/VXm++7DK5D3S1ea4TopIjlRoRKjpQjHXPFYQrLCrZ5ZsLtLGb9eocHm+et02xPmq4BTMc+5Mxcnn9zlNry+aqo9X/q5NxQUqLi+1i5KUW4cj884x4SgxIlpX9N1fJ3bx/7uauWmVTvzuBadVf8mRMfrhsP9TdLjvnNH1BTk6+utntLmkwNmztTjMcZ0G6c6hhzt7tjOH1tcWT9XtMz939gSfYJ5z98LL4XrmBfdiFfvvW6Z/3lxsV5XbxlTSfOV18zVmp+/xa8+RZfrPPYG50C21ftbmzSH20NHaMsUJzj4/xr77Xl1CQqWe+W+hOrQPztO5l+fcxURH6P7bjreLqOTmFWnmHys1edoSzZqzSh3aperum45xnllVY86562i9jmcePNMu+LJhU65+m7lMU6Yv1byFa3XUoQN12nEjnWdWxZy7xvPpROnaO8x5xffvf3A/6+/f+lXsWBWzxApv/3pIeu8z3+ebC6M7r5OOG+c0A8hU7Dz5EmnNuhC1SKnUXsNlPwb1k976UHr+Td/Xw5y7wKPnDjsVlR5d60dkSlSDBLvK8kqtfmuxe7CzflyrIzqo8yW9FZ0Rq7DocIWEhdpzusxrCY0Mswu8xHZMUIezeqjb1f2dL0RTWJyzSaM/e0wP//mdFudutpc7KCovs4OdYf7f9OhtKs7XrdM/07dr/R8gTe9dIB3TcaBrsDNB7VUrqO0Y7Azzmt9eOkN/ZvoGIPP+O6pDf7twDBrfps3upzfTa3f5JSVVgp0RHm5dhIwqV0yMs6OadesDd1wzxQczWlWqdUbtH4uXhLoGO6N3z3L7+6H5KSkt1wtv/KyzL39BR5zxuG6+5wN9/OVsrVi9RXn5zaNXbHNmvm5/4BOdeP5TOv7cJ3XfY5/ru5/ma92GHBUWlTrPQlP66Tf3YGfOmNdc5LvcgTm+HTvWafgIsULf1vlxgRYfJ912lTTh1Ur98J50383SkWOkDm3MjQ7nSWhwhDsEhaL1BcqZ7V5iPqZdnFof3bFWBTrMc4J9GYRgV1heqryy2p1VKqwT14sLpjgtX+UBXv9udOvuzlZVxRVl9nIM/vy2aYWzVVVCZLQOa9fHaaExmRLgbswFRquW7p9LiDfDh5xGNSb8NaWvvvb/Ak49qdQnrKJ5KC+v0LTZy7Vk+SZVVDTPAG5C5qQpi+wwh+bp97nORjVpKabnzmlU06ubs+Fi2aqtyxQEmjm+7jtC6tTeDBd1dqLRee6fPjc3V9OnT9dHH32kF154QePHj9ejjz6qJ598Uq+++qq++OILzZ07V8UNccsCDaZgSa7KclzuIIaFqNOFvRQazlHEq2q6HPo9c42zVX9miGXbuGSnVZW9oHqp//kxG4rynC1f+7Tq6jLIDw2tZw8T/H3fPaYwypZMp1GNWdTcDM90M7B/081pW74iRL9Nc5/zN2xImfVo2kX+ATSsNRucjWpapZub1k6jGtObl5jgfgbNzJZWrXMa8BzPXBHPmDFDRx99tFJTUzV8+HAdc8wxOu+883TppZfqiiuu0CWXXKKzzjpLhx12mPr166dWrVrpyiuv1Pr1653vAH/MkDS75+yPLfZC4XkLslW8qcje31hy/rCuxlx+XEz7OOuxdXFp83rMvLqcOdbrnLrRXv+uvJAiA8HukHa9nS1fryz6zdmqv/CQsBqXPaio4f1ebhYf8sMExugweosbW59eFXZPXHUVFSF68hn3bq4Zs0JVUHXkraNSJxzbdMPTHn48UsUlvldwpmDCGaeUcocc8LhCP/cWw3ZS5ynSz6nHDPGcNcdpwHOC+pRQUlKiF198UaNGjdKwYcPs3rry8nL7In/bw9g2XG/H/Tk5OXrkkUfUuXNnOxT+8ssv9nPga/bff9af1/2mRff/rqX//VML7pqpOVdP0exLf9b8O2do7QfLVLSu4K9/74aQv8h9uEisFe7yFmVr2VNz9ceVk/WH9boW/dt6nY/9qfm3z9Csiyfpzxt/0/IXF6hgWf0WaEfjiguP1GW999VJnQc7e6qatmmlvqlhPl5dlVSUqdR6uDGhz7wef0whFn/MnLsYl3l8aFjt2lbq8LHugWzCl+G6675I/TApTH/8GaqffgnTg49GaPzTZn6kb4g69qgy6/s5jUa2eEmIFTrdr+DatK5QD7uHEoCXud2oMkwPnD8l1uGvps/PXeRswHOCNtwVFhbqnHPOsR9TpkypMVjU9LmioiI7FO6111566KGH7HCIqvxVpyzPK1P+whytfX+55v1zurJnbFJFWeAvNMoLy1SyschpVZX9e6YW3DHTXiKhNLPE3GCvymoXrSnQ5m/XWkHUet6UDQ3yGrHrDmzdw14TzjzO6T5Sl/fZV+NHnaDJR1yty/rup/DQqhe2FZUVWpOfpZumfuzsCQzz1llb4H4Twayr1zY2yWn5qmnJA9NrFxnKItiNzcyRu+ySUh19hO8SB6b37tPPI3TDP6J1wd9jdO1N0Xr3/UgVF1cNdmbe3qCBZbrkgkauG76DH38KsyvfuTlyXJmSEp0GAM9KT3U2qlm9dusyCW7M52pa53MtA9c8KyjDXXZ2tg4//HC98cYbzp7AuOWWW3Tvvfc6LdRFRWG5ljw+V2veWxbw8GSGWvpTllX7i67K0gote3KuNn4duHlaqL+TugzRzYPG2I8bBh6sS/vsp4Pa9rID1Y7MsMhFORt158wvddTXz2hp3mbnM4HzxWr3Weum5868TrfTZP+UNhrZsrPT8mWWdQivYbgnGtb/XVqiB+8r0j57+ZlM58IMdxw0oEx33lakR/9TrNhdW8++3oqsQ9/7H5leX993XquWFTru6Nr/NwEIXkMGOBvVVFSG6JFnzQ0rZ8cOvvrR2fAji/o5nhWUVxxPPfWUvv3224APAzS9gf/4xz80ceJEZw/qpLxSGz5fpZxZgb3oLssL4AWMdQBc8/YS5c7PcnYgWBSVl2r6plX2guf5ZQ3Tk/LJyjnKLXW/mTA0rYP+PfxodYhLsYdhpkbFao/0jnp271NqHHYZGhJSq0quaBhmZZaW6ZVq27rCbwXN6uLirNDer0IdO5iFgJ2djcyc3t58N8JeQN1XpcaNLfW7bAMAbxk1xBzL3I9fH30pvfuJtG6jFdiypfXWx0++kp54yXmCH9QV9K6gW8Tc9Nr16NFDmzZt2uVwZy60avpaU3Tlk0+sv5Q68tIi5pHpUUronaKYTvH22nVmUfDSrBIrFGUr69cNqij23zsXFhuuPvcMtxcTD4Ts37do8X9+d1p+WNc/LfbJUGL/VHshdVP0ZdPEtdbrdB9mG90mVj1vHaywmOAcLhfMi5hX9/ReJ2t/P0sQuCmwgt2UDcvsNfDWFwV+HuWVfffXRb32dg1k5riRWVJor81nevNaRse7rou3o8ziAh33zXNalR98NxSCeRFzw1S+fOixSH01MVx5+XUP2ImJldp7VJmuvKzEDnyNyVT0POfCGG3Y6Bvu4uMrNf7hQnXrGlSnb7+a8yLm995yrL0QeW189/MCvf/ZDKe1c4P6tdejd53stKpqzEXMa3LmiSN13mn7OK2qWMS88eTmSUecZQW3Te7HMbN+Z3oLKTZGKiySNmwy56uaj3nt21Tqy8AOgKvR4y9Y55QXfV8Ti5gHXtD13N1///3auHGjTziLs868gwcP1lFHHWVXwTTPe+aZZ/TKK6/o9ddf10svvWQvi3DHHXfoggsu0JgxY9S9e3eFuyxe9PXXX2v16tVOa/dhAk/Lse3U819D1PffI9Tx3J5qeWBbJQ9Js0OTCU+dzuupnv8corie/ucflReU2dUqAyUkbCcXZda7uMPfeqjjOT2VMjxdyYPT1O6krup2TX+FRrsXIijeWKTCVflOC8EkNjxSB7TpoQdHHKvoakM3A+G1xdO0KMc6M7owgc/02HVOaKEO8Sk7DXZGWWVFjdU00TBM1ctb/hVlD2v0DXaVymhVoaGDy7SXFd6GDSlX6wzf31FOTog++yJCDzwS6XeJhIYyc1aYNm9xP/YNH1qmLp29Eeyau/6922pw/w61erRr7b6UClBfpqDK+Huk1GT3v3sT5DZYwW/ZyhCt32g6MHZy3WTxV6QFwS+owl2ZdXY1Ia26PfbYQ99//72++uorvfvuu3rggQd09dVX69xzz9Vpp52mk08+WWeccYYuuugi3XzzzXbI+/DDD/Xdd9/Za+GlpKQ432krU4Xz+eefd1q7j/andVPbk7oorlOCQsxYJj9i2sSpy8W97WUI/DHLEATKznrXIpIilTLSt6BFXLdEJfSv+rvdxsy/K1jhf20yNJ47Zn6uI7962n4c+/WzOvP7V/SvGRP0/dpFKq2hwNGwtPa6acAYpxU4G4pyde6k1zQ/KzCzzc1w0pIKCjU1NlMJ01TBdDNqRLkef6hI/7m3WPfdWaz/3FOk8Y8U6bBDTHVN34unLyeG68OPG7eX/70Pw12LIZihpZdeVMLyB8Bupk8P6dYrrQv30MDc2Gntvw4YglxQnR7MmnRZWVWHNqWnp+vNN9/UkCFD7DXuwna26IfF3H2PiopS69at7fD32muvKaba5IXaDss0z3viiSfsx5b57nf7g4UJUW5D0dyEJ0cqeXia0/JVssl/EZS6ikiteXhn8vB0hUX6/t5NQG2xp/+jV8mGwL1G7LqV+Vmal73efvyRtVaTNy7Ta4un6vyf3tCJ3z6vXzcu9+mpN8x79eSuQ2usYrmr1hXmWj//Tb27dIY21rBAuXld6wpy9Oz8n7Uyz71kWV5psQqtgIfGY+4JvPRahGs46tKpXPdaga5N60pFWYcWE5IirY+tWlbqovNLlJ7m+14z1TVffStCeY10P2j6zFDr4X4u22/vMrXOcBoAdiuH7C998Jx1HBhVqchqVYCr6965Uv+8ygzXdH9ez67OBjwnqMKdmW+3bamCbSHEhLOOHTva27tq//33V4sWLZzWVvPn126s+4gRIzRu3Dj7Ed9296lJbf79YzslOC1fgVw8PCIxUmGx/kN7TFv/peyiMvz3LpblNF15c9TOnKx1uu63D2qcW9cnuWGudNcV5uimaZ9o7BfjdfWU9/XNmgValZ9p98RtsMLfD+sW6ZpfP9DYL5/Qf+f+qHZx7kOyzHPNPEE0niXLQrR8hfvpbeQe5Yrw0wnXIlUaPsz92GWGaK5ZW7ubX/VRWmoF01fcK2QahxxELzCwO+veRXr8TumLN6RrL6nUwD6VapGyNey1blmpI8dU6tXHKvX2U9Ixh0lbXKd7V2rYQGcTnhNU4c4My6yubdu2te5t8sf04pmeO/N9tn0vUzmzNkzPYYcOHexHZHxgCogEi5qGbrqMbNpl5ncS07GGweE1vI4aK9DvbC4fmoUNhXl275g/qVENW+kip7RYH6/8Qxf9/JZGT3hcA96/V3t/+rDOm/SGvd9U7uyV1MrvceiHdYudLTSWVavMH7777yPFugjyx/wK27dznx9pQteuFGWpq2XLQ7RgkfvNrLQWFRo8iHDXmD78fKbe+WhqrR4z56xyvgpoWKZcREa6dM5J0ptPSJM+kGZ9LX3zjnTfzdLQAVJ0lPTOx+5r3SUnSu1aOw14TlCFu8jISJ8LqMmT61/1yAz1zMvLs4dYbRv+lZzMxOidMYuD++OvkMmuSujjPnfOKK5heGXJFv+1fiNTrSMfmj3rr1LlLsMyt4loBpOPDm7b09mqqqyiXO8vn+200FiKa+goLSurOaAVFbl/3rwFa5gCGjCffRGu7Bz313DNFY1ftXN39/QrP+qx576t1ePHyQudrwKaXr51iXa/FfzctM3wvzA6gl9Qhbu0tLS/5tRtC2FmzpspjFIfpqqmWVphR0OHDnW2vK+yrEIbJ65WwfKtAbc2ygvLlPmb/4qYUWnuwalwZb6mn/W962Pt+8ucZ/lK6JXsNzBmTdvod+H0zMkbnK1qrGun2A6UimpsUaHhigytW/A3PXMZMf6HAOeWugf4A1p314Lj/+HzmHfcLTqkbS/nWfW3b6uuOr7TYKdV1XvLZimvjMWEGltqDb1z8xb4P+2Z3rkpv7q/P82pJ8rlsLZgUYj2HxOrPQ+I83ncfX/dRnOsXReijz51r8Das0e59tmLXju4i4+L0utPnqcfPrzW5/Hpa5c5z8Lu5IW3zI0u9xtFxx4mRUc7jWpKrOPguVdLvfcL8Xnsd7zzJDRrQRfu2rVr57S2Ki4u1tixY/Xoo49q8+bN9nDKUusMbebm7dgTZz5WVFTY+001zIKCAq1YsUKnnHKKbrjhBvtrdnT00Uc7W95n/okyp2zUvH9O18pXF6kkq9gOS/6CXnlJuVa+tkj5C/0PlYvtEtj5hzEd4hTpJzCWrC9S3vxsn9dbtK5AWVPdi9yEWUExqo3/uXpoGH1TMvTu6HM1qmUnxYRF2At818QsdXDDgIPU1s98NiPQ68clRUTrtC7D7I/hNYzrNevc7dWys8bveaISI33PkjklRXp7We3XvELgdO9aIbPukxtTQXP+whDrfODscJjDx8zZoVqyzP13boqvJCe5f89AMD/fVMgsLHT/mzhw/zJ72CiCT2hoiMLDQn0eYTVMDQhzeb79NTVNh6gHt59lHmE1jIxwe7557Oy4jl1jFief+KOZNuR/FIE5jpjFyZ94WRrvZxHzdq0rddKRTiPAzM83M6jMJXX1h9+RD7vyNahR0C1i/vLLL+vss892WlUlJSXZxVVatmypxMREex7dtnXszH/mtlBnhmGuXbtWy5cvt/dVZ4qrLFmyRAkJ/nsL3ATrIuYVpRVadP9sOyAZIZGhiu0Ur5h2cXbRFLMYeWhUmMpyS1WwLFfZM7eoqIY14kJjwtTn3uGKTPYNY6bnbu4tU51WVa2P7qjWx/hfxTJ79mYtfvAP+0BQXURKpFrs3UpxPZIUYp1czOvc8tN6Fa12HzpqKn12vri3/dxgFKyLmA9p0U5vHvA3VVRWaG1BjuZnb9CinI1aaD22FBfYhUeirECXEZOogaltrBDYWZ0SqhY72tHagmwd8sV4FZX7zsc1PXdP7eW7QHCFdSz4v8nv6ovV85w9VbWMTtCXh15iF05ZYL2+uVlbK3luKMpTcVmpHeR6JrXSsLQOGprW3l53z42poPnAH9+q3PpvDVbBvIj5VddHafKv7pVTYmMqdejBpRo6tMIObNnZIZo2I1QTvw1XVrb7MaF713I9M77Irqy5I9Nzd8ElMSop9b2gPfywUt10be2K6ZhFii/4e4xrIZiwsEq9/WqBZ6tkNudFzAPh/NP30YA+bZ3WdnFxUerWyb2i8/KVm5WV43v+Wrhkgx599huntZ3puXv6gTOsC3ffKQy5eUUad9pjTstXVFS47rz+KEW7LNbeKj1RGS3dKxLPmrPS2arqw89n6esf5jqt5iVYFzE3lq2QDjtTatNK6tFV6t1N6tLRrH23db7w5kxpznzr72mGNHehue71PSaZY99/brXOj3s6O1yYnruLb5B+nur79S3TK/X9u07DRVGRdPvD0gqXpaLXrLPO2Rt8v6e5Ede7uxTj0pN4knVYOCLwKx41iqZcxDzowp0xYMAAzZkzxw5sDeHCCy+0lzaoK6+Eu/oIiQhVp4t6KWVYurOnqvqEO2PFiwu06dv6XWxGpkWr1x1DFB678wWom6tgD3eBUGgFrTO/f1mzMtc4e6qqb7jzF9p2xhyXTCVNs5RCsAvmcDdjZqiuvD5aJX6GJdVFRHil/n13kUYM9w3qgQp3P/4UqutvMVc31b9PpU4+oVSXX2JdcXmU18PdXTcerX1GWlevATDj9xX6v1veclrb1SfcxcZE6n/PX6S42MDMQ3/ype/1+nu/Oq3mJdjD3dgzdv14Fh5WqTOPl66+yPQmOztd1CfcmXl+p18mzbOOi4Fw5QWVuuA0pxFkmjLcBWW3xW233dZgwS4uLk7XXHON00JdZRzdQcmD/fe01Feb4zoptsuuz5ULiQyxw2cwBzts9cic7/wGu6b066blumHqR04LTaVf3wodfYRvj+6uOPH4Uu0xrOF6YM0AkocfNxfWvhdEycmVOv0U7wY7AA0vNKRSF51pwlLNwQ7eEJS/4mOPPVbXXnutz8Lj9WWWNfjiiy/UtetutrKjdT0RnhSpkHosDWB6wzqe31OtD+/YoEMdwxMi1eOmQUoZkW6OVs7e2oluG6ueNw9WfPfAL3qNxmFu6izN3awrJv9Pzy9sXndfzWLlLy2cojO/f0Wbi/1XkkXjiIiQrri0xApGJUpM2LVglhBfqSMOK9V5Z5c22Hw3c5/yux/CtHad+3FzyKByJe0+S6gCCDCz9t11l8gOd85MJXhcUIY7sxzCPffco8cff/yv6pn11blzZ3388ccaNWqUs2f3YUJdh7O6q8c/Bit9TFtFtvRTQslFRFqUOpzbQz1uGaTUvVo5extWaESYOp7XU91vHKDYrjufF2kKsXSwnt/jxkE1LryOhmfm2N0+Y4Kmb1qp0oraz5Q2QymnbVqhK6a8p1O+e1GfrfrT+Uzg5ZQW6rn5v9S6UEtJeZneWDxNx0x8VvfO/tptSiia0IXnlurZJ4p00vElVuCr3W8nOqpSh48t1fhHCnXDNSWuVTIDxRQMmPCl/yuuI8aV2ZU6Aeze0lpIRx9aaR+faiO9RaWuvajSXgfvrBOlIC0xgF0QlHPudrR06VLdfffddo/bmjVr7IqYtWWKrfTq1cvuCTRDMePj61caP1jn3FVXWVGp4o2F9jp2Zg25UlM9s6hclWWV9nIEYbHhirICYGzHBEW3ia15MfMGZt6+5nXmLcxW8fpCleeXmSkqCosJt0OdCXOxXRIUGu6to1qwzrnbkZnT1jOxpTolpKp1TKKSo2IVHRah8JAQlVjBzyxxsKEwVyvyM/VH5lptLvZfxKchmHd1+7hk9U7OsD6mKC063nrNEQq1PlNQXmq9NlMQZqOmWqGz0Gp7UTDPuXNj1r+bPz9Ui5aEasMG6/dYGGIXADDhKS6uUulplerSuUK9elSojvW0UA9en3OH5iOY59xtY24IzVssLbAeazdImVlSUbHp+DBzL7euYdenp/XovrXKL5oGBVXqySxjYJZBmDJlit566y19/fXXPuvWbWN6/bp06aJx48bp5JNPVs+ePe0qm6EBGITslXCH5s8L4Q7Nn9fCHZonwh0aixfCHYID4a4BZGZmauPGjcrPz1dZWZkiIyPt5RHMMgmmaEpDINyhsRDu0BgId2gMhDs0FsIdGgvVMhtASkqKevToocGDB2v48OEaOHCgPa+uoYIdAAAAADQlplcCAAAAgAcQ7gAAAADAAwh3AAAAAOABhDsAAAAA8ADCHQAAAAB4AOEOAAAAADyAcAcAAAAAHkC4AwAAAAAPINwBAAAAgAcQ7gAAAADAAwh3AAAAAOABhDsAAAAA8ADCHQAAAAB4AOEOAAAAADyAcAcAAAAAHkC4AwAAAAAPINwBAAAAgAcQ7gAAAADAAwh3AAAAAOABhDsAAAAA8ADCHQAAAAB4AOEOAAAAADyAcAcAAAAAHkC4AwAAAAAPINwBAAAAgAcQ7gAAAADAAwh3AAAAAOABhDsAAAAA8ADCHQAAAAB4AOEOAAAAADyAcAcAAAAAHkC4AwAAAAAPINwBAAAAgAcQ7gAAAADAAwh3AAAAAOABhDsAAAAA8ADCHQAAAAB4AOEOAAAAADyAcAcAAAAAHkC4AwAAAAAPINwBAAAAgAcQ7gAAAADAAwh3AAAAAOABhDsAAAAA8ADCHQAAAAB4AOEOAAAAADyAcAcAAAAAHkC4AwAAAAAPINwBAAAAgAcQ7gAAAADAAwh3AAAAAOABhDsAAAAA8ADCHQAAAAB4AOEOAAAAADyAcAcAAAAAHkC4AwAAAAAPINwBAAAAgAcQ7gAAAADAAwh3AAAAAOABhDsAAAAA8ADCHQAAAAB4AOEOAAAAADyAcAcAAAAAHkC4AwAAAAAPINwBAAAAgAcQ7gAAAADAAwh3AAAAAOABhDsAAAAA8ADCHQAAAAB4AOEOAAAAADyAcAcAAAAAHkC4AwAAAAAPINwBAAAAgAcQ7gAAAADAAwh3AAAAAOABhDsAAAAA8ADCHQAAAAB4QEilxdkGGlVZWZkuvvhiPf7444qKinL2AoFXWlqqE044Qe+8844iIiKcvUDgPfXUUzrjjDMUGxvr7AECr6KiQg8//LAuueQSRUdHO3uBwJs6dar9cdiwYfZHNH/03KHJmPsKX375pX2SAhqSeY99+OGHvNfQ4GbNmmXfuAIa2rRp03ivocGtX7/efiB4EO4AAAAAwAPC/mlxtoFGFxISopEjRyosLMzZAzSM0NBQ7b///vZHoKGYEQk9evRQeHi4swdoOH369OH8iQbXokUL+4HgwJw7AAAAAPAAbmEDAAAAgAfQcwfAc3JycrR69Wpt2LBBBQUFKi8vV0xMjBISEtSxY0e1bNnSHhIM1Fd2draWLVumzMxM5efn28MxExMT1bZtW3Xo0MF5FgAEF3MOXbJkiX0+NdMZ0tPT1atXL8XHxzvPQHNFuEOT2rRpk/Ly8pyWr9atW7NMAnbKXFj/8MMPdkXMSZMmaeHChc5n3Jn31fHHH69zzjlHPXv2tEuJE/ZQE3OqNOHNvNcmT56szz77TBMnTtTKlSudZ/gy77PTTjvNXvKlffv2LMOBOikpKbFvTpnH4sWL9cUXX+jrr7/2WyXziCOO0EcffeS0gLozxzfzHnrooYfsyr/VmZA3duxY/eMf/1D//v1Z8qWZItyhyZhgN3r0aP3+++/OHl+//fYba6tgp2688Ubde++9Tqv2zI2Dvffe2z6RmRMV4E9ubq5OPfVU/fjjj3ZvXV2YO93jxo3TfffdZ/ccA7Vx9tlna8qUKVq7dm2t3nOEO+wqEwVee+013XHHHVqwYIGz1z8T8g488EA98cQT6tq1q7MXzQVz7tBkXnrpJf3xxx9OC9h1ZpHyXVFcXGz3vpgqmuYuJfe64I/pKTEXPXUNdoYZnfDWW2/pyCOPrLGnD9iRWTx63rx5u/SeA2rLnPcefPBB+2ZCbYKdYdaM/eqrr9SvXz/9/PPPzl40F4Q7NIkZM2botttu42IazcKWLVt01VVXqaioyNkDBN7s2bPtYZpmDigANAdvv/22brnlll06Lplz5hlnnGGPbEDzQbhDo8vKytLll19uz18BAiUyMtKe7H3ooYfaQe3pp5/WO++8o/fee0+PP/64TjzxRLVp08Z5tq/p06fbIQ+ojaSkJI0aNUqXXnqpXnjhBb3//vt6/vnn7aGbaWlpzrN8mWGdn3zyidMCasfM1zTzNvfYYw+7IBQQCKtWrdIVV1zhemMzOTnZPr69/vrr9rHNjDxwW7/TFF0x89fNSBg0D8y5Q6N77LHH7IOJ6dbfGebcoTbMPBNTndCM/Tfzm9xOQOZQN3/+fA0dOtQuUODml19+sRfVB6ozhQbMe2Pp0qW64IILdO2119oX2dWL8Zi738uXL7fnE5uPbi666CL997//ZUF91GjMmDH2DamDDz5Ye+21l31sM1V/zzzzTPumVXXMuUNdmeux//u///MZRWVuJpjCUYMGDfrrOGUK/Fx33XV65JFH7PaO4uLiNGHCBO2zzz7OHjQlzixoVGYOgSl+sWOwy8jI4CIH9WLuKJrQZu40ugU7w1yAm549M7fAn/Xr1ztbQFXmfXXKKafYFzzmgsgURjEX2tWrrIaFhalz5866/vrrnT2+TOhzq3YI7OjLL7/Uiy++aA/l7dSpk90jbC6iqeyLQDA3osxNJrc+nrPOOktDhgypcm1mRseYolDdunVz9mxnRmJ98MEHTgtNjStqNBrT7W/udlcfjmlK6poLIqAxDBw40Nny1apVK2cLqMr0mtx66632Bc/OLq7N54855hin5csUyKjNyAUAaCjmRpUZzVKduR474IADnFZVpsK0qfzrxixFhOaBcIdGY8rs/vTTT05ra7f/s88+qwEDBjh7gIZn5uG5MUPsTI8L4MYEtrqMMDALmftj1oai9wVAU/I3hNdcm7n1zm3j7wapWYvRDFtH0yPcocGZLn+z5MH5559fpWS9WV/MDDcBGpoZfmJ6jk05en/DMs1yCC1atHBaQP3UdJFjhnSyoDmApmKuy3a82b4j03Nnpsv4Y26E+httxbIIzQPhDg3OBLobbrihyrhuM8Tp/vvvt4sRAIFkqn/dfPPN9uOmm27SNddco3PPPdceZmIKEVRnelBMwYIHHnjA73w9oC7Msc6MVPDHvN+YZwygqRQWFmrz5s1OqypzbDLVgP0xoxL8Hb/+/PNPZwtNibMLGpS5yDHjsD/99FNnz9a7QmZSrimAAQTa2rVrdffdd9uPe+65xw5tZsF8M7/AVPvaxoQ6M8fu9ttvt9+j7dq1cz4D1M/q1avtQhhuevfureOOO85pAUDjM+Fux/PhjkxwM8Wi/DHz7vyFu5UrVzpbaEqEOzSo33//3V7/ZEcMx0RzYG4ymHXKDjvsMHqQETAzZ860e4nNTYbqWrdurXfffZceYgBNylTrrWnR8pqGjdd0/MrJyXG20JQId2gwptfu3//+t/Ly8pw9W4djmjLiNXX5A43BnNxM6WazfpTp4WNRfdSHOd6ZxXxPPvlkLVq0yNm7nSmictddd9k9dwDQlMzxyjx2RU3FoGoKjGg8hDs0mFdeeaVKZULTjW8ubvr37+/sAZqeKbRi5uddfvnlfoepADvzxRdf2Iucu5UWT0hI0KuvvmqvHUWVTABNzYxc8Te00qgppNX0OXMTC02PcIcGMXfuXLuIxY4Xy4MGDdIZZ5zhtICGMXz48L/uSpqTUG5urj3J2yy7MXbsWL8nNFMAw8zLA+rCHONMFVazwPnGjRudvdulp6fbCwUfddRRNV5MAUBjMfPm/A29NOdOc9PTn+LiYr+9fqwV2zxwpkGDuPfee+1hb9uY4Zj/+9//lJKS4uwBGp65mDbvPTMUztxseP/99+3iKm69J+aEZRbUB+rikUcesW9aZWVlOXu2S0tL03vvvafTTz+dYAeg2YiLi/Pby1ZRUVFlOk11ZgqDeY6bmtbHQ+PhbIMGsWzZMmdrK1NE5ZdfftEbb7zh8/j666/9HijMUKcdnwvUh7lbefzxx/ut1GrW/anppAZsYwoHmJsBZpmXHdfv3MYMP58wYYJ97GMoJoDmxAzL7Nu3r9Oqyox4cRuFsE1mZqbfoZlUQW8eQir99a0C9bDffvvphx9+cFpb+bvA2dlbcMev8xcCgdoyJyUT8EwxFTemGEbXrl2dFuDLHLNOOukku/Kl2/GrS5cu9vGvbdu2zh4gcMzxy4yEqe6II47QRx995LSAmpm6CG5rv5rhmub8aCpJu7nzzjtdR7mY3sDs7Gy/C5yj8dBzh0ZjLoLcHjtTl+cCO2OGC9d0VzIyMtLZAnytWbPGnrtpikW5HZPMEMzp06cT7AA0a+ZmgFvlcjMSYerUqU7L11dffeVsVXXIIYcQ7JoJwh2AoPbcc8/ZF9y1ZdZenDJlitOqygzb5KIc/mzatEn77ruvPVzcjSmqYhYvZ6kXAM1dcnKyjjvuOKdVlTmOud28+vbbb31GZRkm1Pn7Xmh8DMtEg3AblhkIvF1RnRmi9OGHH2rPPfe016wbMWKE+vXrZ4e0bYuTmzkCs2fPtguqPP300yosLLT3V/f3v/9djz/+uNMCtjNz7A466CD99ttvzp6qWrZsaYe72jAXVTfeeKN9MwHw580337RvRlVnivTMmzfPaW1nilmceOKJTmu7nj17ug6/A0wtBHNcKygocPZsZ/abNWAHDx5sVwU2Q36vvPJKrV271nnGdua9N2nSJKplNhOEOzQ5c0AYPXq0a1ECcyE1bNgwpwX48jf/xIiJibHn2NVm/boWLVpoxowZat++vbMH2M702g0ZMkQrV6509uw6c+PBXJybSq6AP2ZBfLPMRn2NGzdOn3zyidMCtjN1DEy139dff93Z48v0ypmo4K/mgZnKYIpHmes4NA8MywTgWaaHrjbBzhTtufXWW9WmTRtnDwAA3maWaHniiSd08MEHO3t8mRukNRWzu+mmmwh2zQzhDsBurUOHDnr55Zd1+eWXMxkcALBbSUxMtM+BZjpNXQqKma+79tprdcsttzh70FwQ7gAEtfPOO08nnHCCfaKpiz59+mj8+PH68ccfdeqppzp7AQDYvWRkZOjzzz/Xq6++ap8ba2KWSjjmmGPsNYrvu+8+boo2Q8y5Q5Mz8+rMxbXbnDszgXfAgAFOC/DPDL80RVOmTZumhQsX2nOjTBGMoqIiu3CFKWLRrl07e+FWU/GQtexQF2b9pgsuuEDr16939uy69PR0+065mRMKAM2JGYI5efJkuyrw3Llz7YJkZvhm69at7UXKzZIH3bt397t2MZoe4Q5NzlyUb9myxWlVZYpcmLtEAAAAAGpGuAMAAAAAD2DOHQAAAAB4AOEOAAAAADyAcAcAAAAAHkC4AwAAAAAPINwBAAAAgAcQ7gAAAADAAwh3AAAAAOABhDsAAAAA8ADCHQAAAAB4AOEOAAAAADyAcAcAAAAAHkC4AwAAAAAPINwBAAAAgAcQ7gAAAADAAwh3AAAAAOABhDsAAAAA8ICQSouzDQAAXEybNk2PP/643E6ZF154oUaNGuW0fP33v//Vb7/95rS2i4mJ0f3336/4+HhnDwAA9UO4AwBgJ3JycnTQQQe5hrSUlBT9+eefysjIcPZsZU6vkyZN0r777uvsqeryyy/XI4884rQAAKg/hmUCALATCQkJevLJJ5WYmOjs2S4zM1PXX3+909puw4YNuuyyy5xWVf369dM//vEPpwUAQGAQ7gAA2ImQkBANGTJEL730kqKjo52927322mv65JNP/hq2WVpaqltuuUWzZs2y2ztq3769JkyYoLS0NGcPAACBQbgDAKCWxo4dq+OPP95pbVdeXq7TTjtN8+bNswPeq6++queff975bFX/+te/1KZNG6cFAEDgMOcOAIA6yM3N1f7776/p06c7e7Y7+eST7SIp5vOLFy929m4VGhqq8847zx7eaXoCAQAINMIdAAB1ZAqrHHbYYdq0aZOzZysT4Eyv3KpVq5w92w0bNkwTJ050nbcHAEAgMCwTAIA6MkHttttuU3h4uLNnq4qKCtdgl5qaalfGJNgBABoS4Q4AgDoywyovueQSnX/++c4e/0wAfPnll2tcCw8AgEAg3AEAsAvMEMybbrpJ3bt3d/a4O+uss+w18phnBwBoaIQ7AAB2Ubt27XTIIYc4LXfjxo1TVFSU0wIAoOFQUAUAgF300Ucf2UsjmHXt/OnQoYO+++47de7c2dkDAEDDINwBALALTKXMQYMGafXq1c4e/8zSCJ999pliYmKcPQAABB7DMgEAqKMtW7bohBNOqFWwM0zP3fXXX6+ysjJnDwAAgUe4AwCgDsyAl6efflo//PCDs2e7Fi1a6NZbb/VZIsF4/vnnNXnyZKcFAEDgEe4AAKiDDz74QLfffru9pl11d911l2655RYdccQRzp7t8vPzdeyxx2rBggXOHgAAAos5dwAA1NKyZct0wAEH2B+rGzNmjF1gxVTGXLp0qfbZZx/XYZsm+L399tuKjo529gAAEBj03AEAUAvl5eX2wuVuwa5bt252YNu25IGpjGmGYcbGxtrtHU2YMEH33nuv0wIAIHAIdwAA7IQphGLm0plgVp1ZnNwM00xKSnL2bGUqZJ5//vlOazvzvf71r3/p008/dfYAABAYDMsEAGAnpk2bZg+zLCwsdPZsZ6pg3n333QoN9b1fWlJSoj333NP++uq6dOmi+fPnuxZfAQBgVxDuAACogTlNPvzww1q+fLmzZ7uEhATdfPPNNc6fmzNnjp577jnXAiyHHHKIxo4d67QAAKgfwh0AAAAAeABz7gAAAADAAwh3AAAAAOABhDsAAAAA8ADCHQAAAAB4AOEOAAAAADyAcAcAAAAAHkC4AwAAAAAPINwBAAAAgAcQ7gAAAADAAwh3AAAAAOABhDsAAAAA8ADCHQAAAAB4AOEOAAAAAIKe9P+CQLNVvFDQOAAAAABJRU5ErkJggg==;" vertex="1" parent="1">
          <mxGeometry x="360" y="170.97" width="150" height="109.4" as="geometry" />
        </mxCell>
        <mxCell id="MvdJouwT5eNI-UK8mvhW-26" value="" style="shape=image;verticalLabelPosition=bottom;labelBackgroundColor=default;verticalAlign=top;aspect=fixed;imageAspect=0;image=data:image/png,iVBORw0KGgoAAAANSUhEUgAAALQAAAJTCAYAAAChEzwhAAAAAXNSR0IArs4c6QAAAARnQU1BAACxjwv8YQUAAAAJcEhZcwAADsMAAA7DAcdvqGQAAELJSURBVHhe7Z0HYJRF08cHUHpXpPcO0qQqIIioKChYAKUJKOgHVpoVFAQsgICKVBFQivQOoUlvgtJ7EXyp0kRABITv/nt78OTJc5dLyG72nmd+vqO3l0DeJP+bm52dnUlywwcxjEtIKv/LMK6ABc24ChY04ypY0IyrYEEzroIFzbgKFjTjKljQjKtgQTOuggXNuAoWNOMqWNCMq2BBM66CBc24ChY04ypY0IyrYEEzroIFzbgK5Vewblw/4/vXJblSTQpKkiyLfMx4EeWCvv7XO0T/TJMrxSSvREkz/ygXjBfREnLc0PQPwygXtFVwOv5hvA1vChlXoVzQ130h+n83rmux6z5jvI2rPDQHHIyWGPq6JuMYmuEYmnEVmjy0rn/YQ3sd9tCMq9DgoX12w+enNRjDqBe0T2hIpmkxFrXn0RJy+Pynln8YRk/Ioc3wb8bLaBC0zn8Yr6PFQzvGu4qM8TaaQg49//i/GuNlNIUcAWGrN8bbKBc0w+hES8jx3w2UkKo3zkMz7KEZV6Fc0E6ZCJXGeBv20Iyr0OChffGtJuPyUYY9NOMq1Ava5zSRfNBi8ksy3kW5oCEyp82bCmNBM1oErdMYb8OCZlyFy0KOJL5/M15Gg6CTaDTG6yhvp3v8zFv096WJcqWWVCnup1xZpshVeFy5coU2bNhAy5cvp507d9KZM2fo0qVLlCpVKsqcOTMVKVKEHnjgAapWrRolT55c/inGVJQL+tjpt+i8RkHnuSc8QePbPnnyJDVu3JiWLVsmnw1OxYoV6aeffqJ8+fJRkiQc2piK8pDDVH755ReqVKlSDDHfc889VLx4ccqWLZt8xg8+v0qVKrRo0SL5DGMiygWNzdp/vvhWh133WThcuHBBeObDhw+LNTxuzZo1acuWLXTixAnasWMHHTt2jPbt20dPP/003XHHHeLz4NEbNWpEp06dEmvGPDzpoQcNGkS///67XBG99dZbNHv2bCpVqpR8xk/BggVpwoQJ1LdvX0qWLJl47ty5c/T111+LkIUxDw0e2tmbqrBwPPTVq1ejhQ158+alt99+m9KkSSOfiQ42gs2bN6fChQvLZ4jWrl1Lly9flivGJDznoSHo8+fPyxVRnjx5KFOmTHLlTMaMGSlXrlxyRXT27Fnx9zDmoVzQyA9fv6HL5BeNBWuW4s4777wZTgQjadKklDp1arnyrxkz8dxvJkWKFHT33XfLFdHp06fp4sWLcuUMwgtsEgMgA5IyZUq5YkxCg4eOfjyt0vBuEBvwxg0bNpQroj179tCaNWvkypmtW7eKjEeAunXr8iGLoWgRdPTjaZUWHs2aNaP69euLx//8849IxS1YsMAxc7F582aqV6+eiJtBrVq1qFWrVuIxYx7KTwoPnu5Ipy9Oliu1pE1eiQpkHitX/gxFMBBqIF03btw4un79ughFcLxdsmRJypAhA/3999+0a9cuWrFihQhJ4NmRux44cGC0kIUxC+WCPnC6kzZBb1xzmf7v+RNy5XtnCONbW7VqlUjb4SQwGFWrVhW56zJlyshnGFNRL+hTnehPTYI+dzIHbf65gVwRdenSRT6KCb5tiHnw4MHCC//xxx/yIzFJly6dEHXLli3p2WefvXlyyJiHckHv9wn61MW4VcDFl3QpKlOJbBPkKjgIMWbMmEFNmzYVMTRADUeDBg2oTp06lDNnTnHMjQOY6dOniyNy/JiQruvevTu98847It3HmIcnBT158mRq0aLFTTE3adKEevfuLQ5ZrDlq/Gj+/PNPGjBgAH3++efihYCP4ygc8Tfno81D+W/EtKNv1DpDkAExly5dmvr37y+OwO1loVjDc7///vui0g5A5MOHD7+Z9WDMwnMuBgX827ZtkysSOeksWbLIlTNp06al9u3by5U/d43cNGMeejz0jaRa7HoY387evXujnQwiVWf3zE7Url1bPvLH4KtXr5YrxiQ856FR/mklffr08lFokJu2gjw1Yx7KBY0TPHhOPRa7p7XfRDly5Ih8FJrAZYAA2bNnl48Yk/Cch0YZqLVybt68eWEdwEyZEj1TU7lyZfmIMQlNHtpfPKTawsk/InTATZQAuKmCeo1Q4NBlxIgRckXiomz+/PnlijEJDYL2i1qXxQZiZhQjBYBYsTFct26dfCY6Bw4cEG0M9u/fL58hUazE9RxmovxgZfuf79GxC9PkSi2ZUlai8tnHyFVwcEn29ddfp9GjR98MN1CchFYFhQoVEkfdyFdDxKjxsGZFHnroIRo/fjxlzZpVPsOYhHJBbxOCni5XasmUsiJVCEPQAIJ9+eWXxalhONepUL8BT42j8NiubDGJh4ZNoc4YOvaQIwA2hj/88AMtXLiQOnbsSOXKlYtxFQtH2+jR0bZtW5o1axbNnz+fxWw4yj301j/fp6MaPXSl7KPlKu5cu3ZNFCXhWBubR5wgIhRhIgfPpe1CgbAiR44cosgf6T0Wc+ShXND+4qSkWgyHK4y3YQUwrkK9h76hsTjJ97UYb8MemnEVygV9w/clYhYRqTPG27ACGFehPob22X8ijlZv4fa2Y9wLe2jGVWiIof2XV3VYXI6+GXeiQdBmlY8y7kZ9yCFiWz3Ggma0hByouNNhvCdktAjaqSmMCkMczXgbLTG0kzdVZ4yXUR9DM4xGlAsamzWnQxAVhq/FeBv20Iyr0LIpdCoiUmPsob2OFg+NW4s6jGHUx9A6PfQNjqC8DiuAcRUaYmh/CakO46iD0eChrYceqo3xOuo9tC1XrNI4D81oCTmcvWnCG1fbMcoFjSyHUyGRCuM8NKMhhgbRPak6Y7yOhpADsa3PU2swDjkY9tCMq9AkaIbRg6ZNYVJtxngb9QpAbKvJZI6Q8TDKBY2NGvrb6TGOo72O8pEUUUf70Pa/FsqVWnKlLk2N8vaVK2+yb98++SjxwCSxxEK5oOcd7atN0Ll9gm6ct49ceZPMmTPLR4nHmTNn5CP9sKBdBiZ3JTbXr6P2MXFQH0PLoiFdxngbTS9n6+GHSmO8jnJB+/PQpMW4OIlRHkPPPvIlbf1rkVypJU/qUtQ03+dy5U2sMTQm42bLlk2u1HHkyBH5yE9ixtDKBT3rSH/acm6xXKkFgm6e/1O58iZWQefLl48OHDggV+qwb0RdvSlkGJ1oETTeA3QYwygXtEin+b6MHuNNodfR46E1GUN099133zRdp4bWr5klSxb5bOKgfFM4/X8DadO5JXKllnxp7qWW+XvJlTfZunWrfER05513UrFixeRKHdavCUqVKiUf6Ue5oKdB0Gf1CbpVAW8L2usoDznE0Xe0OFelcQztddQLGub7lw5jGA2C9jeA0WJcnOR5tGQ5mMjg4sWLNH36dHr77bepTp06VLVqVXr00Ufp//7v/2js2LF04cIF+ZnmonxTOOmPb2jj2aVypZYCaUpS24Ld5YoB58+fp+HDh9OiRYvojz/+EGm1Ro0aUZs2beiOO+6Qn+X/vFq1atGvv/4qn4lJunTpaP369VS0aFH5jHmwh3Yp8KbdunWj/PnzU+fOnSkqKop27NhBy5Yto/bt21ORIkVo1qxZ4nOPHj1KjzzySEgxg7///puee+45+t///iefMQ/lHvqnw4M0eugS9Gqh+Hto/CguX74sbO3atbR9+3b666+/KEWKFOLQoHjx4lSyZElKlSqVeA7VbEmSmBe3ozgIoh06dKh8xhl43D179lCfPn3oyy+/lM/Gzn333Ufr1q0T379psKAlu3fvpv79+9PKlSvFL/nq1avyI9FJnjw55c6dW3i41q1bC49lGtu2baP7779fxMSxUbp0aeF5Dx48KJ+JHfwMEMJUq1ZNPmMOWrIczjnjhDe0MogrV65cofHjx1OFChWER4NXDiZmgM/fv38/zZs3jxYv1lMWGxfgnz7++OOwxAy2bNkSJzED/AxWr14tV2bh6Rgab82dOnWili1bRsQOPhzOnj17MzYOh/iGTCtWrJCPzEKLoBHUaDH59cIBXvi9996jr7/+WngcJ9KkSUO5cuWiggULUp48eShTpkxGxsxWdu7cGfQdBjGvPe61R5x58+alQYMGiRAM9tVXX1HOnDnlR2+BsMZElAsax9E6LVx+++03+vbbb+UqOkhnffTRR/Tzzz/HMORpX3jhBbEpNBGnDARiXuSSEfciTHr11Vcd2x1gsztt2jTx8cKFCwvD5hIZkowZM8rP8mO/dmUKyjeF4w4NpvVnlsmVWgqlLUGvFe4mV8H5559/xIbGKU2FTdKkSZPEpi8UJ06coL179xq3Mfrmm2/ojTfekCs/zZs3pxEjRojqO3Dt2jV6/vnnaerUqWIdoHHjxmI/4USzZs3Ex6xyOX36tHjXMgnlHhrffowjamUWHhMmTAiacx05cmSsYgZZs2Y1cpePjIU9LGrbtu1NMQO8A/XqFbMqEem4YJQoUUI+ugUcg2loELRPaD6l6bHYQw7El5MnT5ar6LRq1YrKly8vV5EJvj/7my7ifzvYF9hBXjoYqVOnlo9ukZiXYYOhflMIofm+jB6LXdA44t21a5dc3QIxZffukX9s7hRBOh2AWI+9A5i+4Q0H9YI2DAjaaUMDLwYvhJDj2WefFRuitGnTig3VXXfdRWXKlKEXX3xRxNcmvtUyfpQLGpkHpxFsKiycLAe887///itXt8BbNUT70ksvic0S2tLicALPo5smDiDGjBkjCnsee+wxEasy5qE8yzHm96G09oymJPyxZJRkblq5IJFPtYO86ptvvilX8QcefOLEiVS2bFn5jBkgbLKHTshoOMXAeDey8sADDwS9g4gTVNRvWDl8+LDI05uEckGP/n0YrTmtR9Cnt52j9d22yBXRoUOH5KNbfPDBB9S7d2+5Cg1iylA/HtQLo3rNpCIdJ0GrwkRBuyqGrlK5sqizCJgTqKQLBcSJfOy4cePEIQPqIjJkyCA/Gp01a9bQqFGj5IoxAfUxNC7J3kiqxW4kSSZ27wFzApu8UHTo0EHkqXEaWL9+fXFiiBM2J1EjbYVa42BH54x+PJfliK35ilN8jTi5Zs2achUdFAPZ+1IwiYcWQSMK1WHhUKBAAfkoJmiQ4lSIA29fu3ZtuYoJbnwwZqBc0NGPptVbbODGSbADhFDTm1DUHwzkthkzUJ7l+O7gCFp1aqVcqaVYumLUpdi7cuUMiooQQhw/flw+c4snn3ySZs6cKVfRQW4aBy5O4Cg92Md0gxqV2O4GJhTYZ6DE1iSUC3rEAZ+gT6+SK7UUTVeU3o1F0Djle/jhh0WGwg4ulAZrEP7FF1/QO++8I1fRwbUtpPCYxEdDDO0LBXwvGR1GYRQnpUyZUlzXdwJXkVAgbwcniwsXOo+mw9+Hy7OMGWiIoWH2IiJVFrugET+jkYq1nNLKp5/GHGmxfPnyoFeO0N/ChGGXjB/lIcew/SNpxSk9IUfx9EXp/eJd5Co03333nbiZgWJ3O6jpQBkpvC+8Nm55OOWacV0JNR7p06eXzzCJjSZB67khXMwXQ39QorNchebSpUtUr149ca0qPqDcFPcR27VrJ59hTMCzggbIeECQOOKOy48BIQZufKAyL1joklisWqXn3RAgw2FacZZyQQ/Z/702QRdPV4Q+jIOgAbIeECcqz44dOyafdQYVa9gA4t5elSpV5LNm4XT5VRUQs64UYbh4XtABUDmGRoRz5swRv6RAnhotwJDOQw00yitxtw63o02FBa1Y0IN9gl7+Z8ycrwqKpy9C3Up0kitv4nVB6/vuGUYD6vPQDmWeqgxfi/E2rADmJm649a08hh60bzQtO6knhi7hi6E/vreDXHkT3LSJDdSr4Bpa4LIwbrdXr15dHCihqhDpOHzs5MmTohRg6dKl4qY8BI8YHXcUMbIC6cvHH39c/B2moF7Qe0fT0j/XypVaSqQvTN09LujYgFCxmUMPbPzqkUfHxg5ltaGwtgLDn0Hu/oknnpAfNQf1MbRG870+xb8ZZ9B6ASWy6CoKYcLDhiNmMHDgwJuXI9DaAQdSv//+u1ibhAZBxyzCV2dMKNCkHOFDAFwrC0fMAM12rLfJkbdHU0jT2oFp2RRe9ylNh/n+x4QAl3+txVj33HOPfBQedvHDuwe7XZ9YaAk5/KGAeuPBm6HBRQQruOAbF+yjK86dO2dcn2hO23kINEO3puZQaXjq1Cm5Cg1qXrp27SpXPvfh+3vwnGkt0dR7aNGXQ48hjmaCYz8WR1oO9SmbN28OGgtj84i6FjTcQTswKxC1ablr5Wm7gXt+oCUno/dEU8W9GQpTr1K337fOrSAGdrpihmwHWjggA3LvvfeKpjrwvshiLFmyRNzWwRRaSMUqF+Sr586dK3LYpqBc0AN2/0iLtQm6EH1amgUdjLfeeks0q0wo0IIY19OcGqonFhxDewgMCU3I0lfc+PFcs0ZEZk7xrgrjLEdoKlWqRE2bNk2QuBd3LnExQme5ajiwh/YQaFSJntnorno7ooaXx1StYF1ZExPlgkbmwTpHULUxoUEdxuDBg6lHjx6UJUsW+Wz4oFsSZjyikMlE2EN7EHhWNH7ftGkTvfLKK2IN743wweq58RiNKnGXEum9DRs20NixY8Mae5dYKM9y9N01lhaeWC9XaimdsRD1KfO6XDHhgsvBSOfhJBAHJTD0JEFZKbqxFi1aVBQmmXbD3QkNgh6nT9AZfIIu+5pcMV5EQwwdvYBIpfn+x3gcTTE04jL1xoJmlIccX+wcT1HH9YQcZXwx9Jfl2suVN7GOssOo4xYtWsiVOuzj89q3T7zfgXJBf+4T9ILjv8iVWspkLOh5QVsPOvLlyxe033VCYj9cScyif07bMa5C/abQ5/+djqlVGeNt2EMzrkJ5DP3Zjgk0/9gGuVJLWV8MPaD8/8mVN7HGs2g02adPH7lSR6tWreQjP4kZQ7OgXYZ9g6bjRoldQq7eFDoVEKkzxg7EptpMgmNoxlUoFzRewE7H1CqML8kymjz0reNptcZ4HeWbwl7bJ9Lco3o2heUyFaRvKrwiV96kXLly8lHigQsAiYVyQffcNpHmHdsoV2opl6mA5wXtddTH0D5zindVmGEbbiYR0BBDO8W6aow3hQyn7RhXoV7QIhTw98xQbVzhz7CHZlyFckGLI2mf99RiHEN7Hk0hhx7jkINxVcjBemaUCzrgOHUYw2gSdBJtxngbV4UcDKNhU+jznD43rcsYb6PJQ/uPpvUY42U0xNDIEccsJFJh7KEZl3loxuuo99DSc2ox+TUZZzB4M67TYyMNTR6aMQF04EcDc0yvGjJkiJg96Da0CNrRmyowdtGxc/nyZTEss127dlSoUCFq1qwZ7dq1i/7991/fzzDyf4BaQg7neDfhjQ9W4sbVq1dp3LhxdN9991GtWrXok08+od27d0e0sN3loRMQxJsYDexkJ06c8H29BP6CiQi89po1a8Q879KlS4tJV7/++iudP38+4r5PDYKO6UlVmSjyTwAw7heDcvLnz+9oL774oniLdiPw2hMnThRTrx588EHq1KkT7d27V37UfNSHHDDpQVVbQoCN0lNPPUWXLl2Sz7gHTLaChcOVK1doy5Yt1L9/f/HirlOnDs2fP5+OHDkiP8NMNMTQtwqHlFsCeOgvvviC/vrrL7lyF9WqVaOFCxfSG2+8IcZVgHCbOS5YsEBkRxBro9vo1q1b5UfMQksMHSmsWrVKjPx1K5g7WLVqVRowYAD9+eefYohm/fr1xQzCcISNeBrhx+jRo6ls2bL0yCOP0I8//ijGXiRmx1ErrtoU+v4Xb44fP07PPPOM2CB5AUyOxeZv8uTJtG7dOrFvgAcOhXWDiMeLFy+mli1bUuXKlcVwokOHDsmPJh7soSWY5ASvFSBFihSUJ08euXIv6Cd91113Cc89c+ZMOnz4MPXt25ceffTRsGaBwzOfPn1apP/Kly9P/fr1S9SQTUMMrdfiw8aNG+nTTz/1/flbfwE8T4UKFeTKO+TKlYs6dOhAs2bNon379tG7774bo4l6MM6cOUNdunQR88ORLUkMNHlof1pNvcUdzLlu3bo1/ffff/IZoowZM1Lnzp21dL83DbyocbiC7Mbjjz8uRlrEJT7Gn580aRL16tVLPqMX9YIWBf56DF8rrmCDg/SUlalTp1LBggXlyjsg3MBReKlSpYRnXr16dUgx4wXv9KKHqHv06EFHjx6Vz+jD0zH0ihUrqGfPnnLl56WXXqKHHnpIrtzPqVOn6Ouvv6batWtTsWLFaPz48XTt2jX5Ub84nUifPr0Qf9u2bSlr1qzy2ejgBaEb9TG0RoMvgUcJWCiwcXn99dfp4sWL8hmiNGnSUNeuXeXKvSCTA2/82muvCTG++eabtGTJklgzPPDGmKyF/cXOnTvFu9vgwYNFFZ/1HS3gtVEmoBtXeehtW7eKvGrAQoFfxLZt2+TKn9VAqJE3b175jPs4d+4cDRw4kB577DEqUaIEffvtt0E9sB3UeIwaNUqId+TIkZQ9e3b5ERIlqe+//75c+ZyL/DsT47RVi6Dx/emwy//+K3KhAXMCP+z169fThx9+GG0j+OSTT4pTMDezdOlSevvtt0WoFY7Y8I5VsWJFmjBhghBy8+bNg6Yy77//fvnoFuG+WBISLSHHrSyEWitfvoIYhxAwJxBi4JdqFXOGDBnEkfcdd9whn/E2d955p4iNFy1aJEKRRo0axfqzgfhNQL2HhqI1mW/PTcmSJbtpduAxcLSNUskAKNYZNmyYqKLzMsg1owgJ+4o9e/aIGy04AQxXqIibU6VKRalTpxaGx3hh6MZVMXRsbNq0ScR61rdCnIgh3PAyuLmC+Pjnn38WdR7x2Udgc/nLL7+IcA6Gx23atJEf1YfyoUHv/DKTpv6+Wa7UUjlLXvqxZgu5ism0adNEvYYV3NIIlnPGLxe/HDvYIHXs2PGmB7r33ntF7tZ0pk+ffvP7hxetUaOGqOfAc1i7AfWCXu8T9KHoBxeqqOQT9NiazeUqJk6CdjoYCBDqR2P9cx999JEw0wkIukmTJvTll19SpkyZEiUsUImnQg4nINpgFoq4fK4p4O7g9u3bRcnnPffc4zoxAy1ZDvy+dZj4YkxQkHIrXry4XLkTz3toxl0oj6E7r5vl2xTqiaErZ8lD42oFj6HjynPPPUdTpkyRq1vgpA3xaLj380wBJ4XffPNNjEMV1GTg5DAUqL6z1osDFPWj/sMkWNAhcJugly1bJi67Wm+sI0ODq2eBO4bBQKlA+/bt5coPTg5Rz2ESekKOQGmnahMnhkwwkBsOiBlZGhw+DR06NFYxA7y47S9gXN0yrVcex9AewlrOiTdmnAw61WA4getYDRs2lCs/CGESo+Y5FOoFLTMQOiyhsxz4JeLUzG44FQuVvzYV9LCzgnAjLjz99NPykR/UxeDalUm4ykMnsJ6pd+/etHbt2hiGDRJuTUca8KbWFyIux8YFe80z6qcvXLggnzEDTTG0RktAcJKWLVu2GJY5c+aI9NDWywwA3ZHigv3Po2IxsS7DBkNLyMGYgf1kELdW4sLKlSvlIz+o0Av3RrgulP+/8bfo8v1XgzGhQYhhzdIi64Euq+Hw999/i94lAfD34AViWupS08srkFJTa+LmNxMUlIlaQZYC7bzC6aSKtmH2W0Co0ENYZhJ6Qg5dxoSkUqVK8tEt0IMDJ4WoFXe6WIwWabgZb70zGAA3fbCnMAnlJ4WdVs+mKQf0dKqsnDUPTXikqVwxdtAOF62Cr1naFARALIw6b1x4wAVYeG+EJOhfF8yD43Pxd5oEC9pDwNuihBT/vV2Q5cFROlr0moSGkCN6dyOV5j/+ZoKB8AB3BhMiM4GaENPEDDRtChlTwIiJZ5999rby6Lg4m1i962JDj6CtGzfVxoQEqTa0vEXoER9PjfgaDXnQ8NxE2EN7ELTMxWgKezlobJQpU4aioqJEqs9UNAnanydWb0y4oGUw2oKhFrpp06aiUAl969ASDeEIGsugISNy12jkiN4laN4T14Im3ajPcqyaQ5P33+ohp5IqWXPThMeayBUTLqjJQJ0GbrKgvgP5aIg6cBKIeulIuVCr3kPbY1yVxsQLFPrDGyMLgou0+fLlE2WyOXLkEIVYkSJm4K4YmkXtedSHHCt9Icc+TSFHNl/IUYdDjriCcGPz5s1iZBsuwv7zzz/CK6NOA94aGZFwBgiZAAvaw0DI6GmHGd+YZBUKtAzDjXHUb5hWMmrFXTE0nxSGDdrk1qxZU5wcWsWMzWDArGBUBTIe6PdnMhpeata0mmpjwgE56CeeeEKMs7ODN+yA2UHBEk4a27VrF+fbLrpw16aQiRXMPcFgpPgIMiDy4cOHG9ePI4ByQeNnoNOY4OD+H8Qc7i2VYCBv3b17d3GLxTTYQ3sIzGN06ncdH3CDHEM5TUOPoOE5dRkTFIzicBoWhCNvTI3FzRRMgUXRPlqdYX4h2n2hfYF9kwjQJu38+fNyZQbK03Ydl8+lyXv1pe1+qvuCXDF20ChmxowZcuUHF2cxigJNF50GA+EYHJtBNHS3j4FDj2kMFjKpvkO9hxae0/fq1mGc6QgJmp1bwcEJ+tNBkMGmXCHnjONvjO6wD1ZCk5nY8te64RjaQ9g7J2EuY4ECBeQqNKjOg6gD4O/hzkk6jAmK/bJrXI+z7T2kEY5Y5z2agHJBJ/GJLBAM6DAmOPZ+fHFNu9k7jSIcMe0YnD20h8Amzrqpw61tDPEPB3h35J4D4O/BZQBTJsgG4BjaQ9hDBhywII6Ora0BUn1oA2bPYUPM2DCahHpBiwwE/qvBmJBUr15dProFrlXhjiA6Iy1YsIAOHDhAJ06cEI0ckQH56quvRLrvgw8+iJGLRpYE9xNNQn356M/zaPKe6OkiVVTJnpsmPNVYrhg7uD+Ibkeod04IMOAeM8FNwl0xNBOScuXKUZEiReTq9sCVLROn53IM7SHQLRSnfRDj7YDQ4+233xY9OkyDBe0xMCSob9++4mJsfEELMAjaRDRsCjUbEyutWrUSw+vj6mGRc0b5KS4I3K6XVwV7aA8C7/zaa6+JAUiNGjUK63AExUtor4sBnCYPTFKf5Vg8jybv1pTlyJGbJjTgLEdc2bNnDy1dulSMfTt16pQ4RAl0TkKtB8KUihUrioMU02FBM65CQ8iBgxVdJr8k41k4hmZchbuyHIznUR9DL5pPU3bpiaEr58xFE572dgyNQqOEmKESDqlSpRID8E1Cj6B3ahT0M94WNEo8rWWeKkEX/19//VWuzEBPyMEwmuBNIeMqWNCMq2BBM65CuaCTwHxxtC5jvI3yLEfnhXqzHOOf5SxHsCwH0mxvvvmmqJgL1lgmLqDLP+awmIR6QS+AoHfIlVqEoJ9rJFfeJJy0HQYCYZosDIVHbkJPDI2XjA5jxKVV3MYOVRJ66NAhUQ9dtWpVMUwTdw3RBUmxb9MCbwpdBsKJ3bt308iRI+nhhx+ONbTYunWrGE0BcWPWyv79++VHIhP1grZ7UdXGiLi2RYsWoi0BOotCsKhtdmqJC9DOC+0M0LsOjRsxMhntDOC1Iw31MXSUL4beoSmG9r3djm8Yvxj67NmzwjuhmyamQ+FWB/pOBAZRRjLo3I8i/nnz5omhP/aWXk5geiyOttEfumXLlgmyidSB5wSNBoMnT5682UgFNzXQCPzYsWPyM2KCpobYQGEmdvny5UW2IFKBNx4zZoyY3b3D93sJp78dWojh6hUazpiOq0KOcPLQaP8Kr4P48o033qCpU6eGFDPAMEo0VHnssceoYcOG4sUQqeCdB5dkcdEVHrtNmzaivUEo4ABwnzAS0LIpFIcrGiwc4KEgyPj0NUaPtzlz5ghPdfDgQflsZJI2bVp64IEHaOjQoWL2SoMGDRxbGwSLu01FT5bD5kmVmgZQMonb0qb1Ro4P2Dd06NBBdCJFOBbpeD5th+6ZtWvXpvfee48mTJhAc+fOFVNTX3nlFRE7BmPDhg1isE4kghAKodZTTz1FhQsXppkzZ4pNsdN2KvAcNomRgPpN4bz5NHW7pk1h7lw0rnHoTSF+cVWqVBEhA8YCo6smflnYxVvfXuGtEJog1kYKywnEn9hcRQroBd27d28aMWKEeByOR8bBC9qHYYB9JLQx8JyHRv3Byy+/LMIGtMSCh8Zz9lgRJ204IobnDsYff/whH5kLOo1i8hU2gpjVjdmCeFGHEjNSlaj5QA4bm0Ecj0eCmIHnPHRcwQ4/a9aschUdbKpwbGwqs2bNEock1smxeOFaf+WBFzKewztVt27dxJ9JmTKleD7SUO6h7eWdqi2hCTVywbRxDGDnzp3UsWNHcXm1fv36McYg2/0X3omQY584caKo8cCfjVQxA3dlORQQqrbBPrfPBCDM/v370969e+UzMUF6DtNjW7duLU4N8Weee+45Mbot0tEgaLylaTJ0T0pAkJYbNWqUXMUE44QjCXhjjKVA4dLGjRtp+PDhcR7tZjrKY+guc6No6lY9MXSxjOnpg9K3BuPcbq3v5s2bxekgZo7Ywa4fR+em1TiEqofG5hejkMPpNhoOJUuWpKioKLkyA/WCnuMT9DY9gv7nwD46OuxbufI57Nv41rC7x4ngkSNH5DO3QKiBXyRyuKYRToF/QuHNvhwaebD6gyJNFbD4gHQWPG/jxo0dxYwKPEyGQgqMMQ/1WQ78K7BpU2x4K8UOPWDxYdKkSSLMcKrVQE0xThHr1q0bcTUOXkGLh5ZbNuV2O6DJ93fffSdO/5ymq+JqE07YMBaNxWwu6gXt4EmVWjzBCRrqN5zqg5EJQMyM1BaL2WyUbwrfma0vy1EpTy4a27ShXIXHuXPnqGfPniJ363QcjFEMSG+hpiESQE4ZYZMOcJMHjsAk1At6VhRN0yjoH5uFL2h86zhNwxGxExDx4sWLRaqLiQxcleWICygswuD2YGJGLL1y5UoWc4ShR9DWGFelhQG8MsRco0YNcZ/QDo6F0QoAd+hwq4OJLPSEHFs0hhzNQ4ccyGDAMwc7EEBRf7hH2shJI/ZmzEGPoDdrEnTe2AWNOXw4tk6IWuacOXPGqGZjEhc9aTuG0YS7YmgY42mUC1oU3uO/mozxNspj6HdnaNwU+mLoH1qEjqFxEoimhGj5dbvwptA8PCdoxt149mCFcSe8KWRcBXtoxlXoyXJoNMbbsIdmXIW7YmjG87CH9hDoOop+dVaLxDkqoVCeh35vWhRN26QpD50vF41pxXnoYKD97zPPPCNXfvbt20cFChSQq9Cg05KV7Nmzi154JjVyZA/NhA26SFkNXU2vXbsmP2oGHEMzrkK9oH1CcyoiUmEsaoY9NBMW8e1EpRt3xdAsamVg8xgJqM9yTI2i6b/pyXJURJbjJc5yoAsUhtNfuXJFPuNn165d9NNPP8mVH4yeiK0vNCbrLlq0iDZt2iSf8YMxymhqaVKWQ7mg35+iUdD5c9FoFjSdP3+ecufOHdaU2PgQGGuBu5kQtEndpDhtx8SZgA+EoE1rjaYly6HVGC1AyOj1ZxrsoZl4UbNmTTHD0TTclbaDMQmONaxAZykclWPGo9Ns8MSGPTQTEog5VapUotMoQowff/xR9PwrV66c/Ayz0BJDOxXiqzLGP2kgMPrYapjvbQf5ZfvnWQ2TwC5cuCDGQ6NVL0Z1ZMuWTf5p82APzbgKd8XQTEgwgg4dVQOGSbimpd1uF/bQHgLDkNBcMmCY8oUB/W5CSwyt1ZigYPAm4murJdQQTlNgD80E5cyZMzRs2DB666236J133hGzW65evSo/aibKazk+mBhF0zdoquUokItGvcq1HMGAGJctWxbjHmGVKlXEMPsAhw8fFiKeN2+eKHSykiNHDjHhoEuXLiIGNw31gv4pimZs1Cfo71nQQUHqrVKlSsLzBkDIsXfvXjHuGSBFhxNAFB0FAxvJXr160bvvviufMQcOOTwEphagFNTKgw8+GG1juHbtWjG0PxTwgZ9//rmRNdJ6BG3dtKk2JijwxPYQokOHDtE2hoMGDYpRR+0EDm7gpRW/wccZ9tAe4rfffpOP/KCwH6OeA5w9e1bEzeGyevVqMbPGJJQL2ul4WpUxocGNFSsFCxak5MmTyxXR+vXrY3hnTAV76qmnqHTp0vKZW8BLHz9+XK7MgD20hzh06JB85AcFR1acRt0NGDCApk2bJrosYeqXFdyISYhJCAmJekHDc+o0JihoBWY96rbeJUQsvHPnzmgfh/euW7eueA7jN5CqC4DnkAY0rZUYe2gPYc9woCw0ADogHTt2LNomr0iRIpQuXTq5IqpWrZp85AeVeOFsIHWiR9B2L6rSmKBY42Vw6dIl+ch/U/zcuXNy5adEiRLykZ+UKVPKR7ewenQTYA/tIazeFhw8eFA+8jeSgYe2Yi/itx7IAFTv2V8kiY2rBO2uQsiEJ0+ePNFCijVr1tB3330nDly++uqrGBmL8uXLy0d+rJtK/D3ox2Ha8bcWQUNoOowJTcmSJeUjP9jQtWnTRpwU4pAEN1QCYBNoLy1F3tkKYvAMGTLIlRmoF7Q9xlVpTEgeeeSRsMtFCxUqFK1gCR45KipKrvzgksBdd90lV2bgrhiaRR0SFCbB84YDLgNYPxfhxv79+8XjwEYQYsbBi0koF7T41u2eVJFx2BEanAy+8cYbchUctCl4/fXX5crPxo0b5SPfj1rG4dWrVxcbQ5PgGNpDINzo2rUrvf/++46xL/pslCpViiZPnkxZsmSRz/qZOXOmfOQHXtrEzknK66G7jouimev11ENXKJSLvnuN66FjAyd8v//+u+goiuNuHGHjWPuJJ56gMmXKiFDCnl/G56JWOgBeHPh80zy0ekGP1Szo11nQXsZdm0LG86gXtNywaTPG07CHZkQdx5QpU8TlV1yYLVq0qDj2xkxDnCDaazxMRnkM3e1HXwy9Tl8MPeJNjqHDBUffaFMwe/bskHXNyH4gRdeyZUtq2LBhtCo902AP7UFQ9jly5EjR43n06NGxFunj85cuXSoE/fLLL8e4l2gS7oqhmbD4+uuv6ZVXXolX05jx48eLU8STJ0/KZ8yCPbTHwEVZdEGC140vy5cvpyFDhsiVWegRtJM3VWVMUDAd68UXX0yQdl79+vXzaF8On8jsR9SqjAkNvDN6cziBk0HUNmfPnl3UTePkEHcOg42dwOnip59+Gq3k1ATYQ9vYvn07TZ8+XYxeQCpr3bp1xl0EjS8rVqyIcQcQQsbt74EDB9KSJUuiGW56Y1Anuis5gb/PtFvf6tN2Y6Jo1lo9abvyhXPRiLfjlrbDjh0TUrHbxy/Pfs0I4C7d448/Lt6ua9eubWSTwnDAZm7hwoVy5QdinTBhQqxjJhBidO7cWa78oOYDf1/ZsmXlM4mPpzeFeLts164d1apViwYPHuwoZgAPjd4UqC576KGHRLPwSMTeaAYNGufOnRvWzBSUneJ7t4JiJc/15XDqcKTSwgUbJAgU+Vjr7edQ4Ko/unKik1CkDHO3Yu/LgVPB1KlTy1Vo0CwdLXYD4O/B5hKXa03Csx66R48eIlaOD9hcoSdcuC8EU7DHz+HeXgkQaLkbIDAlyyTctSkMkxkzZlD//v2j3YAOgGYqP/zwgzgZQ5jRpEkT+ZHooAXAZ599JleRgT32R2PzuGC/JIsMCDy3SXjOQ2MTCDE7pZvw9jtr1ixq1qwZ1ahRgxo0aEBjx46lRo0ayc+IDjIhkQRi5cCLGCEDshjhFh5hH9GtW7ebIQv+HmyWvdfGwOpBdVgsnDhxIkZb2QDY7Vv7vQXo3r2749szvDRSe5ECbqMEgCDRGqxChQpC2KE4evSoOCrHcbf1XQ23vu1XtRIbz3loVJZhQ2gna9asoljHCRwy4LDBCYjdKXQxEYyasG4KAcZU4Hm8Iw0fPpw2bNggbndv3bpVhFytW7cWeWqEYXZw4zvYzyWxcJWHDifLEcyj5s6dO2g8CE+UK1cuuYoOfvH2FlqmgqwGvhcncEgCL4xWB4ULFxbe/Nlnn6VRo0aJ7I4TL7zwQtC/L7HQ4qEDR9OqLTawI8fJnxM4JAh2zAuvhqv9wbD2iDMZdE6qXLmyXN0eeNd688035coc9IQcNk+q1EKAPKy9pWwANDIMJmiAcWbBiBQPjRvaY8aMue3psfg59e7d28hCf1fF0Ni0YGMXMDuhTrXQeNAeX1rB1NVgYDZJpIBMBw6T4tPCCz8fZDbat28vwg0TUS7oJNgwabKdO7aLH3TA7IQqMoqtvwQEH4xIK17CBhCZDdwdjAvY/CLl2bdvX+P6cQRwVQyNQhuIK2B2bicbEcp7R0qWIwCaxNx7771iI9izZ0+qWrWqSFc6fY/wyIi90aUUIyuwcTRVzEC9oPG71mRJkyQVnjRgdkJ52diOcEONXjCt6Xe4oLso2oItXrxYbGyRn0eohtsoqD7EaSlOEzEdC8VbcfXoiYGrYujYcDo0CYATxFCeFiPMghHq740E8IJErzuMbsOpaNu2bal58+biHQ+ix+Yv3Da8iY2nBI0NUbDQAdmPULcvQl0KNa2lbDAeeOABkX60GuaoJMSVLFNQLmgR3/ocnw4ToUcIcHBSsWJFuYoOMiDBwg547lDloqFy1CaB0AFNGq2G4ivTCoxuBz0eOiA21RYG9erVk4+ig3qFYJ4KNb/Bivrh9W83r6sLbObs71BoHOMm1As6TKElCGF8LRznOo0nO3LkCO3Y4XxVDOFGMEFjGGWoDIhJ4HTPvk+wT5ONdDznoVFMg5SVHcTP6O2G28xWUMeASVFOMTQOJ1577TW5Mh+087KDF7Kb0CJoEUdrsthA/S5yqk5s27ZN1ELDU0PgGHPWqVMn+uKLL+RnRAcZgUiKPxs3bhwjxRhpNd2xofzWd/cR82nOSj23vu8rlouGvOtcjG8FXvfJJ5+k+fPny2digngzWJUZQB0wbnBgWlSkgCtj9evXF3lnhEn41UPgODCxX6+KVPTE0DotDCBWhBH20b9WYhMz6qojScwAN3ImTZokLvkGwIERMh0YvukG1Hvo4Zo99Huxe+gAGFWGo1x4rFACDgCvhvj7yy+/dCyWN53AbR0cEuGSMDxzAIgdIRRy1XjBhjpVDYCCLXy+SSgXdI9h82m2JkGX9wl68PvhCxrgQGXOnDmigSHyssFA7N2hQwcx7gynZ5EmZoD7koijAfYIwY7zsS8IVUobACeLa9eulSsz0CJonR46roIOgGImzOLbsmWLSNEh94z4EqeACE3giUKVkEYCaNuArvyhCMTW4YCOSZiiZRJ6BL1Co6A/iJ+gvUA4go4LJgpaTx6aYTThuYMVxt0oF7QoHMJ/NRnjbZTH0J8M9cXQy7fLlVruK56bvv2QY+hgoLvqnj175Or2QeYHs8FNQr2gh2BTqEvQuXyC9qelGG/CMTTjKrQI2inWVWEsaoY9tIfAvclTp05Fs1DXzuzY/yz6kSiOWOOMekHr/H5Z1CFBLw4cV1sNpbThNi23/9mnn36aO/gziQeO91HjbbXvv/+eOnbsGNZFWfufhZf2nIcWl1fxrqbBxNdi4sw333xDrVq1csXtb3dtCpl4gTgaI+0wFMi0ECKu6ImhdRoTLxBHozsSLhEH69AaCXAMzUQDgzRfffXVGJeFIwU9IYfPc+oy5vaAp8agpKZNm0ZUm+AA7KE9TrBOUpgwi8GkaBIfSegRNFI7OoyJM+PHj6cnnnhCrm6BjSLy1mjrEEmeWsOmkIVmOmid+/zzz8tVdBYtWiSG3kfKrXDlghbpNGhalzFxBh2gRowYIURtv/yLgxOMegsmeNPQ4KH9otZlTPxAGwP0KsHNdqcb7WvWrJGPzEZTDK3RmHiDxuYYJIr6jkhpcG4nMv9fM8qAp8ZR+LvvvhuRomZBMzFAqzTMXunatWvENUNXLminww9VxiFHwgFP/dFHH4mWYZHkqdlDMyHB+OPPPvvMyKmxTmgQtM9tWg8/VBq76JDA62J8htVimzmIaQfokY0GlRhUj5veATNR5Mpvfff+ai7NW6Ln1nfZe3PT1z0jI18aaaBWGkOHrHLBC6RMmTJhNXbUhXpBD5xL8zUK+qteLGgvwzG0y1Dsn4xHj6DxM9ZhDPXu3ZsqVapEH374oahtRlNzdEyKy+3uSEa9oHUKjUUtJhGg9gLCrlOnDlWrVo0qV65Mjz76KPXp0yfo6Dq3wB7axSD8QOnn/v37acmSJWJKAUZq5MiRQ1y16tevn6h73r17d8jh/JGEckHbi4eUGos6LNCCYNq0adS5c2dq0KABlS9fnnLlykUtWrSgmTNnRvRFWT0hBzYqOozddJxBiIJxb+ixgZmFEDiGBlWtWlXMkxk5ciStWrVKfDwS0CRojcaI8s/4DDUK/Dl4aJSLDho0iF5++WV68MEHKWvWrHTfffdR//796dixY/JPmIe7YmiYx6lSpQrVrVtXCDCuIOYOmJXAc5s2bRJdlhCe4JQRI/FMQ4+gGW3guhTi4KNHj4qJXqiaK1q0qDiqRuVcfDy3HYgbV7J++eUX+Yw5sKBdDDIaPXv2FDPMkclAXnrYsGGigB+j6kw6sk4olAvaXuKp2piYQLhI1SEWfumll2jo0KFC5PCyo0aNEu0KihQpIjaDkVb/bIc9tIfJli2bSNVNnDiR1q1bJ254T506lbp160bVq1cXlXaRhgZB+9wmNhk6jHeF8SZDhgxUvHhxqlChghjOicaN6J4Uzsxvk2APzYh53aj9QEiCLAm8M04ScQscXf8jCfWC9jlNp1hXhbGDDg0OUDDWDcfgyCfXr1+fMmfOLOaYo/YDwj506FDENmoE7KFdzrlz50S7rxdeeEFkNu6//37R+gv55FmzZomPx5WcOXOKU0TcDjcN5QX+n/WdQ1ELtsmVWsqUzk0D+jaRK2+ya9cu4YExVH7jxo2ifDS+hUe4HIsDFLwQEF+j5gOlqfnz55efYR7qBd3HJ+iFLGhdoFEMLID1IMXpVx34eOBjEDE2hsh+NGrUiO6++27xfKSgJ+TAD0uD3f4ZmPuAUANmB5dccScQ4sUl2MWLF4s6DdRxtGvXLuLEDJQLGiLTZbwpDA0OTTJlyiQyGJMnT6aTJ0+K0ASTsJCme+ihh8ThSkIcjycWWrIcThOrlBgLOiS5c+emF198UeSXkZpDfYfb0CNoxggOHDhAAwYMEAcnqMZDrPzJJ5/Qb7/9Jrw1hgU5hSaRBKftPAzCDbT7wliKcuXK0cMPP0xNmjQRddDbt28Pe8KsSWgQtG+zhg2bJvM6GFmMg5ICBQpQunTpwoqHcSMcm0E0ksG8QuSYS5UqJfLNCE/GjBkjLt6imMn0k0OfBtSq4PPPZ9OCqK1ypZYyZfLQl/2bypV3Qd75xIkTwlBVh7JR5Kaxji9oA4YwBVV7CFVwi7xGjRrGFTCpF/RnmgU9gAUdDIQRS5cuFWm5vXv3Co8LkcdXAriSBc9tEizoRAQ/ehw9o1fG//73v5vH0Mj/5suXT4QPKuqTEWLg3iA2gbj8On36dHELHFes4hI3ly1bVsThJqFB0LNowXxNgi4LQTeTK/M4fPiwCAFwdQnH0jDErsF+BYiBUXuBgT316tUTOWJV4P8DMh2oi169erXw5siKoJgpmMhZ0IoxWdDwirhcCtHENXuAjR2q4mbMmCHaC6gEcti3b58oaBo3bpwITYJJxERBqz8p9P0sdJrJoHwzPqkwCOr06dP09NNPiwuwCQU2jyhemjBhgrhMi9viKEYqVqwYffzxx8I7K/Z3CQ7noSMIjClGSg2dj24HhBRoQYC0HC7SIveMLv3z5s0TsTzAu0IkHoHrETRe5VpMfr0IAMMucQyNgZcoCkK2YPny5WKN5orBQGZi/vz5chUabPxWrlwpivlbt24t4nFctUIDx+HDhwuv7+SB8VzAIg3lMfQXvRFDb5ErtSCG7vdVc7kyC8TQiIMxAgI3rzE2DYVCTiDbAdFhY+bEI488QgsWLJCr6GCTiazFlClTaNmyZQl62gePHZALvg9c18KL0CTUe2h8/06FRCrMcIfSpUsXkUX4/PPPg4oZZMyYUXhhjHxwApmSYKDvRvv27cVBSkKKGeAQBS16cV1r9uzZokrPNNRvCjWayaBwHhuvggULymdCg4wIjp+d0NE4EZV4+P+AU0Fc10KLgwsXLoj2u3h3wUlhuN+LTjTE0D63ibcpLSa/pEsIdqiSkPlo68YvT5481LJlS5GuQyiBS7PoPIpG6bVq1YqITaKekIOJM9jQoVG5E6ihuB0CnZSw+cShzZAhQ8RdRBykoH0unkP1HT4n0jop6clyMHFm8ODBjm1rIUZUwMUH1F6gKxKyKsh+IE5HT+i2bduKVmCRONvbjvIsR5+eM2nBXD1ZjixZ76QadTLKFRnZ7jUccDRes2ZNcRBjB7XLUVFRQTeVuCCLnDLKR2GIw1FOioxEJN4RjCuuEvTZvw7Sxh0j5QphdfBvDV4Kd+sSGpRZzpkzR1w+jQ84NEGrAOSb7eDv3rx5s2gjECyeRb1I+vTpRQsvhAvw6JF4QBJfNMTQzoX4KuzBB6vT5cuXb1ooMIrhr7/+SnBDDjm+6bIVK1aI/LOTmJEyQ6dQeN1QAsXGDmk/3OhGrthLYgauiqGTJkkqPFPAIgm8YyCT4LQRhJdFDYeKdxS3oUfQPu+pxSIwpYKwCP2aIVa8a9hBPhi1yjgdZGLH904tlKCMPp/MoIVzNsuVWkrfl5f6fvuiXIUGsSbKMRMaxK24VX3PPffIZ4IDAffq1UtUtjmBfDMKiQoVKiSfYWJDvaB7+AQ9W5Ogy/sEPTg8QSc2uC3SqVMncXzsdPEU2QnEzEi1MeGjYVMo/6uDCIk4MN0V49JwoOEkZsTSOKVjMccd5YJOApUFYlzFhkyH6Rw8eFD0v0C7ADvISOCQAyMighUmMaHRsilE4kiHmQwiOxwtN27cWHQqskd6iL1RvI/ORqiVZuKH8hi678fTfTH0JrlSS+ny+ajP0JZyZRaoVMNhC0TtBHLGOH4Ot3YCHh7zB5nosKA1cf78eVGOmVDjHuDlcUmViY6GTaE/vtVmjKfRc7DCMJpgQTOuQn0M3W0aLZylMYYe0UquzAL5Zox9SKjuna+++qqYBMtER4+gZ/4mV2opXSG/sYJm9KDlYMUpZ6zGeFPodTRkOWC+f2kx/5dkvIvLNoWsaK/DWQ7GVWgIOawhgWqTX5PxLOyhGVehQdB2L6rYGE/DHppxFeoF7dQlVJWxg/Y87KEZV6FH0E6xrgpjPI8WQTsfUye8sagZ9tCMq1AvaJ1CY1F7HvbQjKvQ4KE1G+Np9HhohtGEnhhapzGehj004yo0CNrBi6o0xtOwh2ZchYYYGmbzoqqM0xyehz004yo0eGif17yuy+TXZDwLe2jGVegRtD3WVWUcQ3sePSGHf2eo3sTXYryMyzw043U0CFqn0FjUXkdDyAGTHlS5+b8k4100CVqjMZ5GTwzNMJrQE0M7hgeKjPE07KEZV6EhhnbwoqqMg2jPwx6acRUaPDTM4kVVG+Np2EMzrkKDoB28qDKTX5LxLO7aFMIYT6Mn5HASngpjPI/LYmgWtddxWcghvybjWdhDM65Cg4eGBTyoavN/Sca7aNoUajTG07gs5GC8joaQ47ovGtBj3JiDYQ/NuAo9m0LHLkeKjPE07KEZV6HBQ/u8pjaTX5PxLOyhGVehR9CO3lSBsYv2PC4LOXzGeBoNHtpBdMpMfskIZfv27ZQ9e3ZKkiSJoxUrVkx+JhMMDR5a/lcLka3oHj160PHjx+WKiQ/KBX0D/1y/rsfgpSMQ/P8eNmwYTZo0ST7DxBeXeejI5I8//qCePXtG7AvSJDTE0EwoIOLOnTsLUTO3jwYP7fM6Oi2CgJi///57mjhxonzGT8aMGeUjJq6wh05ETp8+LUINK8WLF6f27dvLFRNX9MTQTkVEqixCuHLlCnXo0IEOHjwonyHKlCkTjRw5kj30bcAeOpGYOnUqjR07Vq78NG3alCpUqCBXTHzQIOjrPi+tySIkpYJQo3fv3nT9Ov4/+ylVqpQIP+644w75DBMfXOWh//vvP7p48eJNM5U2bdrQ1q1b5YooderUNHToUMqQIYN8hokvWmJo7OZ12IrlKyht2rQ3zUSmTJlC06ZNkys/zz//PJUvX16umNtBuaB9OvNHAhqsWrVqdOHChZsWiqioKMd6ids1vJB+/fVX+VVi0q1bN/nIT9GiRWn48OGUPHly+QxzO2gIOXxKc4p3FViyZEkpTZo0N80krl69Si+99BLt2LFDPuMPNQYNGkRJk7oq8ktU3PWThKc2lPnz59MPP/wgV37q1atHtWrVkismIdAQQ/vi2+t6zB/fmMe1a9eoa9euwksHKFu2rChIQpjCJBxJfJsppSro0+pbWjBmmVyppXSNEtRvyUdyFZqjR4/SwoUL5SrhuPPOO+mxxx6ju+66Sz5DdP78+WgZDIQYvXr1orp168pnojN69Gjq16+fXN0iX758NHPmTLkiypw5M+XMmVOuGKBB0INoweilcqWW0jVKUr+fP5Yrc7ALGiRLliyod0Z+2pqjtmLNU7dt21bE4MwtXLYbMTiItoGcOUIRJwsmZmD9PPwdTHR4e824CuUhB+McciQEr7zyCg0ZMkSuGMCC1gBCiMOHD8tV7CD78emnn8rVLQoUKECLFy+WK6J06dJF23wyLGgj6du3r7jFYgenirt27ZIrxgmOoRlXwYJmXAUL2kCQo06RIoWjMaHhGNpATp48KU4y7UDQuHPIBIcFzbgKDjkYV8GCZlwFC5pxFSxoxlWwoBlXwYJmXAULmnEVLGjGVbCgGVfBgmZcBQuacRUsaMZVsKAZV8GCZlwFC5pxFSxoxlWwoBlXwYJmXAULmnERRP8P7fManRKleeIAAAAASUVORK5CYII=;" vertex="1" parent="1">
          <mxGeometry x="608.25" y="160.41000000000003" width="51.18" height="169.17" as="geometry" />
        </mxCell>
      </root>
    </mxGraphModel>
  </diagram>
</mxfile>
